<svg width="45" height="44" viewBox="0 0 45 44" fill="none" xmlns="http://www.w3.org/2000/svg">
<rect x="0.5" width="44" height="44" rx="22" fill="white"/>
<path d="M23.5 24.75H12.5C12.09 24.75 11.75 24.41 11.75 24V16C11.75 13.38 13.88 11.25 16.5 11.25H25.5C25.91 11.25 26.25 11.59 26.25 12V22C26.25 23.52 25.02 24.75 23.5 24.75ZM13.25 23.25H23.5C24.19 23.25 24.75 22.69 24.75 22V12.75H16.5C14.71 12.75 13.25 14.21 13.25 16V23.25Z" fill="#18AEC9"/>
<path d="M29.5 30.75H28.5C28.09 30.75 27.75 30.41 27.75 30C27.75 29.31 27.19 28.75 26.5 28.75C25.81 28.75 25.25 29.31 25.25 30C25.25 30.41 24.91 30.75 24.5 30.75H20.5C20.09 30.75 19.75 30.41 19.75 30C19.75 29.31 19.19 28.75 18.5 28.75C17.81 28.75 17.25 29.31 17.25 30C17.25 30.41 16.91 30.75 16.5 30.75H15.5C13.43 30.75 11.75 29.07 11.75 27V24C11.75 23.59 12.09 23.25 12.5 23.25H23.5C24.19 23.25 24.75 22.69 24.75 22V15C24.75 14.59 25.09 14.25 25.5 14.25H27.34C28.33 14.25 29.24 14.78 29.73 15.64L31.44 18.63C31.57 18.86 31.57 19.15 31.44 19.38C31.31 19.61 31.06 19.75 30.79 19.75H29.5C29.36 19.75 29.25 19.86 29.25 20V23C29.25 23.14 29.36 23.25 29.5 23.25H32.5C32.91 23.25 33.25 23.59 33.25 24V27C33.25 29.07 31.57 30.75 29.5 30.75ZM29.15 29.25H29.5C30.74 29.25 31.75 28.24 31.75 27V24.75H29.5C28.54 24.75 27.75 23.96 27.75 23V20C27.75 19.04 28.53 18.25 29.5 18.25L28.43 16.38C28.21 15.99 27.79 15.75 27.34 15.75H26.25V22C26.25 23.52 25.02 24.75 23.5 24.75H13.25V27C13.25 28.24 14.26 29.25 15.5 29.25H15.85C16.18 28.1 17.24 27.25 18.5 27.25C19.76 27.25 20.82 28.1 21.15 29.25H23.86C24.19 28.1 25.25 27.25 26.51 27.25C27.77 27.25 28.82 28.1 29.15 29.25Z" fill="#18AEC9"/>
<path d="M18.5 32.75C16.98 32.75 15.75 31.52 15.75 30C15.75 28.48 16.98 27.25 18.5 27.25C20.02 27.25 21.25 28.48 21.25 30C21.25 31.52 20.02 32.75 18.5 32.75ZM18.5 28.75C17.81 28.75 17.25 29.31 17.25 30C17.25 30.69 17.81 31.25 18.5 31.25C19.19 31.25 19.75 30.69 19.75 30C19.75 29.31 19.19 28.75 18.5 28.75Z" fill="#18AEC9"/>
<path d="M26.5 32.75C24.98 32.75 23.75 31.52 23.75 30C23.75 28.48 24.98 27.25 26.5 27.25C28.02 27.25 29.25 28.48 29.25 30C29.25 31.52 28.02 32.75 26.5 32.75ZM26.5 28.75C25.81 28.75 25.25 29.31 25.25 30C25.25 30.69 25.81 31.25 26.5 31.25C27.19 31.25 27.75 30.69 27.75 30C27.75 29.31 27.19 28.75 26.5 28.75Z" fill="#18AEC9"/>
<path d="M32.5 24.75H29.5C28.54 24.75 27.75 23.96 27.75 23V20C27.75 19.04 28.54 18.25 29.5 18.25H30.79C31.06 18.25 31.31 18.39 31.44 18.63L33.15 21.63C33.21 21.74 33.25 21.87 33.25 22V24C33.25 24.41 32.91 24.75 32.5 24.75ZM29.5 19.75C29.36 19.75 29.25 19.86 29.25 20V23C29.25 23.14 29.36 23.25 29.5 23.25H31.75V22.2L30.35 19.75H29.5Z" fill="#18AEC9"/>
</svg>
