<svg width="45" height="44" viewBox="0 0 45 44" fill="none" xmlns="http://www.w3.org/2000/svg">
<rect x="0.5" width="44" height="44" rx="22" fill="white"/>
<g clip-path="url(#clip0_77_2726)">
<path d="M23.5 24.7505H12.5C12.09 24.7505 11.75 24.4105 11.75 24.0005V17.6205C11.75 17.3005 11.95 17.0205 12.24 16.9105C12.54 16.8005 12.87 16.8905 13.07 17.1305C13.68 17.8605 14.63 18.2705 15.57 18.2405C16.37 18.2205 17.11 17.9205 17.67 17.3905C17.93 17.1705 18.14 16.9105 18.3 16.6205C18.61 16.0905 18.76 15.5105 18.75 14.9205C18.73 14.0005 18.33 13.1605 17.65 12.5505C17.41 12.3405 17.33 12.0105 17.44 11.7205C17.55 11.4305 17.83 11.2305 18.14 11.2305H25.5C25.91 11.2305 26.25 11.5705 26.25 11.9805V21.9805C26.25 23.5205 25.02 24.7505 23.5 24.7505ZM13.25 23.2505H23.5C24.19 23.2505 24.75 22.6905 24.75 22.0005V12.7505H19.69C20.04 13.4005 20.23 14.1305 20.25 14.8905C20.27 15.7605 20.05 16.6205 19.61 17.3705C19.37 17.8005 19.04 18.2105 18.68 18.5105C17.88 19.2705 16.78 19.7205 15.61 19.7505C14.77 19.7805 13.96 19.5705 13.26 19.1905V23.2505H13.25Z" fill="#06098C"/>
<path d="M29.5 30.75H28.5C28.09 30.75 27.75 30.41 27.75 30C27.75 29.31 27.19 28.75 26.5 28.75C25.81 28.75 25.25 29.31 25.25 30C25.25 30.41 24.91 30.75 24.5 30.75H20.5C20.09 30.75 19.75 30.41 19.75 30C19.75 29.31 19.19 28.75 18.5 28.75C17.81 28.75 17.25 29.31 17.25 30C17.25 30.41 16.91 30.75 16.5 30.75H15.5C13.43 30.75 11.75 29.07 11.75 27V24C11.75 23.59 12.09 23.25 12.5 23.25H23.5C24.19 23.25 24.75 22.69 24.75 22V15C24.75 14.59 25.09 14.25 25.5 14.25H27.34C28.33 14.25 29.24 14.78 29.73 15.64L31.44 18.63C31.57 18.86 31.57 19.15 31.44 19.38C31.31 19.61 31.06 19.75 30.79 19.75H29.5C29.36 19.75 29.25 19.86 29.25 20V23C29.25 23.14 29.36 23.25 29.5 23.25H32.5C32.91 23.25 33.25 23.59 33.25 24V27C33.25 29.07 31.57 30.75 29.5 30.75ZM29.15 29.25H29.5C30.74 29.25 31.75 28.24 31.75 27V24.75H29.5C28.54 24.75 27.75 23.96 27.75 23V20C27.75 19.04 28.53 18.25 29.5 18.25L28.43 16.38C28.21 15.99 27.79 15.75 27.34 15.75H26.25V22C26.25 23.52 25.02 24.75 23.5 24.75H13.25V27C13.25 28.24 14.26 29.25 15.5 29.25H15.85C16.18 28.1 17.24 27.25 18.5 27.25C19.76 27.25 20.82 28.1 21.15 29.25H23.86C24.19 28.1 25.25 27.25 26.51 27.25C27.77 27.25 28.82 28.1 29.15 29.25Z" fill="#06098C"/>
<path d="M18.5 32.75C16.98 32.75 15.75 31.52 15.75 30C15.75 28.48 16.98 27.25 18.5 27.25C20.02 27.25 21.25 28.48 21.25 30C21.25 31.52 20.02 32.75 18.5 32.75ZM18.5 28.75C17.81 28.75 17.25 29.31 17.25 30C17.25 30.69 17.81 31.25 18.5 31.25C19.19 31.25 19.75 30.69 19.75 30C19.75 29.31 19.19 28.75 18.5 28.75Z" fill="#06098C"/>
<path d="M26.5 32.75C24.98 32.75 23.75 31.52 23.75 30C23.75 28.48 24.98 27.25 26.5 27.25C28.02 27.25 29.25 28.48 29.25 30C29.25 31.52 28.02 32.75 26.5 32.75ZM26.5 28.75C25.81 28.75 25.25 29.31 25.25 30C25.25 30.69 25.81 31.25 26.5 31.25C27.19 31.25 27.75 30.69 27.75 30C27.75 29.31 27.19 28.75 26.5 28.75Z" fill="#06098C"/>
<path d="M32.5 24.75H29.5C28.54 24.75 27.75 23.96 27.75 23V20C27.75 19.04 28.54 18.25 29.5 18.25H30.79C31.06 18.25 31.31 18.39 31.44 18.63L33.15 21.63C33.21 21.74 33.25 21.87 33.25 22V24C33.25 24.41 32.91 24.75 32.5 24.75ZM29.5 19.75C29.36 19.75 29.25 19.86 29.25 20V23C29.25 23.14 29.36 23.25 29.5 23.25H31.75V22.2L30.35 19.75H29.5Z" fill="#06098C"/>
<path d="M15.4896 19.75C14.1096 19.75 12.8096 19.15 11.9296 18.1C11.7896 17.95 11.6396 17.74 11.5096 17.54C11.0396 16.83 10.7796 15.99 10.7596 15.11C10.7196 13.65 11.3396 12.28 12.4597 11.35C13.3097 10.65 14.3296 10.27 15.4096 10.25C16.5896 10.26 17.7696 10.65 18.6496 11.44C19.6496 12.32 20.2296 13.55 20.2596 14.89C20.2796 15.76 20.0596 16.62 19.6196 17.37C19.3796 17.8 19.0496 18.21 18.6896 18.51C17.8896 19.27 16.7896 19.72 15.6196 19.75C15.5696 19.75 15.5296 19.75 15.4896 19.75ZM15.4896 11.75C15.4696 11.75 15.4496 11.75 15.4296 11.75C14.6996 11.76 13.9996 12.03 13.4096 12.51C12.6496 13.14 12.2296 14.08 12.2496 15.07C12.2696 15.67 12.4396 16.24 12.7596 16.71C12.8496 16.85 12.9396 16.98 13.0496 17.1C13.6896 17.86 14.6396 18.26 15.5696 18.24C16.3696 18.22 17.1096 17.92 17.6696 17.39C17.9296 17.17 18.1396 16.91 18.2996 16.62C18.6096 16.09 18.7596 15.51 18.7496 14.92C18.7296 14 18.3296 13.16 17.6497 12.55C17.0497 12.04 16.2896 11.75 15.4896 11.75Z" fill="#06098C"/>
<path d="M14.9489 16.7497C14.7589 16.7497 14.5789 16.6797 14.4289 16.5397L13.4189 15.5797C13.1189 15.2897 13.1089 14.8197 13.3989 14.5197C13.6889 14.2197 14.1589 14.2097 14.4589 14.4997L14.9489 14.9697L16.5189 13.4497C16.8189 13.1597 17.2889 13.1697 17.5789 13.4697C17.8689 13.7697 17.8589 14.2397 17.5589 14.5297L15.4689 16.5497C15.3189 16.6797 15.1289 16.7497 14.9489 16.7497Z" fill="#06098C"/>
</g>
<defs>
<clipPath id="clip0_77_2726">
<rect width="24" height="24" fill="white" transform="translate(10.5 10)"/>
</clipPath>
</defs>
</svg>
