<svg width="45" height="44" viewBox="0 0 45 44" fill="none" xmlns="http://www.w3.org/2000/svg">
<rect x="0.5" width="44" height="44" rx="22" fill="white"/>
<g clip-path="url(#clip0_77_2615)">
<path d="M23.5 24.7505H12.5C12.09 24.7505 11.75 24.4105 11.75 24.0005V17.6205C11.75 17.3005 11.95 17.0205 12.24 16.9105C12.54 16.8005 12.87 16.8905 13.07 17.1305C13.68 17.8605 14.63 18.2705 15.57 18.2405C16.37 18.2205 17.11 17.9205 17.67 17.3905C17.93 17.1705 18.14 16.9105 18.3 16.6205C18.61 16.0905 18.76 15.5105 18.75 14.9205C18.73 14.0005 18.33 13.1605 17.65 12.5505C17.41 12.3405 17.33 12.0105 17.44 11.7205C17.55 11.4305 17.83 11.2305 18.14 11.2305H25.5C25.91 11.2305 26.25 11.5705 26.25 11.9805V21.9805C26.25 23.5205 25.02 24.7505 23.5 24.7505ZM13.25 23.2505H23.5C24.19 23.2505 24.75 22.6905 24.75 22.0005V12.7505H19.69C20.04 13.4005 20.23 14.1305 20.25 14.8905C20.27 15.7605 20.05 16.6205 19.61 17.3705C19.37 17.8005 19.04 18.2105 18.68 18.5105C17.88 19.2705 16.78 19.7205 15.61 19.7505C14.78 19.7805 13.96 19.5705 13.26 19.1905V23.2505H13.25Z" fill="#F80F10"/>
<path d="M29.5 30.75H28.5C28.09 30.75 27.75 30.41 27.75 30C27.75 29.31 27.19 28.75 26.5 28.75C25.81 28.75 25.25 29.31 25.25 30C25.25 30.41 24.91 30.75 24.5 30.75H20.5C20.09 30.75 19.75 30.41 19.75 30C19.75 29.31 19.19 28.75 18.5 28.75C17.81 28.75 17.25 29.31 17.25 30C17.25 30.41 16.91 30.75 16.5 30.75H15.5C13.43 30.75 11.75 29.07 11.75 27V24C11.75 23.59 12.09 23.25 12.5 23.25H23.5C24.19 23.25 24.75 22.69 24.75 22V15C24.75 14.59 25.09 14.25 25.5 14.25H27.34C28.33 14.25 29.24 14.78 29.73 15.64L31.44 18.63C31.57 18.86 31.57 19.15 31.44 19.38C31.31 19.61 31.06 19.75 30.79 19.75H29.5C29.36 19.75 29.25 19.86 29.25 20V23C29.25 23.14 29.36 23.25 29.5 23.25H32.5C32.91 23.25 33.25 23.59 33.25 24V27C33.25 29.07 31.57 30.75 29.5 30.75ZM29.15 29.25H29.5C30.74 29.25 31.75 28.24 31.75 27V24.75H29.5C28.54 24.75 27.75 23.96 27.75 23V20C27.75 19.04 28.53 18.25 29.5 18.25L28.43 16.38C28.21 15.99 27.79 15.75 27.34 15.75H26.25V22C26.25 23.52 25.02 24.75 23.5 24.75H13.25V27C13.25 28.24 14.26 29.25 15.5 29.25H15.85C16.18 28.1 17.24 27.25 18.5 27.25C19.76 27.25 20.82 28.1 21.15 29.25H23.86C24.19 28.1 25.25 27.25 26.51 27.25C27.77 27.25 28.82 28.1 29.15 29.25Z" fill="#F80F10"/>
<path d="M18.5 32.75C16.98 32.75 15.75 31.52 15.75 30C15.75 28.48 16.98 27.25 18.5 27.25C20.02 27.25 21.25 28.48 21.25 30C21.25 31.52 20.02 32.75 18.5 32.75ZM18.5 28.75C17.81 28.75 17.25 29.31 17.25 30C17.25 30.69 17.81 31.25 18.5 31.25C19.19 31.25 19.75 30.69 19.75 30C19.75 29.31 19.19 28.75 18.5 28.75Z" fill="#F80F10"/>
<path d="M26.5 32.75C24.98 32.75 23.75 31.52 23.75 30C23.75 28.48 24.98 27.25 26.5 27.25C28.02 27.25 29.25 28.48 29.25 30C29.25 31.52 28.02 32.75 26.5 32.75ZM26.5 28.75C25.81 28.75 25.25 29.31 25.25 30C25.25 30.69 25.81 31.25 26.5 31.25C27.19 31.25 27.75 30.69 27.75 30C27.75 29.31 27.19 28.75 26.5 28.75Z" fill="#F80F10"/>
<path d="M32.5 24.75H29.5C28.54 24.75 27.75 23.96 27.75 23V20C27.75 19.04 28.54 18.25 29.5 18.25H30.79C31.06 18.25 31.31 18.39 31.44 18.63L33.15 21.63C33.21 21.74 33.25 21.87 33.25 22V24C33.25 24.41 32.91 24.75 32.5 24.75ZM29.5 19.75C29.36 19.75 29.25 19.86 29.25 20V23C29.25 23.14 29.36 23.25 29.5 23.25H31.75V22.2L30.35 19.75H29.5Z" fill="#F80F10"/>
<path d="M15.5 19.75C12.88 19.75 10.75 17.62 10.75 15C10.75 13.54 11.4 12.19 12.53 11.29C13.37 10.62 14.43 10.25 15.5 10.25C18.12 10.25 20.25 12.38 20.25 15C20.25 16.36 19.66 17.66 18.63 18.56C17.76 19.33 16.65 19.75 15.5 19.75ZM15.5 11.75C14.76 11.75 14.06 12 13.47 12.47C12.7 13.08 12.25 14.01 12.25 15C12.25 16.79 13.71 18.25 15.5 18.25C16.28 18.25 17.04 17.96 17.65 17.44C18.35 16.82 18.75 15.94 18.75 15C18.75 13.21 17.29 11.75 15.5 11.75Z" fill="#F80F10"/>
<path d="M14.5038 16.75C14.2538 16.75 14.0038 16.62 13.8638 16.39C13.6538 16.03 13.7638 15.57 14.1238 15.36L15.0138 14.83V13.75C15.0138 13.34 15.3538 13 15.7638 13C16.1738 13 16.5138 13.34 16.5138 13.75V15.25C16.5138 15.51 16.3738 15.76 16.1538 15.89L14.9038 16.64C14.7638 16.72 14.6338 16.75 14.5038 16.75Z" fill="#F80F10"/>
</g>
<defs>
<clipPath id="clip0_77_2615">
<rect width="24" height="24" fill="white" transform="translate(10.5 10)"/>
</clipPath>
</defs>
</svg>
