<svg width="12" height="12" viewBox="0 0 12 12" fill="none" xmlns="http://www.w3.org/2000/svg">
<path d="M5.6515 11.1464C2.62511 11.1464 0.161133 8.68187 0.161133 5.65475C0.161133 2.62764 2.62511 0.163086 5.6515 0.163086C8.6779 0.163086 11.1419 2.62764 11.1419 5.65475C11.1419 8.68187 8.6779 11.1464 5.6515 11.1464ZM5.6515 0.966743C3.06434 0.966743 0.964601 3.07233 0.964601 5.65475C0.964601 8.23719 3.06434 10.3428 5.6515 10.3428C8.2387 10.3428 10.3384 8.23719 10.3384 5.65475C10.3384 3.07233 8.2387 0.966743 5.6515 0.966743Z" fill="#A9A9A9"/>
<path d="M11.2817 11.6839C11.18 11.6839 11.0782 11.6464 10.9979 11.566L9.92655 10.4945C9.77123 10.3391 9.77123 10.082 9.92655 9.92659C10.0819 9.77121 10.339 9.77121 10.4943 9.92659L11.5657 10.9981C11.721 11.1535 11.721 11.4107 11.5657 11.566C11.4853 11.6464 11.3835 11.6839 11.2817 11.6839Z" fill="#A9A9A9"/>
</svg>
