<svg width="300" height="300" viewBox="0 0 300 300" fill="none" xmlns="http://www.w3.org/2000/svg">
<path d="M62.1488 288V270.545H68.0465C69.4158 270.545 70.5352 270.793 71.4045 271.287C72.2795 271.776 72.9272 272.438 73.3477 273.273C73.7681 274.108 73.9783 275.04 73.9783 276.068C73.9783 277.097 73.7681 278.031 73.3477 278.872C72.9329 279.713 72.2908 280.384 71.4215 280.884C70.5522 281.378 69.4386 281.625 68.0806 281.625H63.8533V279.75H68.0124C68.9499 279.75 69.7028 279.588 70.271 279.264C70.8391 278.94 71.2511 278.503 71.5067 277.952C71.7681 277.395 71.8988 276.767 71.8988 276.068C71.8988 275.369 71.7681 274.744 71.5067 274.193C71.2511 273.642 70.8363 273.21 70.2624 272.898C69.6886 272.58 68.9272 272.42 67.9783 272.42H64.2624V288H62.1488ZM80.9627 288.307C80.1332 288.307 79.3803 288.151 78.7042 287.838C78.0281 287.52 77.4911 287.062 77.0934 286.466C76.6957 285.864 76.4968 285.136 76.4968 284.284C76.4968 283.534 76.6445 282.926 76.94 282.46C77.2354 281.989 77.6303 281.619 78.1246 281.352C78.619 281.085 79.1644 280.886 79.761 280.756C80.3633 280.619 80.9684 280.511 81.5763 280.432C82.3718 280.33 83.0167 280.253 83.511 280.202C84.011 280.145 84.3746 280.051 84.6019 279.92C84.8349 279.79 84.9513 279.562 84.9513 279.239V279.17C84.9513 278.33 84.7212 277.676 84.261 277.21C83.8065 276.744 83.1161 276.511 82.19 276.511C81.2298 276.511 80.4769 276.722 79.9315 277.142C79.386 277.562 79.0025 278.011 78.7809 278.489L76.8718 277.807C77.2127 277.011 77.6673 276.392 78.2354 275.949C78.8093 275.5 79.4343 275.187 80.1104 275.011C80.7923 274.83 81.4627 274.739 82.1218 274.739C82.5423 274.739 83.0252 274.79 83.5707 274.892C84.1218 274.989 84.6531 275.19 85.1644 275.497C85.6815 275.804 86.1104 276.267 86.4513 276.886C86.7923 277.506 86.9627 278.335 86.9627 279.375V288H84.9513V286.227H84.8491C84.7127 286.511 84.4854 286.815 84.1673 287.139C83.8491 287.463 83.4258 287.739 82.8974 287.966C82.369 288.193 81.7241 288.307 80.9627 288.307ZM81.2695 286.5C82.065 286.5 82.7354 286.344 83.2809 286.031C83.832 285.719 84.2468 285.315 84.5252 284.821C84.8093 284.327 84.9513 283.807 84.9513 283.261V281.42C84.8661 281.523 84.6786 281.616 84.3888 281.702C84.1048 281.781 83.7752 281.852 83.4002 281.915C83.0309 281.972 82.6701 282.023 82.3178 282.068C81.9712 282.108 81.69 282.142 81.4741 282.17C80.9513 282.239 80.4627 282.349 80.0082 282.503C79.5593 282.651 79.1957 282.875 78.9173 283.176C78.6445 283.472 78.5082 283.875 78.5082 284.386C78.5082 285.085 78.7667 285.614 79.2837 285.972C79.8065 286.324 80.4684 286.5 81.2695 286.5ZM95.918 293.182C94.9464 293.182 94.1112 293.057 93.4123 292.807C92.7134 292.562 92.131 292.239 91.6651 291.835C91.2049 291.438 90.8384 291.011 90.5657 290.557L92.168 289.432C92.3498 289.67 92.5799 289.943 92.8583 290.25C93.1367 290.562 93.5174 290.832 94.0004 291.06C94.489 291.293 95.1282 291.409 95.918 291.409C96.9748 291.409 97.8469 291.153 98.5344 290.642C99.2219 290.131 99.5657 289.33 99.5657 288.239V285.58H99.3952C99.2475 285.818 99.0373 286.114 98.7646 286.466C98.4975 286.812 98.1112 287.122 97.6055 287.395C97.1055 287.662 96.4293 287.795 95.5771 287.795C94.5202 287.795 93.5714 287.545 92.7305 287.045C91.8952 286.545 91.2333 285.818 90.7447 284.864C90.2617 283.909 90.0202 282.75 90.0202 281.386C90.0202 280.045 90.256 278.878 90.7276 277.884C91.1992 276.884 91.8555 276.111 92.6964 275.565C93.5373 275.014 94.5089 274.739 95.6112 274.739C96.4634 274.739 97.1396 274.881 97.6396 275.165C98.1452 275.443 98.5316 275.761 98.7987 276.119C99.0714 276.472 99.2816 276.761 99.4293 276.989H99.6339V274.909H101.577V288.375C101.577 289.5 101.321 290.415 100.81 291.119C100.304 291.83 99.6225 292.349 98.7646 292.679C97.9123 293.014 96.9634 293.182 95.918 293.182ZM95.8498 285.989C96.6566 285.989 97.3384 285.804 97.8952 285.435C98.4521 285.065 98.8754 284.534 99.1651 283.841C99.4549 283.148 99.5998 282.318 99.5998 281.352C99.5998 280.409 99.4577 279.577 99.1737 278.855C98.8896 278.134 98.4691 277.568 97.9123 277.159C97.3555 276.75 96.668 276.545 95.8498 276.545C94.9975 276.545 94.2873 276.761 93.7191 277.193C93.1566 277.625 92.7333 278.205 92.4492 278.932C92.1708 279.659 92.0316 280.466 92.0316 281.352C92.0316 282.261 92.1737 283.065 92.4577 283.764C92.7475 284.457 93.1737 285.003 93.7362 285.401C94.3043 285.793 95.0089 285.989 95.8498 285.989ZM110.748 288.273C109.486 288.273 108.398 287.994 107.483 287.438C106.574 286.875 105.873 286.091 105.378 285.085C104.89 284.074 104.645 282.898 104.645 281.557C104.645 280.216 104.89 279.034 105.378 278.011C105.873 276.983 106.56 276.182 107.441 275.608C108.327 275.028 109.361 274.739 110.543 274.739C111.225 274.739 111.898 274.852 112.563 275.08C113.228 275.307 113.833 275.676 114.378 276.188C114.924 276.693 115.358 277.364 115.682 278.199C116.006 279.034 116.168 280.062 116.168 281.284V282.136H106.077V280.398H114.123C114.123 279.659 113.975 279 113.679 278.42C113.39 277.841 112.975 277.384 112.435 277.048C111.901 276.713 111.27 276.545 110.543 276.545C109.742 276.545 109.049 276.744 108.463 277.142C107.884 277.534 107.438 278.045 107.125 278.676C106.813 279.307 106.657 279.983 106.657 280.705V281.864C106.657 282.852 106.827 283.69 107.168 284.378C107.515 285.06 107.995 285.58 108.608 285.938C109.222 286.29 109.935 286.466 110.748 286.466C111.276 286.466 111.753 286.392 112.179 286.244C112.611 286.091 112.983 285.864 113.296 285.562C113.608 285.256 113.85 284.875 114.02 284.42L115.963 284.966C115.759 285.625 115.415 286.205 114.932 286.705C114.449 287.199 113.853 287.585 113.142 287.864C112.432 288.136 111.634 288.273 110.748 288.273ZM127.989 280.125V288H125.978V274.909H127.921V276.955H128.091C128.398 276.29 128.864 275.756 129.489 275.352C130.114 274.943 130.921 274.739 131.909 274.739C132.796 274.739 133.571 274.92 134.236 275.284C134.901 275.642 135.418 276.188 135.787 276.92C136.157 277.648 136.341 278.568 136.341 279.682V288H134.33V279.818C134.33 278.79 134.063 277.989 133.529 277.415C132.995 276.835 132.262 276.545 131.33 276.545C130.688 276.545 130.114 276.685 129.608 276.963C129.108 277.241 128.713 277.648 128.424 278.182C128.134 278.716 127.989 279.364 127.989 280.125ZM145.335 288.273C144.153 288.273 143.116 287.991 142.224 287.429C141.338 286.866 140.645 286.08 140.145 285.068C139.65 284.057 139.403 282.875 139.403 281.523C139.403 280.159 139.65 278.969 140.145 277.952C140.645 276.935 141.338 276.145 142.224 275.582C143.116 275.02 144.153 274.739 145.335 274.739C146.517 274.739 147.551 275.02 148.437 275.582C149.329 276.145 150.022 276.935 150.517 277.952C151.017 278.969 151.267 280.159 151.267 281.523C151.267 282.875 151.017 284.057 150.517 285.068C150.022 286.08 149.329 286.866 148.437 287.429C147.551 287.991 146.517 288.273 145.335 288.273ZM145.335 286.466C146.233 286.466 146.971 286.236 147.551 285.776C148.13 285.315 148.559 284.71 148.838 283.96C149.116 283.21 149.255 282.398 149.255 281.523C149.255 280.648 149.116 279.832 148.838 279.077C148.559 278.321 148.13 277.71 147.551 277.244C146.971 276.778 146.233 276.545 145.335 276.545C144.437 276.545 143.699 276.778 143.119 277.244C142.539 277.71 142.11 278.321 141.832 279.077C141.554 279.832 141.414 280.648 141.414 281.523C141.414 282.398 141.554 283.21 141.832 283.96C142.11 284.71 142.539 285.315 143.119 285.776C143.699 286.236 144.437 286.466 145.335 286.466ZM160.03 274.909V276.614H153.246V274.909H160.03ZM155.223 271.773H157.235V284.25C157.235 284.818 157.317 285.244 157.482 285.528C157.652 285.807 157.868 285.994 158.13 286.091C158.397 286.182 158.678 286.227 158.973 286.227C159.195 286.227 159.377 286.216 159.519 286.193C159.661 286.165 159.775 286.142 159.86 286.125L160.269 287.932C160.132 287.983 159.942 288.034 159.698 288.085C159.453 288.142 159.144 288.17 158.769 288.17C158.201 288.17 157.644 288.048 157.098 287.804C156.559 287.56 156.11 287.188 155.752 286.688C155.4 286.188 155.223 285.557 155.223 284.795V271.773ZM175.635 274.909V276.614H168.578V274.909H175.635ZM170.692 288V273.102C170.692 272.352 170.868 271.727 171.221 271.227C171.573 270.727 172.03 270.352 172.593 270.102C173.155 269.852 173.749 269.727 174.374 269.727C174.868 269.727 175.272 269.767 175.584 269.847C175.897 269.926 176.13 270 176.283 270.068L175.703 271.807C175.601 271.773 175.459 271.73 175.277 271.679C175.101 271.628 174.868 271.602 174.578 271.602C173.914 271.602 173.434 271.77 173.138 272.105C172.848 272.44 172.703 272.932 172.703 273.58V288H170.692ZM183.233 288.273C182.051 288.273 181.015 287.991 180.123 287.429C179.236 286.866 178.543 286.08 178.043 285.068C177.549 284.057 177.301 282.875 177.301 281.523C177.301 280.159 177.549 278.969 178.043 277.952C178.543 276.935 179.236 276.145 180.123 275.582C181.015 275.02 182.051 274.739 183.233 274.739C184.415 274.739 185.449 275.02 186.336 275.582C187.228 276.145 187.921 276.935 188.415 277.952C188.915 278.969 189.165 280.159 189.165 281.523C189.165 282.875 188.915 284.057 188.415 285.068C187.921 286.08 187.228 286.866 186.336 287.429C185.449 287.991 184.415 288.273 183.233 288.273ZM183.233 286.466C184.131 286.466 184.87 286.236 185.449 285.776C186.029 285.315 186.458 284.71 186.736 283.96C187.015 283.21 187.154 282.398 187.154 281.523C187.154 280.648 187.015 279.832 186.736 279.077C186.458 278.321 186.029 277.71 185.449 277.244C184.87 276.778 184.131 276.545 183.233 276.545C182.336 276.545 181.597 276.778 181.017 277.244C180.438 277.71 180.009 278.321 179.73 279.077C179.452 279.832 179.313 280.648 179.313 281.523C179.313 282.398 179.452 283.21 179.73 283.96C180.009 284.71 180.438 285.315 181.017 285.776C181.597 286.236 182.336 286.466 183.233 286.466ZM200.485 282.648V274.909H202.497V288H200.485V285.784H200.349C200.042 286.449 199.565 287.014 198.917 287.48C198.27 287.94 197.451 288.17 196.463 288.17C195.645 288.17 194.917 287.991 194.281 287.634C193.645 287.27 193.145 286.724 192.781 285.997C192.417 285.264 192.235 284.341 192.235 283.227V274.909H194.247V283.091C194.247 284.045 194.514 284.807 195.048 285.375C195.588 285.943 196.275 286.227 197.11 286.227C197.61 286.227 198.119 286.099 198.636 285.844C199.159 285.588 199.596 285.196 199.949 284.668C200.306 284.139 200.485 283.466 200.485 282.648ZM208.192 280.125V288H206.181V274.909H208.124V276.955H208.294C208.601 276.29 209.067 275.756 209.692 275.352C210.317 274.943 211.124 274.739 212.113 274.739C212.999 274.739 213.775 274.92 214.439 275.284C215.104 275.642 215.621 276.188 215.99 276.92C216.36 277.648 216.544 278.568 216.544 279.682V288H214.533V279.818C214.533 278.79 214.266 277.989 213.732 277.415C213.198 276.835 212.465 276.545 211.533 276.545C210.891 276.545 210.317 276.685 209.811 276.963C209.311 277.241 208.917 277.648 208.627 278.182C208.337 278.716 208.192 279.364 208.192 280.125ZM225.163 288.273C224.072 288.273 223.109 287.997 222.274 287.446C221.439 286.889 220.785 286.105 220.314 285.094C219.842 284.077 219.606 282.875 219.606 281.489C219.606 280.114 219.842 278.92 220.314 277.909C220.785 276.898 221.441 276.116 222.282 275.565C223.123 275.014 224.095 274.739 225.197 274.739C226.049 274.739 226.723 274.881 227.217 275.165C227.717 275.443 228.098 275.761 228.359 276.119C228.626 276.472 228.833 276.761 228.981 276.989H229.152V270.545H231.163V288H229.22V285.989H228.981C228.833 286.227 228.623 286.528 228.35 286.892C228.078 287.25 227.689 287.571 227.183 287.855C226.677 288.134 226.004 288.273 225.163 288.273ZM225.436 286.466C226.243 286.466 226.924 286.256 227.481 285.835C228.038 285.409 228.461 284.821 228.751 284.071C229.041 283.315 229.186 282.443 229.186 281.455C229.186 280.477 229.044 279.622 228.76 278.889C228.475 278.151 228.055 277.577 227.498 277.168C226.941 276.753 226.254 276.545 225.436 276.545C224.583 276.545 223.873 276.764 223.305 277.202C222.743 277.634 222.319 278.222 222.035 278.966C221.757 279.705 221.618 280.534 221.618 281.455C221.618 282.386 221.76 283.233 222.044 283.994C222.333 284.75 222.76 285.352 223.322 285.801C223.89 286.244 224.595 286.466 225.436 286.466ZM237.785 270.545L237.615 283.091H235.637L235.467 270.545H237.785ZM236.626 288.136C236.206 288.136 235.845 287.986 235.544 287.685C235.243 287.384 235.092 287.023 235.092 286.602C235.092 286.182 235.243 285.821 235.544 285.52C235.845 285.219 236.206 285.068 236.626 285.068C237.047 285.068 237.407 285.219 237.708 285.52C238.01 285.821 238.16 286.182 238.16 286.602C238.16 286.881 238.089 287.136 237.947 287.369C237.811 287.602 237.626 287.79 237.393 287.932C237.166 288.068 236.91 288.136 236.626 288.136Z" fill="#CDCDCD"/>
<path d="M150 54C130.419 53.9834 111.343 60.2198 95.5537 71.8007C79.764 83.3816 68.0847 99.7018 62.2175 118.384C56.3504 137.065 56.6019 157.133 62.9354 175.661C69.2689 194.19 81.3535 210.213 97.4285 221.394V126.286C95.6857 126.286 94.0142 125.593 92.7818 124.361C91.5494 123.129 90.8571 121.457 90.8571 119.714C90.8571 117.972 91.5494 116.3 92.7818 115.068C94.0142 113.835 95.6857 113.143 97.4285 113.143H130.286C132.029 113.143 133.7 113.835 134.932 115.068C136.165 116.3 136.857 117.972 136.857 119.714C136.857 121.457 136.165 123.129 134.932 124.361C133.7 125.593 132.029 126.286 130.286 126.286H110.571V228.997C122.871 234.923 136.348 238 150 238C163.652 238 177.129 234.923 189.429 228.997V126.286H169.714C167.971 126.286 166.3 125.593 165.068 124.361C163.835 123.129 163.143 121.457 163.143 119.714C163.143 117.972 163.835 116.3 165.068 115.068C166.3 113.835 167.971 113.143 169.714 113.143H202.571C204.314 113.143 205.986 113.835 207.218 115.068C208.451 116.3 209.143 117.972 209.143 119.714C209.143 121.457 208.451 123.129 207.218 124.361C205.986 125.593 204.314 126.286 202.571 126.286V221.394C218.646 210.213 230.731 194.19 237.065 175.661C243.398 157.133 243.65 137.065 237.782 118.384C231.915 99.7018 220.236 83.3816 204.446 71.8007C188.657 60.2198 169.581 53.9834 150 54V54ZM175.78 176.327C176.112 177.124 176.284 177.978 176.286 178.841C176.289 179.704 176.121 180.559 175.792 181.357C175.464 182.155 174.982 182.881 174.373 183.493C173.764 184.105 173.041 184.591 172.244 184.923C171.443 185.259 170.583 185.431 169.714 185.429C168.417 185.429 167.149 185.045 166.07 184.326C164.991 183.607 164.148 182.584 163.649 181.387C162.526 178.692 160.631 176.39 158.202 174.771C155.773 173.151 152.919 172.287 150 172.287C147.081 172.287 144.227 173.151 141.798 174.771C139.369 176.39 137.474 178.692 136.351 181.387C135.68 182.996 134.398 184.272 132.786 184.935C131.174 185.598 129.364 185.594 127.756 184.923C126.147 184.252 124.871 182.969 124.208 181.357C123.545 179.745 123.549 177.936 124.22 176.327C126.341 171.238 129.921 166.89 134.509 163.832C139.096 160.774 144.486 159.142 150 159.142C155.514 159.142 160.904 160.774 165.491 163.832C170.079 166.89 173.659 171.238 175.78 176.327V176.327Z" fill="#CDCDCD"/>
</svg>
