<svg width="300" height="300" viewBox="0 0 300 300" fill="none" xmlns="http://www.w3.org/2000/svg">
<path d="M97.8867 219.631L103.404 222.725L104.993 222.881L107.195 221.256L103.58 216.344L101.207 215.462L97.8867 219.631Z" fill="#282828"/>
<path d="M162.81 176.751L130.164 157.779C130.138 157.764 130.111 157.751 130.082 157.741L162.729 176.713C162.757 176.723 162.784 176.736 162.81 176.751Z" fill="#2B2F35"/>
<path d="M162.729 176.713L130.082 157.741C130.059 157.733 130.036 157.726 130.012 157.722L162.658 176.694C162.683 176.699 162.706 176.705 162.729 176.713Z" fill="#2D3137"/>
<path d="M162.659 176.694L130.012 157.722C129.993 157.718 129.974 157.715 129.954 157.713L162.601 176.685C162.62 176.687 162.64 176.69 162.659 176.694Z" fill="#2E3339"/>
<path d="M162.601 176.685L129.954 157.713C129.937 157.712 129.919 157.711 129.902 157.711L162.549 176.683C162.566 176.683 162.583 176.684 162.601 176.685Z" fill="#30353B"/>
<path d="M162.549 176.683L129.902 157.711C129.886 157.711 129.871 157.711 129.855 157.712L162.501 176.684C162.517 176.683 162.533 176.683 162.549 176.683Z" fill="#33383D"/>
<path d="M162.501 176.684L129.855 157.712C129.84 157.713 129.825 157.715 129.81 157.717L162.457 176.689C162.472 176.687 162.487 176.685 162.501 176.684Z" fill="#33393F"/>
<path d="M162.457 176.689L129.81 157.717C129.795 157.719 129.781 157.721 129.766 157.724L162.413 176.696C162.428 176.693 162.442 176.691 162.457 176.689Z" fill="#353A41"/>
<path d="M162.413 176.696L129.766 157.724C129.752 157.727 129.739 157.73 129.725 157.733L162.372 176.705C162.385 176.702 162.399 176.699 162.413 176.696Z" fill="#373C43"/>
<path d="M162.372 176.705L129.725 157.733C129.711 157.737 129.698 157.74 129.684 157.745L162.33 176.717C162.344 176.712 162.358 176.709 162.372 176.705Z" fill="#393E45"/>
<path d="M162.33 176.717L129.684 157.745C129.67 157.749 129.657 157.753 129.644 157.758L162.29 176.73C162.304 176.725 162.317 176.721 162.33 176.717Z" fill="#3A4047"/>
<path d="M162.29 176.73L129.644 157.758C129.63 157.762 129.617 157.767 129.603 157.773L162.25 176.745C162.263 176.74 162.277 176.735 162.29 176.73Z" fill="#3C4249"/>
<path d="M162.25 176.745L129.603 157.773C129.59 157.778 129.577 157.784 129.563 157.79L162.21 176.762C162.223 176.756 162.237 176.75 162.25 176.745Z" fill="#3E434B"/>
<path d="M162.21 176.762L129.563 157.79C129.55 157.796 129.536 157.802 129.523 157.809L162.169 176.781C162.183 176.774 162.197 176.768 162.21 176.762Z" fill="#40454E"/>
<path d="M162.169 176.781L129.523 157.809C129.509 157.816 129.496 157.823 129.482 157.83L162.128 176.802C162.142 176.795 162.156 176.788 162.169 176.781Z" fill="#424750"/>
<path d="M162.129 176.802L129.482 157.83L129.45 157.848L162.097 176.82L162.129 176.802Z" fill="#424952"/>
<path d="M162.097 176.82L129.45 157.848L129.206 157.989L161.853 176.961L162.097 176.82Z" fill="#484E58"/>
<path d="M161.853 176.961L129.206 157.989L80.3923 185.798L113.039 204.77L161.853 176.961Z" fill="#484E58"/>
<path d="M59 199.303V203.089C59.0201 203.412 59.1208 203.633 59.3019 203.754L91.9481 222.725C91.7668 222.605 91.6661 222.383 91.6661 222.06L91.6459 218.274C91.6459 217.651 92.0891 216.865 92.6528 216.543L113.034 204.761L80.388 185.789L60.0068 197.571C59.4429 197.893 59 198.659 59 199.303V199.303Z" fill="#686868"/>
<path d="M92.6456 216.545C92.0927 216.864 91.6442 217.641 91.6459 218.276L91.6565 222.058C91.6583 222.708 92.1099 222.967 92.6628 222.647L240 136.435C240.553 136.116 241.002 135.339 241 134.689L240.989 130.907C240.988 130.271 240.536 130.014 239.983 130.333L239.739 130.474L113.039 204.771L92.6456 216.545Z" fill="#4F4D4D"/>
<path d="M150.547 188.113C150.587 188.073 150.607 188.052 150.647 188.012V191.697C150.627 191.697 150.587 191.697 150.567 191.678C150.547 191.678 150.547 191.678 150.527 191.678H150.466C150.446 191.678 150.446 191.678 150.426 191.678C150.406 191.657 150.386 191.657 150.346 191.657L150.325 191.637C150.305 191.637 150.285 191.637 150.265 191.617C150.245 191.617 150.245 191.617 150.245 191.617C150.205 191.597 150.184 191.576 150.164 191.576L150.144 191.557C150.124 191.557 150.104 191.536 150.084 191.516C150.084 191.516 150.064 191.516 150.064 191.496C150.043 191.496 150.023 191.476 150.003 191.455C149.963 191.435 149.943 191.395 149.923 191.375C149.923 191.375 149.923 191.375 149.923 191.355C149.902 191.335 149.882 191.314 149.862 191.295C149.862 191.295 149.862 191.295 149.862 191.274C149.842 191.254 149.822 191.234 149.802 191.193V191.174C149.782 191.153 149.782 191.133 149.761 191.093C149.761 191.093 149.761 191.093 149.761 191.072C149.741 191.053 149.721 191.012 149.721 190.972C149.721 190.972 149.721 190.972 149.701 190.952C149.701 190.932 149.701 190.891 149.681 190.871C149.681 190.851 149.681 190.851 149.681 190.832C149.661 190.811 149.661 190.771 149.661 190.73C149.661 190.711 149.661 190.711 149.661 190.711C149.661 190.67 149.641 190.63 149.641 190.59V190.267C149.641 190.227 149.641 190.186 149.661 190.146C149.661 190.126 149.661 190.126 149.661 190.126C149.661 190.065 149.661 190.025 149.681 189.986C149.681 189.965 149.681 189.944 149.681 189.944C149.681 189.905 149.701 189.864 149.701 189.825C149.701 189.825 149.701 189.804 149.721 189.784C149.721 189.744 149.741 189.703 149.741 189.663C149.741 189.643 149.761 189.623 149.761 189.623C149.761 189.582 149.782 189.542 149.782 189.502C149.802 189.502 149.802 189.482 149.802 189.461C149.822 189.421 149.842 189.381 149.842 189.34C149.862 189.321 149.862 189.321 149.862 189.3C149.882 189.26 149.882 189.219 149.902 189.2C149.923 189.179 149.923 189.16 149.923 189.139C149.943 189.099 149.963 189.058 149.983 189.018V188.998C150.003 188.958 150.023 188.917 150.064 188.877C150.064 188.856 150.064 188.837 150.084 188.837C150.104 188.796 150.124 188.756 150.144 188.716V188.696C150.184 188.656 150.205 188.615 150.225 188.575C150.245 188.554 150.245 188.535 150.245 188.535C150.265 188.494 150.305 188.454 150.325 188.433C150.325 188.414 150.325 188.414 150.346 188.394C150.366 188.353 150.386 188.313 150.426 188.273L150.446 188.252C150.466 188.212 150.506 188.192 150.527 188.152C150.527 188.133 150.547 188.133 150.547 188.113V188.113Z" fill="#929393"/>
<path d="M110.957 178.979L78.31 160.006L78.3421 171.368L110.989 190.341L110.957 178.979Z" fill="#B94234"/>
<path d="M110.869 178.79L78.222 159.818C78.2431 159.83 78.2608 159.848 78.2749 159.869L110.922 178.842C110.907 178.82 110.89 178.802 110.869 178.79Z" fill="#7E2C23"/>
<path d="M110.922 178.842L78.2747 159.869L78.2862 159.89L110.933 178.862L110.922 178.842Z" fill="#812E24"/>
<path d="M110.933 178.862L78.2862 159.89L78.2936 159.907L110.94 178.88L110.933 178.862Z" fill="#853026"/>
<path d="M110.94 178.88L78.2936 159.907L78.2986 159.923L110.945 178.895L110.94 178.88Z" fill="#8B3227"/>
<path d="M110.945 178.895L78.2986 159.923L78.3025 159.938L110.949 178.91L110.945 178.895Z" fill="#903329"/>
<path d="M110.949 178.91L78.3025 159.938L78.3055 159.952L110.952 178.924L110.949 178.91Z" fill="#95352B"/>
<path d="M110.952 178.924L78.3055 159.952L78.3074 159.966L110.954 178.938L110.952 178.924Z" fill="#9A362B"/>
<path d="M110.954 178.938L78.3075 159.966L78.3088 159.979L110.956 178.952L110.954 178.938Z" fill="#9E382C"/>
<path d="M110.956 178.952L78.3087 159.979L78.3096 159.992L110.956 178.965L110.956 178.952Z" fill="#A33A2E"/>
<path d="M110.956 178.965L78.3096 159.992L78.3101 160.006L110.957 178.978L110.956 178.965Z" fill="#A83B2F"/>
<path d="M110.957 178.978L78.31 160.006V160.006L110.957 178.979V178.978" fill="#AC3C30"/>
<path d="M110.869 178.79L78.2218 159.818L78.1975 159.807L110.844 178.779L110.869 178.79Z" fill="#24282D"/>
<path d="M110.844 178.779L78.1975 159.807L78.1764 159.801L110.823 178.773L110.844 178.779Z" fill="#26292E"/>
<path d="M110.823 178.773L78.1764 159.801L78.1593 159.798L110.806 178.77L110.823 178.773Z" fill="#272B30"/>
<path d="M110.806 178.77L78.1593 159.798L78.1443 159.798L110.791 178.77L110.806 178.77Z" fill="#292C32"/>
<path d="M110.791 178.77L78.1443 159.798L78.13 159.798L110.777 178.77L110.791 178.77Z" fill="#2A2E34"/>
<path d="M110.777 178.77L78.13 159.798L78.1175 159.799L110.764 178.772L110.777 178.77Z" fill="#2B2F35"/>
<path d="M110.764 178.772L78.1174 159.799L78.1046 159.801L110.751 178.774L110.764 178.772Z" fill="#2D3137"/>
<path d="M110.752 178.774L78.1047 159.801L78.0927 159.804L110.739 178.776L110.752 178.774Z" fill="#2E3239"/>
<path d="M110.739 178.776L78.0927 159.804L78.0808 159.807L110.727 178.78L110.739 178.776Z" fill="#30343A"/>
<path d="M110.727 178.78L78.0808 159.807L78.0691 159.811L110.716 178.783L110.727 178.78Z" fill="#31353C"/>
<path d="M110.716 178.783L78.0691 159.811L78.0576 159.816L110.704 178.788L110.716 178.783Z" fill="#32373E"/>
<path d="M110.704 178.788L78.0576 159.816L78.0461 159.82L110.693 178.793L110.704 178.788Z" fill="#343940"/>
<path d="M110.693 178.793L78.0461 159.82L78.0344 159.826L110.681 178.798L110.693 178.793Z" fill="#353A41"/>
<path d="M110.681 178.798L78.0343 159.826L78.0224 159.832L110.669 178.804L110.681 178.798Z" fill="#383C44"/>
<path d="M110.669 178.804L78.0224 159.832L78.0133 159.837L110.66 178.81L110.669 178.804Z" fill="#383D46"/>
<path d="M80.3076 153.727L80.3882 185.789L113.034 204.761L112.954 172.699C112.954 171.693 113.512 170.519 114.29 169.729L81.6441 150.758C80.8657 151.547 80.3076 152.721 80.3076 153.727V153.727Z" fill="#D7D7D7"/>
<path d="M208.295 77.5005C207.912 77.2793 207.409 77.2995 206.825 77.6426L82.3416 150.184C82.0937 150.33 81.8631 150.535 81.6438 150.758L114.29 169.729C114.509 169.507 114.74 169.301 114.988 169.155L239.471 96.6132C240.055 96.2712 240.578 96.251 240.941 96.4733L208.295 77.5005Z" fill="#E8E8E8"/>
<path d="M114.986 169.164C113.854 169.818 112.944 171.408 112.948 172.709L113.039 204.771L240.727 130.264L240.636 98.2019C240.632 96.9018 239.716 96.3652 238.572 97.0259L114.986 169.164Z" fill="#BFBFBF"/>
<path d="M110.694 190.837L78.0474 171.865L64.1347 179.897L96.7814 198.869L110.694 190.837Z" fill="#CE493A"/>
<path d="M96.7813 198.869L64.1347 179.897L64.1065 179.913L96.7533 198.885L96.7813 198.869Z" fill="#C04335"/>
<path d="M96.7534 198.885L64.1065 179.913C64.0944 179.919 64.0825 179.926 64.0705 179.932L96.7172 198.904C96.7293 198.898 96.7412 198.892 96.7534 198.885Z" fill="#BB4234"/>
<path d="M96.7174 198.904L64.0705 179.932C64.0586 179.937 64.0469 179.943 64.0352 179.948L96.6818 198.92C96.6935 198.915 96.7054 198.91 96.7174 198.904Z" fill="#B64033"/>
<path d="M96.6818 198.92L64.0352 179.948C64.0235 179.953 64.0118 179.958 64.0003 179.963L96.6469 198.935C96.6584 198.931 96.6701 198.926 96.6818 198.92Z" fill="#B13E32"/>
<path d="M96.6468 198.935L64.0002 179.963C63.9887 179.968 63.9772 179.972 63.9659 179.976L96.6126 198.948C96.6239 198.944 96.6353 198.94 96.6468 198.935Z" fill="#AC3C30"/>
<path d="M96.6126 198.948L63.966 179.976C63.9543 179.98 63.9428 179.984 63.9313 179.987L96.5779 198.959C96.5894 198.956 96.6009 198.952 96.6126 198.948Z" fill="#A83B2F"/>
<path d="M96.5779 198.959L63.9313 179.987C63.9195 179.991 63.9078 179.994 63.8963 179.997L96.543 198.969C96.5545 198.966 96.5662 198.963 96.5779 198.959Z" fill="#A33A2E"/>
<path d="M96.543 198.969L63.8962 179.997C63.8847 180 63.8732 180.002 63.8619 180.004L96.5085 198.977C96.52 198.974 96.5313 198.972 96.543 198.969Z" fill="#9E382C"/>
<path d="M96.5085 198.977L63.8619 180.004C63.8493 180.007 63.8367 180.009 63.8244 180.01L96.471 198.983C96.4834 198.981 96.4959 198.979 96.5085 198.977Z" fill="#9A362B"/>
<path d="M96.471 198.983L63.8243 180.011C63.812 180.012 63.7998 180.014 63.7877 180.014L96.4343 198.987C96.4465 198.986 96.4588 198.984 96.471 198.983Z" fill="#95352B"/>
<path d="M96.4345 198.987L63.7879 180.014C63.774 180.015 63.7603 180.016 63.7469 180.016L96.3935 198.988C96.407 198.988 96.4206 198.987 96.4345 198.987Z" fill="#903329"/>
<path d="M96.3936 198.988L63.7469 180.016C63.733 180.016 63.7194 180.015 63.7059 180.014L96.3526 198.986C96.366 198.987 96.3797 198.988 96.3936 198.988Z" fill="#8B3227"/>
<path d="M96.3525 198.986L63.7059 180.014C63.6887 180.012 63.672 180.01 63.6555 180.006L96.3022 198.979C96.3184 198.982 96.3354 198.984 96.3525 198.986Z" fill="#853026"/>
<path d="M96.3022 198.979L63.6556 180.006C63.635 180.002 63.615 179.997 63.5957 179.99L96.2424 198.962C96.2617 198.969 96.2816 198.974 96.3022 198.979Z" fill="#812E24"/>
<path d="M96.2424 198.962L63.5957 179.99C63.5723 179.981 63.5502 179.971 63.5289 179.959L96.1756 198.931C96.1968 198.943 96.2192 198.953 96.2424 198.962Z" fill="#7E2C23"/>
<path d="M96.0185 197.86L63.3719 178.887L63.3617 178.917L96.0086 197.889L96.0185 197.86Z" fill="#424751"/>
<path d="M96.0086 197.889L63.3617 178.917C63.3563 178.933 63.3511 178.949 63.3463 178.965L95.9929 197.937C95.9979 197.921 96.0031 197.905 96.0086 197.889Z" fill="#404650"/>
<path d="M95.9929 197.937L63.3463 178.965C63.3415 178.981 63.3367 178.997 63.3324 179.013L95.979 197.985C95.9836 197.969 95.9881 197.953 95.9929 197.937" fill="#40444D"/>
<path d="M95.9792 197.985L63.3324 179.013C63.3281 179.029 63.3237 179.044 63.3198 179.06L95.9665 198.032C95.9706 198.017 95.9747 198.001 95.9792 197.985Z" fill="#3E434C"/>
<path d="M95.9667 198.032L63.32 179.06C63.3161 179.076 63.3125 179.091 63.3092 179.107L95.9558 198.079C95.9591 198.064 95.9628 198.048 95.9667 198.032Z" fill="#3D414A"/>
<path d="M95.9559 198.079L63.309 179.107C63.3058 179.122 63.3025 179.137 63.2997 179.152L95.9463 198.125C95.9494 198.11 95.9524 198.094 95.9559 198.079Z" fill="#3B4048"/>
<path d="M95.9465 198.125L63.2999 179.152C63.297 179.167 63.2944 179.182 63.2923 179.197L95.9389 198.169C95.9411 198.154 95.9437 198.14 95.9465 198.125Z" fill="#393E47"/>
<path d="M95.939 198.169L63.2921 179.197C63.2897 179.211 63.2878 179.226 63.2858 179.24L95.9325 198.212C95.9344 198.198 95.9366 198.184 95.939 198.169Z" fill="#383D46"/>
<path d="M95.9326 198.212L63.286 179.24C63.2843 179.255 63.2825 179.269 63.2812 179.283L95.9278 198.255C95.9294 198.241 95.9309 198.227 95.9326 198.212" fill="#383C44"/>
<path d="M95.9278 198.255L63.2812 179.283C63.2799 179.296 63.2788 179.31 63.278 179.324L95.9246 198.296C95.9255 198.282 95.9265 198.269 95.9278 198.255Z" fill="#353A41"/>
<path d="M95.9245 198.296L63.2779 179.324C63.2771 179.338 63.2764 179.352 63.276 179.365L95.9226 198.337C95.923 198.324 95.9237 198.31 95.9245 198.296" fill="#343940"/>
<path d="M95.9226 198.337L63.276 179.365C63.2755 179.379 63.2753 179.392 63.2755 179.406L95.9222 198.378C95.9222 198.364 95.9222 198.351 95.9226 198.337Z" fill="#32373E"/>
<path d="M95.9222 198.378L63.2756 179.406C63.2756 179.419 63.276 179.432 63.2764 179.445L95.9231 198.418C95.9226 198.405 95.9222 198.391 95.9222 198.378Z" fill="#31353C"/>
<path d="M95.9231 198.418L63.2765 179.445C63.2771 179.459 63.278 179.473 63.2791 179.487L95.9257 198.459C95.9246 198.446 95.9237 198.432 95.9231 198.418Z" fill="#30343A"/>
<path d="M95.9257 198.459L63.2791 179.487C63.2802 179.501 63.2817 179.514 63.2832 179.527L95.9298 198.499C95.9283 198.486 95.9268 198.473 95.9257 198.459Z" fill="#2E3239"/>
<path d="M95.93 198.499L63.2832 179.527C63.2849 179.542 63.2871 179.555 63.2895 179.569L95.9361 198.541C95.9339 198.528 95.9318 198.514 95.93 198.499Z" fill="#2D3137"/>
<path d="M95.9363 198.541L63.2894 179.569C63.292 179.583 63.2949 179.598 63.2979 179.611L95.9445 198.584C95.9415 198.57 95.9387 198.556 95.9363 198.541Z" fill="#2B2F35"/>
<path d="M95.9448 198.584L63.2981 179.611C63.3016 179.627 63.3055 179.642 63.3098 179.656L95.9565 198.628C95.9521 198.614 95.9482 198.599 95.9448 198.584" fill="#2A2E34"/>
<path d="M95.9562 198.628L63.3096 179.656C63.3142 179.672 63.3194 179.687 63.3248 179.702L95.9714 198.674C95.966 198.659 95.961 198.644 95.9562 198.628" fill="#292C32"/>
<path d="M95.9716 198.674L63.3248 179.702C63.3315 179.72 63.3389 179.737 63.3469 179.754L95.9936 198.726C95.9857 198.71 95.9784 198.692 95.9716 198.674Z" fill="#272B30"/>
<path d="M95.9938 198.726L63.3471 179.754C63.3573 179.775 63.3686 179.795 63.3808 179.814L96.0274 198.786C96.0152 198.767 96.004 198.748 95.9938 198.726Z" fill="#26292E"/>
<path d="M96.0274 198.786L63.3806 179.814C63.4202 179.876 63.4701 179.924 63.5289 179.958L96.1755 198.931C96.117 198.897 96.0669 198.848 96.0274 198.786Z" fill="#24282D"/>
<path d="M60.309 182.084L60.3493 197.37L92.9955 216.341L92.9552 201.056C92.9552 200.733 93.0155 200.411 93.1365 200.049L60.4903 181.077C60.3695 181.439 60.309 181.762 60.309 182.084V182.084Z" fill="#EF5A5A"/>
<path d="M110.66 178.81L78.0134 159.837L68.691 165.219L101.338 184.192L110.66 178.81Z" fill="#3D414A"/>
<path d="M100.568 185.169L67.921 166.197L63.3719 178.887L96.0185 197.86L100.568 185.169Z" fill="#424851"/>
<path d="M101.338 184.192L68.691 165.219L68.6828 165.224L101.329 184.197L101.338 184.192Z" fill="#383D46"/>
<path d="M101.329 184.197L68.6828 165.224C68.6708 165.231 68.6589 165.239 68.6472 165.246L101.294 184.218C101.306 184.211 101.317 184.203 101.329 184.197Z" fill="#393E47"/>
<path d="M101.294 184.218L68.647 165.246C68.6349 165.254 68.6227 165.262 68.6106 165.27L101.257 184.242C101.269 184.234 101.281 184.226 101.294 184.218Z" fill="#3B4048"/>
<path d="M101.257 184.243L68.6105 165.27C68.5982 165.279 68.5856 165.288 68.5732 165.297L101.22 184.269C101.232 184.26 101.245 184.251 101.257 184.243Z" fill="#3D414A"/>
<path d="M101.22 184.269L68.5734 165.297C68.5607 165.306 68.5481 165.316 68.5355 165.325L101.182 184.298C101.195 184.288 101.207 184.278 101.22 184.269Z" fill="#3E434C"/>
<path d="M101.182 184.298L68.5355 165.326C68.5225 165.336 68.5097 165.347 68.4969 165.357L101.144 184.329C101.156 184.318 101.169 184.308 101.182 184.298Z" fill="#40444D"/>
<path d="M101.143 184.329L68.4969 165.357C68.4839 165.368 68.4708 165.379 68.4578 165.391L101.104 184.363C101.117 184.352 101.13 184.34 101.143 184.329Z" fill="#404650"/>
<path d="M101.105 184.363L68.4578 165.391C68.4448 165.403 68.432 165.415 68.4194 165.427L101.066 184.399C101.079 184.387 101.092 184.375 101.105 184.363" fill="#424751"/>
<path d="M101.066 184.399L68.4194 165.427C68.4068 165.439 68.3945 165.451 68.3821 165.464L101.029 184.436C101.041 184.423 101.053 184.411 101.066 184.399Z" fill="#434953"/>
<path d="M101.029 184.436L68.3821 165.464C68.3702 165.476 68.358 165.489 68.3463 165.501L100.993 184.473C101.005 184.461 101.017 184.448 101.029 184.436Z" fill="#454A55"/>
<path d="M100.993 184.474L68.3464 165.501C68.3347 165.514 68.3232 165.527 68.3119 165.54L100.959 184.512C100.97 184.499 100.982 184.486 100.993 184.474" fill="#464C56"/>
<path d="M100.959 184.512L68.3119 165.54C68.3006 165.553 68.2894 165.566 68.2783 165.579L100.925 184.551C100.936 184.538 100.947 184.525 100.959 184.512Z" fill="#5C626B"/>
<path d="M100.925 184.551L68.278 165.579C68.2665 165.592 68.2553 165.607 68.2442 165.621L100.891 184.593C100.902 184.579 100.913 184.565 100.925 184.551Z" fill="#656A73"/>
<path d="M100.891 184.593L68.2442 165.621C68.2316 165.637 68.2193 165.653 68.2071 165.669L100.854 184.641C100.866 184.625 100.878 184.609 100.891 184.593Z" fill="#6D7279"/>
<path d="M100.854 184.642L68.2071 165.669C68.1889 165.694 68.1711 165.719 68.1537 165.745L100.8 184.717C100.818 184.691 100.836 184.666 100.854 184.642Z" fill="#72777F"/>
<path d="M100.801 184.717L68.1538 165.745C68.1284 165.782 68.1041 165.821 68.0809 165.86L100.728 184.832C100.751 184.793 100.775 184.754 100.801 184.717Z" fill="#787C83"/>
<path d="M100.728 184.832L68.0811 165.86C68.0661 165.886 68.0516 165.912 68.0375 165.938L100.684 184.91C100.698 184.884 100.713 184.858 100.728 184.832Z" fill="#72777F"/>
<path d="M100.684 184.91L68.0375 165.938C68.0282 165.956 68.0193 165.973 68.0106 165.99L100.657 184.963C100.666 184.945 100.675 184.928 100.684 184.91Z" fill="#6D7279"/>
<path d="M100.657 184.963L68.0106 165.99C68.003 166.006 67.9956 166.021 67.9885 166.036L100.635 185.009C100.642 184.993 100.65 184.978 100.657 184.963Z" fill="#656A73"/>
<path d="M100.635 185.009L67.9882 166.036C67.9815 166.051 67.975 166.065 67.9685 166.08L100.615 185.052C100.622 185.037 100.628 185.023 100.635 185.009Z" fill="#5C626B"/>
<path d="M100.615 185.052L67.9685 166.08C67.9622 166.094 67.9561 166.108 67.9503 166.122L100.597 185.095C100.603 185.08 100.609 185.066 100.615 185.052Z" fill="#464C56"/>
<path d="M100.597 185.095L67.9503 166.122C67.9442 166.137 67.9386 166.151 67.9329 166.166L100.58 185.138C100.585 185.123 100.591 185.109 100.597 185.095Z" fill="#454A55"/>
<path d="M100.58 185.138L67.933 166.166L67.921 166.197L100.568 185.169L100.58 185.138Z" fill="#434953"/>
<path d="M98.763 184.613C99.0441 183.843 99.5959 183.14 100.187 182.799L112.956 175.427L113.039 204.771L92.9929 216.344L92.9495 201.052C92.9487 200.742 93.012 200.409 93.14 200.054L98.763 184.613ZM96.7814 198.869L110.694 190.837C110.861 190.74 110.989 190.518 110.989 190.34L110.956 178.978C110.956 178.801 110.827 178.713 110.66 178.809L101.337 184.191C101.016 184.377 100.721 184.754 100.567 185.169L96.0183 197.859C95.7246 198.695 96.1385 199.241 96.7814 198.869" fill="#DD454D"/>
<path d="M100.568 185.169C100.721 184.755 101.016 184.377 101.338 184.192L110.112 179.126L110.142 189.937C110.143 190.115 110.015 190.337 109.847 190.433L95.9367 198.465C95.9198 198.291 95.9371 198.091 96.0185 197.86L100.568 185.169Z" fill="#39414D"/>
<path d="M66.1092 165.65L98.7554 184.621C99.0374 183.837 99.6013 183.132 100.185 182.788L112.954 175.418L80.3075 156.447L67.5392 163.817C66.9551 164.159 66.3912 164.864 66.1092 165.65V165.65Z" fill="#EF5A5A"/>
<path d="M98.763 184.613L66.1162 165.641L60.4932 181.082L93.1398 200.054L98.763 184.613Z" fill="#BC2B3B"/>
<path d="M68.45 169.326L96.2955 185.506L92.5654 195.745L64.7199 179.565L68.45 169.326Z" fill="#39414D"/>
<path d="M64.7199 179.565L92.5654 195.745L92.0709 197.103L62.9611 180.187L64.7199 179.565Z" fill="#EF5A5A"/>
<path d="M67.1857 168.591L68.45 169.326L64.7199 179.565L62.9611 180.187L67.1857 168.591Z" fill="#DD454D"/>
<path d="M111.573 212.036C111.581 214.71 109.697 217.958 107.382 219.295C105.055 220.639 103.172 219.565 103.164 216.891C103.156 214.231 105.028 210.975 107.355 209.632C109.669 208.295 111.566 209.376 111.573 212.036V212.036ZM107.374 216.502C107.635 216.351 107.883 216.142 108.107 215.896C108.719 215.22 109.145 214.262 109.143 213.439C109.141 212.616 108.71 212.152 108.096 212.185C107.872 212.196 107.624 212.273 107.363 212.424C106.386 212.989 105.591 214.365 105.594 215.488C105.597 216.61 106.397 217.066 107.374 216.502" fill="#686868"/>
<path d="M109.147 213.3V213.582C109.147 213.582 109.147 213.602 109.127 213.623V213.743V213.764C109.127 213.804 109.107 213.844 109.107 213.904V213.925C109.087 213.985 109.087 214.025 109.067 214.065V214.085C109.046 214.126 109.046 214.186 109.026 214.227V214.246C109.006 214.307 109.006 214.348 108.986 214.388C108.986 214.388 108.986 214.408 108.966 214.408C108.966 214.448 108.946 214.508 108.926 214.549C108.926 214.569 108.926 214.569 108.905 214.569C108.905 214.63 108.885 214.669 108.865 214.71C108.865 214.71 108.865 214.73 108.845 214.73C108.825 214.771 108.805 214.831 108.785 214.892C108.764 214.932 108.724 214.972 108.704 215.032V215.053C108.644 215.134 108.583 215.234 108.523 215.334V215.355C108.463 215.435 108.402 215.536 108.342 215.616C108.322 215.637 108.322 215.637 108.322 215.637C108.261 215.717 108.181 215.797 108.12 215.878C108.12 215.899 108.12 215.899 108.1 215.899V215.918L108.04 215.979C108.019 215.979 108.019 215.999 107.999 215.999C107.999 216.019 107.979 216.039 107.959 216.06C107.939 216.06 107.939 216.08 107.919 216.08L107.778 216.22C107.758 216.22 107.758 216.241 107.737 216.241C107.717 216.261 107.697 216.281 107.677 216.281C107.677 216.301 107.657 216.301 107.657 216.322C107.637 216.322 107.617 216.341 107.597 216.362C107.576 216.362 107.576 216.382 107.556 216.382C107.536 216.402 107.516 216.402 107.496 216.422L107.476 216.443C107.435 216.462 107.415 216.483 107.375 216.503C106.388 217.067 105.603 216.603 105.603 215.496C105.583 214.368 106.388 212.998 107.355 212.435C107.395 212.415 107.435 212.394 107.456 212.375C107.476 212.375 107.476 212.354 107.496 212.354C107.516 212.354 107.536 212.334 107.556 212.334C107.556 212.314 107.576 212.314 107.576 212.314C107.597 212.314 107.617 212.294 107.637 212.294C107.657 212.294 107.657 212.273 107.677 212.273C107.697 212.273 107.717 212.253 107.737 212.253H107.758C107.778 212.233 107.798 212.233 107.838 212.233C107.878 212.213 107.899 212.213 107.919 212.213C107.979 212.193 108.04 212.193 108.1 212.193C108.241 212.173 108.382 212.193 108.523 212.253C108.583 212.273 108.644 212.314 108.704 212.354C108.724 212.374 108.744 212.394 108.785 212.415C108.805 212.434 108.825 212.455 108.845 212.494C108.865 212.515 108.885 212.535 108.905 212.575H108.926C108.946 212.616 108.946 212.636 108.966 212.676H108.986C108.986 212.717 109.006 212.736 109.026 212.757V212.777C109.046 212.817 109.046 212.857 109.067 212.898C109.087 212.938 109.087 212.959 109.087 212.998C109.087 213.018 109.107 213.018 109.107 213.018C109.107 213.059 109.107 213.099 109.127 213.14V213.28L109.147 213.3Z" fill="#888888"/>
<path d="M113.901 210.692C113.912 214.844 111.003 219.897 107.39 221.983C103.777 224.07 100.836 222.394 100.824 218.242C100.812 214.105 103.734 209.043 107.347 206.957C110.96 204.871 113.889 206.555 113.901 210.692V210.692ZM107.382 219.295C109.697 217.958 111.581 214.71 111.573 212.036C111.566 209.376 109.669 208.295 107.355 209.631C105.028 210.975 103.156 214.231 103.164 216.891C103.171 219.565 105.055 220.639 107.382 219.295" fill="#3D3D3D"/>
<path d="M110.142 189.936L110.112 179.126L110.66 178.81C110.827 178.713 110.956 178.802 110.957 178.979L110.989 190.341C110.989 190.434 110.951 190.537 110.893 190.631L110.079 190.145C110.11 190.075 110.142 190.003 110.142 189.936V189.936Z" fill="#BC2B3B"/>
<path d="M109.847 190.433C109.952 190.373 110.027 190.262 110.079 190.145L110.893 190.631C110.841 190.714 110.773 190.791 110.694 190.837L96.7811 198.87C96.3161 199.138 95.9808 198.918 95.9365 198.465L109.847 190.433Z" fill="#EF5A5A"/>
<path d="M213.205 151.591L218.075 154.418L220.518 154.354L222.513 153.215L218.899 148.304L216.525 147.421L213.205 151.591Z" fill="#282828"/>
<path d="M229.208 142.652C229.22 146.803 226.298 151.864 222.697 153.943C219.084 156.029 216.143 154.353 216.131 150.202C216.119 146.065 219.042 141.003 222.655 138.917C226.255 136.838 229.196 138.514 229.208 142.652ZM222.69 151.254C225.004 149.918 226.875 146.677 226.868 144.003C226.86 141.343 224.977 140.254 222.662 141.591C220.335 142.935 218.464 146.191 218.471 148.85C218.479 151.525 220.362 152.598 222.69 151.254Z" fill="#3D3D3D"/>
<path d="M226.866 144C226.866 146.678 225.013 149.921 222.697 151.25C220.361 152.599 218.488 151.532 218.468 148.854C218.468 146.195 220.341 142.932 222.657 141.583C224.973 140.254 226.866 141.341 226.866 144Z" fill="#686868"/>
<path d="M224.44 145.268V145.55C224.44 145.55 224.44 145.57 224.419 145.591V145.711V145.731C224.419 145.772 224.399 145.812 224.399 145.872V145.893C224.379 145.953 224.379 145.993 224.359 146.033V146.053C224.339 146.094 224.339 146.154 224.319 146.195V146.214C224.299 146.275 224.299 146.316 224.278 146.356C224.278 146.356 224.278 146.376 224.259 146.376C224.259 146.416 224.238 146.476 224.218 146.517C224.218 146.537 224.218 146.537 224.198 146.537C224.198 146.598 224.178 146.637 224.158 146.678C224.158 146.678 224.158 146.698 224.138 146.698C224.118 146.739 224.097 146.798 224.077 146.86C224.057 146.9 224.017 146.94 223.997 147V147.021C223.936 147.101 223.876 147.202 223.815 147.302V147.323C223.755 147.403 223.695 147.504 223.634 147.584C223.614 147.605 223.614 147.605 223.614 147.605C223.554 147.684 223.473 147.765 223.413 147.846C223.413 147.866 223.413 147.866 223.393 147.866V147.886L223.332 147.947C223.312 147.947 223.312 147.967 223.292 147.967C223.292 147.987 223.272 148.007 223.252 148.028C223.231 148.028 223.231 148.048 223.211 148.048L223.07 148.188C223.05 148.188 223.05 148.209 223.03 148.209C223.01 148.228 222.99 148.249 222.97 148.249C222.97 148.269 222.949 148.269 222.949 148.289C222.929 148.289 222.909 148.309 222.889 148.33C222.869 148.33 222.869 148.35 222.849 148.35C222.829 148.37 222.809 148.37 222.788 148.39L222.768 148.41C222.728 148.43 222.708 148.451 222.668 148.471C221.681 149.035 220.895 148.571 220.895 147.464C220.875 146.336 221.681 144.966 222.647 144.403C222.688 144.383 222.728 144.362 222.748 144.342C222.768 144.342 222.768 144.322 222.788 144.322C222.809 144.322 222.829 144.302 222.849 144.302C222.849 144.281 222.869 144.281 222.869 144.281C222.889 144.281 222.909 144.262 222.929 144.262C222.949 144.262 222.949 144.241 222.97 144.241C222.99 144.241 223.01 144.221 223.03 144.221H223.05C223.07 144.201 223.09 144.201 223.131 144.201C223.171 144.181 223.191 144.181 223.211 144.181C223.272 144.16 223.332 144.16 223.393 144.16C223.533 144.141 223.674 144.16 223.816 144.221C223.876 144.241 223.936 144.281 223.997 144.322C224.017 144.342 224.037 144.362 224.077 144.383C224.098 144.402 224.118 144.423 224.138 144.462C224.158 144.483 224.178 144.503 224.198 144.543H224.218C224.239 144.584 224.239 144.604 224.259 144.644H224.279C224.279 144.684 224.299 144.704 224.319 144.725V144.745C224.339 144.785 224.339 144.825 224.359 144.866C224.38 144.906 224.38 144.927 224.38 144.966C224.38 144.986 224.4 144.986 224.4 144.986C224.4 145.027 224.4 145.067 224.42 145.107V145.248L224.44 145.268Z" fill="#888888"/>
<path d="M158.979 183.364L163.849 186.191L166.292 186.127L168.287 184.988L164.673 180.077L162.299 179.194L158.979 183.364Z" fill="#282828"/>
<path d="M174.982 174.425C174.994 178.576 172.072 183.637 168.471 185.716C164.858 187.802 161.917 186.126 161.905 181.975C161.893 177.838 164.816 172.776 168.429 170.69C172.029 168.611 174.97 170.287 174.982 174.425ZM168.464 183.027C170.778 181.691 172.649 178.45 172.642 175.776C172.634 173.116 170.751 172.027 168.436 173.364C166.109 174.708 164.238 177.964 164.245 180.623C164.253 183.298 166.136 184.371 168.464 183.027Z" fill="#3D3D3D"/>
<path d="M172.64 175.773C172.64 178.451 170.787 181.694 168.471 183.023C166.135 184.372 164.262 183.305 164.242 180.627C164.242 177.968 166.115 174.705 168.431 173.356C170.747 172.027 172.64 173.114 172.64 175.773Z" fill="#686868"/>
<path d="M170.214 177.041V177.323C170.214 177.323 170.214 177.343 170.193 177.364V177.484V177.504C170.193 177.545 170.174 177.585 170.174 177.645V177.666C170.153 177.726 170.153 177.766 170.133 177.806V177.826C170.113 177.867 170.113 177.927 170.093 177.968V177.987C170.073 178.048 170.073 178.089 170.052 178.129C170.052 178.129 170.052 178.149 170.033 178.149C170.033 178.189 170.012 178.249 169.992 178.29C169.992 178.31 169.992 178.31 169.972 178.31C169.972 178.371 169.952 178.41 169.932 178.451C169.932 178.451 169.932 178.471 169.912 178.471C169.892 178.512 169.871 178.571 169.851 178.633C169.831 178.673 169.791 178.713 169.771 178.773V178.794C169.71 178.874 169.65 178.975 169.589 179.075V179.096C169.529 179.176 169.469 179.277 169.408 179.357C169.388 179.378 169.388 179.378 169.388 179.378C169.328 179.457 169.247 179.538 169.187 179.619C169.187 179.639 169.187 179.639 169.167 179.639V179.659L169.106 179.72C169.086 179.72 169.086 179.74 169.066 179.74C169.066 179.76 169.046 179.78 169.026 179.801C169.005 179.801 169.005 179.821 168.985 179.821L168.844 179.961C168.824 179.961 168.824 179.982 168.804 179.982C168.784 180.001 168.764 180.022 168.744 180.022C168.744 180.042 168.724 180.042 168.724 180.062C168.703 180.062 168.683 180.082 168.663 180.103C168.643 180.103 168.643 180.123 168.623 180.123C168.603 180.143 168.583 180.143 168.562 180.163L168.542 180.183C168.502 180.203 168.482 180.224 168.442 180.244C167.455 180.808 166.669 180.344 166.669 179.237C166.649 178.109 167.455 176.739 168.421 176.176C168.462 176.156 168.502 176.135 168.522 176.115C168.542 176.115 168.542 176.095 168.562 176.095C168.583 176.095 168.603 176.075 168.623 176.075C168.623 176.054 168.643 176.054 168.643 176.054C168.663 176.054 168.683 176.035 168.703 176.035C168.724 176.035 168.724 176.014 168.744 176.014C168.764 176.014 168.784 175.994 168.804 175.994H168.824C168.844 175.974 168.865 175.974 168.905 175.974C168.945 175.954 168.965 175.954 168.985 175.954C169.046 175.933 169.106 175.933 169.167 175.933C169.307 175.914 169.448 175.933 169.59 175.994C169.65 176.014 169.71 176.054 169.771 176.095C169.791 176.115 169.811 176.135 169.851 176.156C169.872 176.175 169.892 176.196 169.912 176.235C169.932 176.256 169.952 176.276 169.972 176.316H169.992C170.013 176.357 170.013 176.377 170.033 176.417H170.053C170.053 176.458 170.073 176.477 170.093 176.498V176.518C170.113 176.558 170.113 176.598 170.133 176.639C170.154 176.679 170.154 176.7 170.154 176.739C170.154 176.759 170.174 176.759 170.174 176.759C170.174 176.8 170.174 176.84 170.194 176.88V177.021L170.214 177.041Z" fill="#888888"/>
<path d="M197.107 161.546L201.977 164.374L204.42 164.309L206.415 163.171L202.8 158.259L200.427 157.376L197.107 161.546Z" fill="#282828"/>
<path d="M213.11 152.607C213.121 156.759 210.199 161.82 206.599 163.898C202.986 165.984 200.044 164.309 200.033 160.157C200.021 156.02 202.943 150.958 206.556 148.872C210.157 146.794 213.098 148.47 213.11 152.607ZM206.591 161.21C208.906 159.873 210.777 156.633 210.769 153.958C210.762 151.299 208.878 150.21 206.564 151.546C204.236 152.89 202.365 156.146 202.373 158.806C202.38 161.48 204.264 162.553 206.591 161.21Z" fill="#3D3D3D"/>
<path d="M210.768 153.955C210.768 156.634 208.915 159.876 206.599 161.206C204.263 162.555 202.39 161.488 202.37 158.809C202.37 156.15 204.243 152.887 206.558 151.538C208.875 150.21 210.768 151.296 210.768 153.955Z" fill="#686868"/>
<path d="M208.341 155.224V155.505C208.341 155.505 208.341 155.526 208.321 155.546V155.666V155.687C208.321 155.727 208.301 155.768 208.301 155.828V155.848C208.281 155.908 208.281 155.948 208.261 155.989V156.008C208.241 156.05 208.241 156.11 208.22 156.15V156.17C208.2 156.231 208.2 156.271 208.18 156.311C208.18 156.311 208.18 156.331 208.16 156.331C208.16 156.372 208.14 156.431 208.12 156.473C208.12 156.493 208.12 156.493 208.1 156.493C208.1 156.554 208.079 156.593 208.059 156.633C208.059 156.633 208.059 156.654 208.039 156.654C208.019 156.694 207.999 156.754 207.979 156.815C207.959 156.855 207.918 156.896 207.898 156.956V156.976C207.838 157.057 207.777 157.157 207.717 157.258V157.278C207.657 157.359 207.596 157.459 207.536 157.54C207.516 157.56 207.516 157.56 207.516 157.56C207.455 157.64 207.375 157.721 207.314 157.801C207.314 157.822 207.314 157.822 207.294 157.822V157.842L207.234 157.903C207.213 157.903 207.213 157.922 207.193 157.922C207.193 157.942 207.173 157.963 207.153 157.983C207.133 157.983 207.133 158.003 207.113 158.003L206.972 158.144C206.952 158.144 206.952 158.164 206.932 158.164C206.912 158.184 206.891 158.205 206.871 158.205C206.871 158.224 206.851 158.224 206.851 158.245C206.831 158.245 206.811 158.265 206.791 158.285C206.771 158.285 206.771 158.305 206.75 158.305C206.73 158.326 206.71 158.326 206.69 158.345L206.67 158.366C206.63 158.386 206.609 158.406 206.569 158.426C205.582 158.99 204.797 158.526 204.797 157.419C204.777 156.291 205.582 154.921 206.549 154.358C206.589 154.338 206.63 154.318 206.65 154.298C206.67 154.298 206.67 154.277 206.69 154.277C206.71 154.277 206.73 154.258 206.75 154.258C206.75 154.237 206.771 154.237 206.771 154.237C206.791 154.237 206.811 154.217 206.831 154.217C206.851 154.217 206.851 154.197 206.871 154.197C206.891 154.197 206.912 154.177 206.932 154.177H206.952C206.972 154.156 206.992 154.156 207.032 154.156C207.073 154.137 207.093 154.137 207.113 154.137C207.173 154.116 207.234 154.116 207.294 154.116C207.435 154.096 207.576 154.116 207.717 154.177C207.778 154.197 207.838 154.237 207.898 154.277C207.919 154.298 207.939 154.317 207.979 154.338C207.999 154.358 208.019 154.378 208.039 154.418C208.059 154.438 208.08 154.459 208.1 154.498H208.12C208.14 154.54 208.14 154.559 208.16 154.6H208.18C208.18 154.64 208.2 154.66 208.221 154.68V154.7C208.241 154.74 208.241 154.781 208.261 154.821C208.281 154.861 208.281 154.882 208.281 154.921C208.281 154.942 208.301 154.942 208.301 154.942C208.301 154.982 208.301 155.023 208.321 155.063V155.204L208.341 155.224Z" fill="#888888"/>
<path d="M142.881 193.319L147.751 196.147L150.194 196.082L152.189 194.944L148.574 190.032L146.201 189.15L142.881 193.319Z" fill="#282828"/>
<path d="M158.884 184.38C158.895 188.532 155.973 193.593 152.373 195.671C148.76 197.757 145.818 196.082 145.807 191.93C145.795 187.793 148.717 182.731 152.33 180.645C155.931 178.567 158.872 180.243 158.884 184.38ZM152.365 192.983C154.68 191.647 156.551 188.406 156.544 185.731C156.536 183.072 154.653 181.983 152.338 183.319C150.011 184.663 148.14 187.919 148.147 190.579C148.155 193.253 150.038 194.326 152.365 192.983Z" fill="#3D3D3D"/>
<path d="M156.542 185.728C156.542 188.407 154.689 191.649 152.373 192.979C150.037 194.328 148.164 193.261 148.144 190.582C148.144 187.923 150.017 184.66 152.333 183.311C154.649 181.983 156.542 183.069 156.542 185.728Z" fill="#686868"/>
<path d="M154.115 186.997V187.278C154.115 187.278 154.115 187.299 154.095 187.319V187.439V187.46C154.095 187.5 154.075 187.541 154.075 187.601V187.621C154.055 187.681 154.055 187.721 154.035 187.762V187.781C154.015 187.823 154.015 187.883 153.994 187.923V187.943C153.974 188.004 153.974 188.044 153.954 188.085C153.954 188.085 153.954 188.104 153.934 188.104C153.934 188.145 153.914 188.204 153.894 188.246C153.894 188.266 153.894 188.266 153.874 188.266C153.874 188.327 153.853 188.366 153.833 188.406C153.833 188.406 153.833 188.427 153.813 188.427C153.793 188.467 153.773 188.527 153.753 188.588C153.733 188.629 153.693 188.669 153.672 188.729V188.749C153.612 188.83 153.552 188.93 153.491 189.031V189.051C153.431 189.132 153.37 189.232 153.31 189.313C153.29 189.333 153.29 189.333 153.29 189.333C153.229 189.413 153.149 189.494 153.088 189.574C153.088 189.595 153.088 189.595 153.068 189.595V189.615L153.008 189.676C152.988 189.676 152.988 189.695 152.967 189.695C152.967 189.715 152.947 189.736 152.927 189.756C152.907 189.756 152.907 189.776 152.887 189.776L152.746 189.917C152.726 189.917 152.726 189.937 152.706 189.937C152.686 189.957 152.665 189.978 152.645 189.978C152.645 189.997 152.625 189.997 152.625 190.018C152.605 190.018 152.585 190.038 152.565 190.058C152.545 190.058 152.545 190.078 152.524 190.078C152.504 190.099 152.484 190.099 152.464 190.118L152.444 190.139C152.404 190.159 152.383 190.179 152.343 190.199C151.356 190.763 150.571 190.299 150.571 189.192C150.551 188.064 151.356 186.694 152.323 186.131C152.363 186.111 152.404 186.091 152.424 186.071C152.444 186.071 152.444 186.05 152.464 186.05C152.484 186.05 152.504 186.031 152.524 186.031C152.524 186.01 152.545 186.01 152.545 186.01C152.565 186.01 152.585 185.99 152.605 185.99C152.625 185.99 152.625 185.97 152.645 185.97C152.665 185.97 152.686 185.95 152.706 185.95H152.726C152.746 185.929 152.766 185.929 152.806 185.929C152.847 185.91 152.867 185.91 152.887 185.91C152.947 185.889 153.008 185.889 153.068 185.889C153.209 185.869 153.35 185.889 153.491 185.95C153.552 185.97 153.612 186.01 153.673 186.05C153.693 186.071 153.713 186.091 153.753 186.111C153.773 186.131 153.793 186.151 153.814 186.191C153.833 186.211 153.854 186.232 153.874 186.271H153.894C153.914 186.313 153.914 186.332 153.934 186.373H153.954C153.954 186.413 153.974 186.433 153.995 186.453V186.473C154.015 186.513 154.015 186.554 154.035 186.594C154.055 186.635 154.055 186.655 154.055 186.694C154.055 186.715 154.075 186.715 154.075 186.715C154.075 186.755 154.075 186.796 154.095 186.836V186.977L154.115 186.997Z" fill="#888888"/>
<path d="M65.2898 195.364C66.2155 195.899 66.9588 197.186 66.9558 198.25C66.9528 199.329 66.2047 199.755 65.2787 199.221C64.3529 198.686 63.6096 197.399 63.6126 196.32C63.6159 195.256 64.364 194.83 65.2898 195.364V195.364Z" fill="#FEE44B"/>
<path d="M68.068 196.643C68.3509 196.806 68.5817 197.205 68.5806 197.531L68.5713 200.855C68.5704 201.181 68.3381 201.312 68.0552 201.149L62.5003 197.942C62.2175 197.779 61.9867 197.38 61.9876 197.054L61.9969 193.73C61.9978 193.404 62.2301 193.273 62.5129 193.436L68.068 196.643ZM65.2789 199.221C66.2046 199.755 66.9529 199.329 66.956 198.25C66.959 197.186 66.2157 195.899 65.2899 195.364C64.364 194.83 63.6159 195.256 63.6128 196.32C63.6098 197.399 64.3531 198.686 65.2789 199.221" fill="white"/>
<path d="M87.2556 208.087C88.1814 208.621 88.9247 209.909 88.9217 210.972C88.9186 212.051 88.1703 212.478 87.2446 211.943C86.3188 211.409 85.5625 210.114 85.5655 209.035C85.5685 207.971 86.3297 207.552 87.2556 208.087Z" fill="#FEE44B"/>
<path d="M90.0337 209.366C90.3166 209.529 90.5474 209.928 90.5465 210.253L90.5372 213.578C90.5363 213.903 90.304 214.035 90.0212 213.872L84.4663 210.664C84.1834 210.501 83.9526 210.102 83.9535 209.777L83.9628 206.452C83.9637 206.127 84.196 205.995 84.4788 206.158L90.0337 209.366ZM87.2446 211.943C88.1703 212.478 88.9186 212.052 88.9217 210.972C88.9247 209.909 88.1814 208.621 87.2556 208.087C86.3299 207.552 85.5688 207.971 85.5657 209.035C85.5625 210.114 86.3188 211.409 87.2446 211.943" fill="white"/>
<path d="M143.651 116.283C131.879 116.302 122.216 106.72 122.14 94.9489C122.12 91.9147 122.73 89.0251 123.846 86.4029C124.43 85.0309 122.938 83.6936 121.656 84.4545C114.275 88.8336 109.303 96.8442 109.203 106.025C109.05 120.068 120.551 131.701 134.595 131.701C146.066 131.701 155.76 124.095 158.91 113.652C159.337 112.235 157.692 111.095 156.508 111.985C152.927 114.677 148.475 116.276 143.651 116.283V116.283Z" fill="#EEC06B"/>
<path d="M157.953 111.767C154.076 120.832 145.078 127.185 134.595 127.185C121.407 127.185 110.462 116.927 109.304 104.048C109.246 104.701 109.21 105.359 109.203 106.025C109.05 120.068 120.551 131.701 134.595 131.701C146.066 131.701 155.76 124.095 158.91 113.652C159.171 112.788 158.659 112.027 157.953 111.767V111.767Z" fill="#E9A52D"/>
<path d="M135.874 115.556V131.668C144.161 131.257 151.403 126.873 155.734 120.382C155.673 117.935 154.676 115.722 153.085 114.087C150.238 115.488 147.037 116.278 143.651 116.284C140.894 116.288 138.253 115.766 135.823 114.812C135.856 115.057 135.874 115.305 135.874 115.556V115.556Z" fill="#E9A52D"/>
<path d="M128.204 109.727C128.874 110.419 129.59 111.067 130.347 111.664C131.726 112.754 132.543 114.405 132.543 116.163V142.434C132.543 143.43 133.35 144.237 134.345 144.237H138.851C142.448 144.237 145.365 141.32 145.365 137.723V136.004H147.522C150.221 136.004 152.408 133.816 152.408 131.117V121.224C152.408 116.051 148.215 111.857 143.041 111.857H139.12V111.522C139.12 108.669 136.269 106.695 133.599 107.699L128.204 109.727Z" fill="#DDEBFD"/>
<path d="M143.041 111.857H139.818C144.991 111.857 149.185 116.051 149.185 121.224V131.117C149.185 133.816 146.997 136.004 144.298 136.004H143.86C142.911 136.004 142.141 136.774 142.141 137.723C142.141 141.32 139.225 144.237 135.627 144.237H138.851C142.448 144.237 145.364 141.32 145.364 137.723V136.004H147.522C150.221 136.004 152.408 133.816 152.408 131.117V121.224C152.408 116.051 148.215 111.857 143.041 111.857V111.857Z" fill="#BED9FD"/>
<path d="M140.003 121.008C140.491 121.008 140.886 120.613 140.886 120.126V111.857H139.12V120.126C139.12 120.613 139.515 121.008 140.003 121.008V121.008Z" fill="#BED9FD"/>
<path d="M146.247 126.245C145.76 126.245 145.365 126.64 145.365 127.128V136.004H147.13V127.128C147.13 126.64 146.735 126.245 146.247 126.245V126.245Z" fill="#BED9FD"/>
<path d="M144.544 103.593H140.956C140.492 103.593 140.064 103.341 139.839 102.935C139.614 102.529 139.628 102.032 139.875 101.639L142.834 96.9251H140.358C139.836 96.9251 139.412 96.5016 139.412 95.9794C139.412 95.4572 139.836 95.0338 140.358 95.0338H143.947C144.411 95.0338 144.839 95.2861 145.064 95.6924C145.288 96.0987 145.275 96.5953 145.028 96.9884L142.068 101.702H144.544C145.067 101.702 145.49 102.126 145.49 102.648C145.49 103.17 145.067 103.593 144.544 103.593V103.593ZM143.947 96.9251H143.948H143.947Z" fill="#8C818F"/>
<path d="M139.176 89.1806H135.587C135.123 89.1806 134.695 88.9283 134.471 88.5222C134.246 88.1161 134.26 87.6194 134.506 87.2263L137.466 82.5123H134.99C134.467 82.5123 134.044 82.0888 134.044 81.5666C134.044 81.0444 134.467 80.6208 134.99 80.6208H138.579C139.043 80.6208 139.471 80.8732 139.695 81.2795C139.92 81.6858 139.906 82.1824 139.659 82.5755L136.7 87.2892H139.176C139.698 87.2892 140.122 87.7126 140.122 88.2348C140.122 88.7571 139.698 89.1806 139.176 89.1806ZM138.579 82.5123H138.58H138.579Z" fill="#8C818F"/>
<path d="M155.739 95.5492H152.151C151.687 95.5492 151.259 95.2968 151.034 94.8905C150.809 94.4842 150.823 93.9877 151.07 93.5945L154.029 88.8808H151.553C151.031 88.8808 150.607 88.4574 150.607 87.9352C150.607 87.4129 151.031 86.9895 151.553 86.9895H155.142C155.606 86.9895 156.034 87.2418 156.259 87.6481C156.483 88.0544 156.47 88.5511 156.223 88.9442L153.263 93.6578H155.739C156.262 93.6578 156.685 94.0813 156.685 94.6035C156.685 95.1257 156.262 95.5492 155.739 95.5492V95.5492ZM155.142 88.8808H155.143H155.142Z" fill="#8C818F"/>
<path d="M147.528 218.44L151.998 225.935L151.12 226.459L143.526 223.011L143.452 223.054L146.963 228.939L146.055 229.481L141.584 221.986L142.463 221.462L150.08 224.916L150.154 224.872L146.635 218.973L147.528 218.44ZM156.051 223.677C155.544 223.98 155.026 224.124 154.499 224.111C153.974 224.097 153.475 223.937 153.001 223.63C152.53 223.323 152.121 222.878 151.775 222.298C151.426 221.712 151.227 221.138 151.179 220.574C151.133 220.01 151.228 219.493 151.465 219.024C151.704 218.554 152.077 218.168 152.584 217.865C153.092 217.563 153.608 217.418 154.133 217.433C154.66 217.446 155.16 217.608 155.632 217.918C156.108 218.226 156.52 218.673 156.869 219.259C157.216 219.84 157.411 220.411 157.455 220.974C157.502 221.534 157.406 222.05 157.167 222.52C156.93 222.989 156.558 223.374 156.051 223.677ZM155.588 222.901C155.974 222.671 156.232 222.383 156.363 222.037C156.494 221.691 156.523 221.321 156.451 220.928C156.378 220.534 156.23 220.15 156.005 219.774C155.781 219.398 155.513 219.084 155.2 218.831C154.887 218.578 154.546 218.425 154.178 218.374C153.809 218.322 153.433 218.411 153.047 218.641C152.662 218.871 152.404 219.16 152.275 219.509C152.145 219.857 152.117 220.229 152.191 220.625C152.265 221.021 152.414 221.407 152.639 221.783C152.863 222.158 153.131 222.472 153.442 222.722C153.754 222.973 154.093 223.123 154.46 223.172C154.827 223.221 155.203 223.131 155.588 222.901ZM158.938 214.174L159.375 214.906L156.462 216.644L156.025 215.912L158.938 214.174ZM156.071 214.059L156.935 213.544L160.13 218.901C160.276 219.145 160.421 219.307 160.564 219.387C160.709 219.463 160.849 219.488 160.986 219.463C161.124 219.433 161.257 219.381 161.384 219.305C161.479 219.248 161.554 219.197 161.609 219.151C161.663 219.102 161.706 219.063 161.738 219.034L162.376 219.705C162.331 219.762 162.262 219.833 162.171 219.917C162.08 220.004 161.954 220.096 161.793 220.192C161.549 220.337 161.279 220.428 160.982 220.462C160.688 220.496 160.4 220.451 160.118 220.328C159.839 220.203 159.602 219.978 159.406 219.651L156.071 214.059ZM162.558 215.052L164.575 218.433L163.711 218.949L159.241 211.454L160.104 210.938L161.746 213.69L161.819 213.647C161.778 213.278 161.838 212.929 161.999 212.601C162.162 212.27 162.464 211.972 162.906 211.709C163.289 211.48 163.67 211.357 164.05 211.339C164.428 211.318 164.79 211.418 165.136 211.638C165.484 211.855 165.801 212.204 166.09 212.687L168.22 216.259L167.356 216.774L165.261 213.261C164.994 212.815 164.673 212.538 164.295 212.433C163.919 212.323 163.527 212.39 163.12 212.633C162.837 212.802 162.618 213.013 162.465 213.266C162.315 213.518 162.243 213.797 162.251 214.104C162.26 214.409 162.363 214.725 162.558 215.052ZM169.8 215.317L166.447 209.695L167.311 209.18L170.664 214.801L169.8 215.317ZM166.327 208.496C166.159 208.597 165.98 208.626 165.789 208.584C165.601 208.541 165.459 208.439 165.363 208.278C165.267 208.117 165.245 207.943 165.296 207.757C165.35 207.57 165.46 207.426 165.629 207.325C165.797 207.225 165.975 207.196 166.163 207.24C166.354 207.282 166.497 207.383 166.593 207.544C166.689 207.705 166.71 207.879 166.657 208.067C166.605 208.253 166.496 208.396 166.327 208.496ZM171.092 209.961L173.11 213.343L172.246 213.858L168.893 208.236L169.727 207.739L170.251 208.617L170.324 208.573C170.286 208.209 170.349 207.861 170.514 207.527C170.678 207.192 170.972 206.897 171.396 206.644C171.777 206.417 172.156 206.296 172.535 206.282C172.912 206.266 173.274 206.367 173.62 206.587C173.965 206.805 174.28 207.153 174.565 207.631L176.696 211.203L175.832 211.718L173.737 208.205C173.473 207.763 173.153 207.488 172.777 207.378C172.399 207.266 172.01 207.33 171.61 207.568C171.334 207.733 171.124 207.939 170.978 208.188C170.834 208.436 170.769 208.712 170.781 209.015C170.794 209.319 170.897 209.634 171.092 209.961ZM181.871 211.133C181.453 211.382 181.063 211.543 180.699 211.614C180.336 211.688 180.003 211.698 179.7 211.645C179.4 211.592 179.133 211.503 178.9 211.377L179.3 210.484C179.439 210.54 179.608 210.598 179.806 210.658C180.005 210.721 180.238 210.739 180.504 210.713C180.773 210.688 181.077 210.574 181.417 210.372C181.87 210.102 182.179 209.768 182.344 209.373C182.508 208.977 182.45 208.545 182.171 208.076L181.49 206.935L181.417 206.978C181.414 207.119 181.4 207.299 181.373 207.52C181.347 207.738 181.26 207.97 181.113 208.216C180.967 208.459 180.711 208.689 180.345 208.908C179.891 209.178 179.419 209.314 178.93 209.315C178.443 209.314 177.973 209.171 177.519 208.887C177.067 208.6 176.666 208.165 176.317 207.579C175.973 207.003 175.775 206.441 175.723 205.894C175.67 205.343 175.754 204.844 175.975 204.394C176.195 203.942 176.541 203.575 177.015 203.292C177.381 203.074 177.707 202.962 177.995 202.956C178.283 202.946 178.531 202.983 178.737 203.069C178.945 203.15 179.109 203.221 179.231 203.281L179.319 203.228L178.786 202.335L179.62 201.837L183.069 207.62C183.358 208.103 183.482 208.561 183.443 208.995C183.408 209.429 183.248 209.827 182.964 210.188C182.684 210.551 182.32 210.866 181.871 211.133ZM179.999 208.062C180.345 207.855 180.591 207.601 180.735 207.3C180.88 206.999 180.926 206.663 180.872 206.291C180.819 205.919 180.669 205.525 180.422 205.111C180.18 204.706 179.906 204.385 179.599 204.148C179.292 203.91 178.967 203.775 178.623 203.742C178.279 203.709 177.931 203.798 177.58 204.007C177.214 204.225 176.964 204.5 176.831 204.831C176.7 205.161 176.667 205.518 176.731 205.903C176.798 206.286 176.945 206.669 177.172 207.049C177.405 207.44 177.672 207.748 177.973 207.976C178.275 208.199 178.597 208.324 178.941 208.351C179.285 208.374 179.638 208.277 179.999 208.062ZM188.316 196.651C188.051 196.306 187.701 196.124 187.266 196.106C186.832 196.087 186.388 196.213 185.934 196.484C185.602 196.682 185.344 196.908 185.159 197.164C184.976 197.419 184.872 197.681 184.845 197.952C184.82 198.221 184.879 198.476 185.022 198.715C185.141 198.915 185.291 199.058 185.472 199.146C185.654 199.229 185.849 199.273 186.057 199.278C186.264 199.28 186.468 199.263 186.671 199.225C186.871 199.184 187.052 199.141 187.213 199.094L188.097 198.845C188.322 198.78 188.582 198.721 188.875 198.669C189.17 198.615 189.474 198.601 189.787 198.626C190.101 198.647 190.402 198.736 190.69 198.892C190.978 199.047 191.226 199.301 191.436 199.652C191.678 200.057 191.79 200.486 191.772 200.94C191.758 201.392 191.605 201.835 191.315 202.27C191.028 202.702 190.596 203.091 190.02 203.434C189.483 203.754 188.967 203.945 188.471 204.006C187.977 204.066 187.526 204.007 187.116 203.831C186.709 203.654 186.369 203.369 186.095 202.977L187.032 202.418C187.225 202.686 187.46 202.864 187.737 202.95C188.014 203.033 188.308 203.043 188.618 202.98C188.929 202.914 189.233 202.792 189.531 202.614C189.878 202.408 190.155 202.166 190.364 201.889C190.571 201.61 190.695 201.321 190.735 201.023C190.774 200.722 190.712 200.435 190.549 200.161C190.4 199.912 190.21 199.751 189.978 199.678C189.746 199.605 189.487 199.587 189.202 199.625C188.917 199.663 188.621 199.724 188.313 199.808L187.234 200.094C186.548 200.275 185.941 200.311 185.413 200.203C184.885 200.094 184.471 199.788 184.17 199.283C183.919 198.863 183.814 198.429 183.855 197.982C183.897 197.53 184.059 197.103 184.341 196.7C184.624 196.292 185.005 195.946 185.483 195.661C185.966 195.373 186.447 195.203 186.926 195.152C187.404 195.099 187.841 195.156 188.238 195.322C188.638 195.488 188.956 195.756 189.194 196.127L188.316 196.651ZM196.452 199.578C195.91 199.901 195.371 200.06 194.836 200.055C194.302 200.047 193.799 199.89 193.329 199.584C192.861 199.275 192.454 198.833 192.111 198.257C191.768 197.681 191.57 197.111 191.518 196.547C191.466 195.979 191.556 195.458 191.788 194.986C192.02 194.511 192.39 194.121 192.897 193.819C193.19 193.644 193.508 193.52 193.852 193.448C194.195 193.375 194.55 193.378 194.915 193.458C195.279 193.536 195.637 193.712 195.99 193.988C196.343 194.264 196.676 194.664 196.989 195.188L197.207 195.554L192.874 198.139L192.429 197.393L195.884 195.332C195.694 195.015 195.462 194.769 195.187 194.596C194.914 194.422 194.619 194.331 194.301 194.326C193.986 194.319 193.672 194.408 193.36 194.594C193.016 194.8 192.769 195.063 192.62 195.383C192.471 195.7 192.411 196.034 192.438 196.385C192.465 196.736 192.572 197.066 192.756 197.376L193.053 197.874C193.306 198.298 193.594 198.614 193.917 198.822C194.24 199.026 194.58 199.126 194.935 199.123C195.289 199.117 195.64 199.01 195.989 198.802C196.216 198.667 196.402 198.513 196.547 198.34C196.693 198.164 196.795 197.971 196.852 197.761C196.907 197.549 196.913 197.324 196.87 197.085L197.844 196.822C197.925 197.157 197.926 197.494 197.847 197.833C197.766 198.168 197.609 198.487 197.375 198.789C197.14 199.088 196.832 199.351 196.452 199.578ZM196.416 189.278L200.887 196.773L200.023 197.289L195.552 189.793L196.416 189.278ZM204.895 194.541C204.354 194.864 203.815 195.023 203.28 195.018C202.745 195.01 202.243 194.853 201.773 194.548C201.305 194.238 200.898 193.796 200.555 193.22C200.211 192.644 200.014 192.074 199.961 191.51C199.91 190.942 200 190.422 200.232 189.95C200.464 189.474 200.833 189.084 201.341 188.782C201.634 188.607 201.952 188.483 202.296 188.411C202.639 188.338 202.994 188.342 203.359 188.422C203.723 188.499 204.081 188.676 204.434 188.951C204.787 189.227 205.12 189.627 205.433 190.152L205.651 190.518L201.318 193.102L200.873 192.356L204.328 190.295C204.138 189.978 203.906 189.733 203.631 189.559C203.358 189.385 203.063 189.295 202.745 189.289C202.43 189.282 202.116 189.371 201.804 189.558C201.46 189.763 201.213 190.026 201.064 190.346C200.915 190.663 200.855 190.997 200.882 191.348C200.909 191.699 201.015 192.029 201.2 192.339L201.497 192.837C201.75 193.261 202.038 193.577 202.361 193.785C202.684 193.989 203.024 194.09 203.379 194.086C203.732 194.08 204.084 193.973 204.433 193.765C204.66 193.63 204.846 193.476 204.991 193.303C205.137 193.127 205.238 192.934 205.296 192.724C205.351 192.513 205.357 192.287 205.314 192.048L206.288 191.785C206.369 192.12 206.37 192.457 206.291 192.796C206.21 193.132 206.053 193.45 205.819 193.752C205.584 194.051 205.276 194.314 204.895 194.541ZM210.821 191.007C210.294 191.321 209.766 191.467 209.236 191.445C208.707 191.424 208.21 191.255 207.745 190.941C207.279 190.627 206.879 190.189 206.544 189.628C206.204 189.057 206.008 188.49 205.958 187.928C205.908 187.363 205.999 186.844 206.23 186.372C206.462 185.896 206.832 185.506 207.339 185.204C207.735 184.968 208.134 184.829 208.539 184.786C208.943 184.743 209.325 184.793 209.685 184.936C210.045 185.078 210.354 185.311 210.612 185.633L209.749 186.148C209.53 185.931 209.248 185.792 208.903 185.73C208.56 185.663 208.197 185.744 207.817 185.971C207.48 186.172 207.237 186.436 207.088 186.763C206.94 187.086 206.89 187.448 206.938 187.85C206.986 188.247 207.137 188.659 207.391 189.083C207.65 189.517 207.944 189.855 208.272 190.095C208.604 190.334 208.948 190.468 209.305 190.496C209.665 190.523 210.016 190.435 210.358 190.231C210.582 190.097 210.763 189.936 210.899 189.749C211.035 189.562 211.123 189.357 211.163 189.135C211.203 188.913 211.188 188.684 211.119 188.447L211.983 187.931C212.132 188.292 212.19 188.663 212.156 189.044C212.123 189.421 211.995 189.782 211.774 190.126C211.553 190.466 211.235 190.759 210.821 191.007ZM213.315 181.738L213.752 182.47L210.839 184.208L210.402 183.476L213.315 181.738ZM210.448 181.623L211.312 181.107L214.508 186.465C214.653 186.709 214.798 186.871 214.941 186.951C215.086 187.027 215.226 187.052 215.363 187.027C215.501 186.997 215.634 186.945 215.761 186.869C215.856 186.812 215.931 186.761 215.986 186.715C216.04 186.666 216.083 186.627 216.115 186.598L216.753 187.269C216.708 187.326 216.639 187.397 216.548 187.481C216.457 187.568 216.332 187.66 216.17 187.756C215.927 187.901 215.656 187.992 215.359 188.026C215.065 188.06 214.777 188.015 214.495 187.892C214.216 187.767 213.979 187.542 213.784 187.215L210.448 181.623ZM220.334 185.332C219.792 185.655 219.254 185.814 218.718 185.809C218.184 185.801 217.682 185.644 217.212 185.338C216.743 185.029 216.337 184.587 215.993 184.011C215.65 183.435 215.452 182.865 215.4 182.301C215.349 181.733 215.439 181.213 215.67 180.74C215.902 180.265 216.272 179.875 216.78 179.573C217.072 179.398 217.391 179.274 217.734 179.202C218.078 179.129 218.432 179.132 218.798 179.212C219.161 179.29 219.52 179.466 219.873 179.742C220.226 180.018 220.559 180.418 220.871 180.942L221.09 181.308L216.757 183.893L216.311 183.147L219.766 181.086C219.577 180.769 219.345 180.523 219.069 180.35C218.796 180.176 218.501 180.085 218.184 180.08C217.868 180.073 217.555 180.162 217.242 180.348C216.898 180.554 216.652 180.817 216.502 181.137C216.354 181.454 216.293 181.788 216.321 182.139C216.348 182.49 216.454 182.82 216.639 183.13L216.936 183.628C217.189 184.052 217.477 184.368 217.799 184.576C218.123 184.78 218.462 184.88 218.817 184.877C219.171 184.871 219.522 184.764 219.871 184.556C220.098 184.421 220.284 184.267 220.429 184.094C220.575 183.918 220.677 183.725 220.734 183.515C220.79 183.304 220.796 183.078 220.753 182.839L221.727 182.576C221.808 182.911 221.809 183.248 221.729 183.587C221.648 183.923 221.491 184.241 221.258 184.543C221.022 184.842 220.715 185.105 220.334 185.332ZM226.098 181.894C225.63 182.173 225.145 182.301 224.646 182.279C224.144 182.253 223.663 182.084 223.201 181.771C222.738 181.455 222.329 180.999 221.974 180.404C221.622 179.813 221.418 179.241 221.361 178.685C221.305 178.13 221.386 177.627 221.606 177.175C221.826 176.723 222.173 176.356 222.646 176.073C223.012 175.855 223.338 175.743 223.623 175.739C223.909 175.73 224.154 175.769 224.357 175.856C224.562 175.939 224.726 176.01 224.847 176.07L224.92 176.026L223.27 173.26L224.134 172.744L228.605 180.24L227.77 180.737L227.255 179.874L227.153 179.935C227.15 180.075 227.137 180.258 227.113 180.484C227.088 180.708 227.003 180.945 226.858 181.197C226.713 181.446 226.459 181.678 226.098 181.894ZM225.752 181.048C226.099 180.841 226.338 180.576 226.469 180.253C226.599 179.927 226.63 179.567 226.563 179.17C226.493 178.772 226.332 178.36 226.079 177.935C225.829 177.516 225.549 177.185 225.239 176.943C224.928 176.699 224.6 176.56 224.256 176.527C223.911 176.491 223.563 176.578 223.211 176.788C222.845 177.006 222.596 177.282 222.464 177.615C222.334 177.945 222.302 178.306 222.371 178.698C222.441 179.087 222.593 179.479 222.829 179.874C223.068 180.274 223.346 180.601 223.663 180.855C223.981 181.106 224.318 181.255 224.674 181.304C225.032 181.349 225.391 181.263 225.752 181.048Z" fill="#BFBFBF"/>
</svg>
