<svg width="140" height="45" viewBox="0 0 140 45" fill="none" xmlns="http://www.w3.org/2000/svg">
<circle cx="22.5" cy="22.5" r="22.5" fill="white"/>
<path d="M23.0899 34V23.0533H26.7628L27.3138 18.7859H23.0899V16.0618C23.0899 14.8266 23.4315 13.9849 25.2046 13.9849L27.4625 13.984V10.1671C27.072 10.1163 25.7317 10 24.1717 10C20.9142 10 18.684 11.9884 18.684 15.6391V18.7859H15V23.0533H18.684V34H23.0899Z" fill="#0060BE"/>
<path d="M68.536 17.848V19.032H63.688V22.792H67.624V23.976H63.688V29H62.232V17.848H68.536ZM69.7505 24.584C69.7505 23.688 69.9318 22.904 70.2945 22.232C70.6572 21.5493 71.1532 21.0213 71.7825 20.648C72.4225 20.2747 73.1318 20.088 73.9105 20.088C74.6785 20.088 75.3452 20.2533 75.9105 20.584C76.4758 20.9147 76.8972 21.3307 77.1745 21.832V20.232H78.6465V29H77.1745V27.368C76.8865 27.88 76.4545 28.3067 75.8785 28.648C75.3132 28.9787 74.6518 29.144 73.8945 29.144C73.1158 29.144 72.4118 28.952 71.7825 28.568C71.1532 28.184 70.6572 27.6453 70.2945 26.952C69.9318 26.2587 69.7505 25.4693 69.7505 24.584ZM77.1745 24.6C77.1745 23.9387 77.0412 23.3627 76.7745 22.872C76.5078 22.3813 76.1452 22.008 75.6865 21.752C75.2385 21.4853 74.7425 21.352 74.1985 21.352C73.6545 21.352 73.1585 21.48 72.7105 21.736C72.2625 21.992 71.9052 22.3653 71.6385 22.856C71.3718 23.3467 71.2385 23.9227 71.2385 24.584C71.2385 25.256 71.3718 25.8427 71.6385 26.344C71.9052 26.8347 72.2625 27.2133 72.7105 27.48C73.1585 27.736 73.6545 27.864 74.1985 27.864C74.7425 27.864 75.2385 27.736 75.6865 27.48C76.1452 27.2133 76.5078 26.8347 76.7745 26.344C77.0412 25.8427 77.1745 25.2613 77.1745 24.6ZM80.563 24.6C80.563 23.6933 80.7443 22.904 81.107 22.232C81.4697 21.5493 81.971 21.0213 82.611 20.648C83.2617 20.2747 84.003 20.088 84.835 20.088C85.9123 20.088 86.7977 20.3493 87.491 20.872C88.195 21.3947 88.659 22.12 88.883 23.048H87.315C87.1657 22.5147 86.8723 22.0933 86.435 21.784C86.0083 21.4747 85.475 21.32 84.835 21.32C84.003 21.32 83.331 21.608 82.819 22.184C82.307 22.7493 82.051 23.5547 82.051 24.6C82.051 25.656 82.307 26.472 82.819 27.048C83.331 27.624 84.003 27.912 84.835 27.912C85.475 27.912 86.0083 27.7627 86.435 27.464C86.8617 27.1653 87.155 26.7387 87.315 26.184H88.883C88.6483 27.08 88.179 27.8 87.475 28.344C86.771 28.8773 85.891 29.144 84.835 29.144C84.003 29.144 83.2617 28.9573 82.611 28.584C81.971 28.2107 81.4697 27.6827 81.107 27C80.7443 26.3173 80.563 25.5173 80.563 24.6ZM98.8258 24.28C98.8258 24.5573 98.8098 24.8507 98.7778 25.16H91.7698C91.8231 26.024 92.1164 26.7013 92.6498 27.192C93.1938 27.672 93.8498 27.912 94.6178 27.912C95.2471 27.912 95.7698 27.768 96.1858 27.48C96.6124 27.1813 96.9111 26.7867 97.0818 26.296H98.6498C98.4151 27.1387 97.9458 27.8267 97.2418 28.36C96.5378 28.8827 95.6631 29.144 94.6178 29.144C93.7858 29.144 93.0391 28.9573 92.3778 28.584C91.7271 28.2107 91.2151 27.6827 90.8418 27C90.4684 26.3067 90.2818 25.5067 90.2818 24.6C90.2818 23.6933 90.4631 22.8987 90.8258 22.216C91.1884 21.5333 91.6951 21.0107 92.3458 20.648C93.0071 20.2747 93.7644 20.088 94.6178 20.088C95.4498 20.088 96.1858 20.2693 96.8258 20.632C97.4658 20.9947 97.9564 21.496 98.2978 22.136C98.6498 22.7653 98.8258 23.48 98.8258 24.28ZM97.3218 23.976C97.3218 23.4213 97.1991 22.9467 96.9538 22.552C96.7084 22.1467 96.3724 21.8427 95.9458 21.64C95.5298 21.4267 95.0658 21.32 94.5538 21.32C93.8178 21.32 93.1884 21.5547 92.6658 22.024C92.1538 22.4933 91.8604 23.144 91.7858 23.976H97.3218ZM102.204 21.864C102.502 21.3413 102.94 20.9147 103.516 20.584C104.092 20.2533 104.748 20.088 105.484 20.088C106.273 20.088 106.982 20.2747 107.612 20.648C108.241 21.0213 108.737 21.5493 109.1 22.232C109.462 22.904 109.644 23.688 109.644 24.584C109.644 25.4693 109.462 26.2587 109.1 26.952C108.737 27.6453 108.236 28.184 107.596 28.568C106.966 28.952 106.262 29.144 105.484 29.144C104.726 29.144 104.06 28.9787 103.484 28.648C102.918 28.3173 102.492 27.896 102.204 27.384V29H100.748V17.16H102.204V21.864ZM108.156 24.584C108.156 23.9227 108.022 23.3467 107.756 22.856C107.489 22.3653 107.126 21.992 106.668 21.736C106.22 21.48 105.724 21.352 105.18 21.352C104.646 21.352 104.15 21.4853 103.692 21.752C103.244 22.008 102.881 22.3867 102.604 22.888C102.337 23.3787 102.204 23.9493 102.204 24.6C102.204 25.2613 102.337 25.8427 102.604 26.344C102.881 26.8347 103.244 27.2133 103.692 27.48C104.15 27.736 104.646 27.864 105.18 27.864C105.724 27.864 106.22 27.736 106.668 27.48C107.126 27.2133 107.489 26.8347 107.756 26.344C108.022 25.8427 108.156 25.256 108.156 24.584ZM115.384 29.144C114.563 29.144 113.816 28.9573 113.144 28.584C112.483 28.2107 111.96 27.6827 111.576 27C111.203 26.3067 111.016 25.5067 111.016 24.6C111.016 23.704 111.208 22.9147 111.592 22.232C111.987 21.5387 112.52 21.0107 113.192 20.648C113.864 20.2747 114.616 20.088 115.448 20.088C116.28 20.088 117.032 20.2747 117.704 20.648C118.376 21.0107 118.904 21.5333 119.288 22.216C119.683 22.8987 119.88 23.6933 119.88 24.6C119.88 25.5067 119.677 26.3067 119.272 27C118.877 27.6827 118.339 28.2107 117.656 28.584C116.973 28.9573 116.216 29.144 115.384 29.144ZM115.384 27.864C115.907 27.864 116.397 27.7413 116.856 27.496C117.315 27.2507 117.683 26.8827 117.96 26.392C118.248 25.9013 118.392 25.304 118.392 24.6C118.392 23.896 118.253 23.2987 117.976 22.808C117.699 22.3173 117.336 21.9547 116.888 21.72C116.44 21.4747 115.955 21.352 115.432 21.352C114.899 21.352 114.408 21.4747 113.96 21.72C113.523 21.9547 113.171 22.3173 112.904 22.808C112.637 23.2987 112.504 23.896 112.504 24.6C112.504 25.3147 112.632 25.9173 112.888 26.408C113.155 26.8987 113.507 27.2667 113.944 27.512C114.381 27.7467 114.861 27.864 115.384 27.864ZM125.619 29.144C124.797 29.144 124.051 28.9573 123.379 28.584C122.717 28.2107 122.195 27.6827 121.811 27C121.437 26.3067 121.251 25.5067 121.251 24.6C121.251 23.704 121.443 22.9147 121.827 22.232C122.221 21.5387 122.755 21.0107 123.427 20.648C124.099 20.2747 124.851 20.088 125.683 20.088C126.515 20.088 127.267 20.2747 127.939 20.648C128.611 21.0107 129.139 21.5333 129.523 22.216C129.917 22.8987 130.115 23.6933 130.115 24.6C130.115 25.5067 129.912 26.3067 129.507 27C129.112 27.6827 128.573 28.2107 127.891 28.584C127.208 28.9573 126.451 29.144 125.619 29.144ZM125.619 27.864C126.141 27.864 126.632 27.7413 127.091 27.496C127.549 27.2507 127.917 26.8827 128.195 26.392C128.483 25.9013 128.627 25.304 128.627 24.6C128.627 23.896 128.488 23.2987 128.211 22.808C127.933 22.3173 127.571 21.9547 127.123 21.72C126.675 21.4747 126.189 21.352 125.667 21.352C125.133 21.352 124.643 21.4747 124.195 21.72C123.757 21.9547 123.405 22.3173 123.139 22.808C122.872 23.2987 122.739 23.896 122.739 24.6C122.739 25.3147 122.867 25.9173 123.123 26.408C123.389 26.8987 123.741 27.2667 124.179 27.512C124.616 27.7467 125.096 27.864 125.619 27.864ZM136.925 29L133.485 25.128V29H132.029V17.16H133.485V24.12L136.861 20.232H138.893L134.765 24.6L138.909 29H136.925Z" fill="white"/>
</svg>
