<svg width="126" height="45" viewBox="0 0 126 45" fill="none" xmlns="http://www.w3.org/2000/svg">
<circle cx="22.5" cy="22.5" r="22.5" fill="white"/>
<path d="M31.5955 30.5967V23.5647C31.5955 20.1088 30.8515 17.4688 26.8195 17.4688C24.8755 17.4688 23.5795 18.5248 23.0515 19.5328H23.0035V17.7807H19.1875V30.5967H23.1715V24.2367C23.1715 22.5567 23.4835 20.9487 25.5475 20.9487C27.5875 20.9487 27.6115 22.8447 27.6115 24.3327V30.5727H31.5955V30.5967Z" fill="#0060BE"/>
<path d="M12.7109 17.7812H16.6949V30.5972H12.7109V17.7812Z" fill="#0060BE"/>
<path d="M14.7024 11.3984C13.4304 11.3984 12.3984 12.4304 12.3984 13.7024C12.3984 14.9744 13.4304 16.0304 14.7024 16.0304C15.9744 16.0304 17.0064 14.9744 17.0064 13.7024C17.0064 12.4304 15.9744 11.3984 14.7024 11.3984Z" fill="#0060BE"/>
<path d="M63.688 27.816H67.592V29H62.232V17.848H63.688V27.816ZM69.8903 18.808C69.6129 18.808 69.3783 18.712 69.1863 18.52C68.9943 18.328 68.8983 18.0933 68.8983 17.816C68.8983 17.5387 68.9943 17.304 69.1863 17.112C69.3783 16.92 69.6129 16.824 69.8903 16.824C70.1569 16.824 70.3809 16.92 70.5623 17.112C70.7543 17.304 70.8503 17.5387 70.8503 17.816C70.8503 18.0933 70.7543 18.328 70.5623 18.52C70.3809 18.712 70.1569 18.808 69.8903 18.808ZM70.5943 20.232V29H69.1383V20.232H70.5943ZM77.3478 20.072C78.4144 20.072 79.2784 20.3973 79.9398 21.048C80.6011 21.688 80.9318 22.616 80.9318 23.832V29H79.4918V24.04C79.4918 23.1653 79.2731 22.4987 78.8358 22.04C78.3984 21.5707 77.8011 21.336 77.0438 21.336C76.2758 21.336 75.6624 21.576 75.2038 22.056C74.7558 22.536 74.5318 23.2347 74.5318 24.152V29H73.0758V20.232H74.5318V21.48C74.8198 21.032 75.2091 20.6853 75.6998 20.44C76.2011 20.1947 76.7504 20.072 77.3478 20.072ZM88.2061 29L84.7661 25.128V29H83.3101V17.16H84.7661V24.12L88.1421 20.232H90.1741L86.0461 24.6L90.1901 29H88.2061ZM99.5445 24.28C99.5445 24.5573 99.5285 24.8507 99.4965 25.16H92.4885C92.5418 26.024 92.8352 26.7013 93.3685 27.192C93.9125 27.672 94.5685 27.912 95.3365 27.912C95.9658 27.912 96.4885 27.768 96.9045 27.48C97.3312 27.1813 97.6298 26.7867 97.8005 26.296H99.3685C99.1338 27.1387 98.6645 27.8267 97.9605 28.36C97.2565 28.8827 96.3818 29.144 95.3365 29.144C94.5045 29.144 93.7578 28.9573 93.0965 28.584C92.4458 28.2107 91.9338 27.6827 91.5605 27C91.1872 26.3067 91.0005 25.5067 91.0005 24.6C91.0005 23.6933 91.1818 22.8987 91.5445 22.216C91.9072 21.5333 92.4138 21.0107 93.0645 20.648C93.7258 20.2747 94.4832 20.088 95.3365 20.088C96.1685 20.088 96.9045 20.2693 97.5445 20.632C98.1845 20.9947 98.6752 21.496 99.0165 22.136C99.3685 22.7653 99.5445 23.48 99.5445 24.28ZM98.0405 23.976C98.0405 23.4213 97.9178 22.9467 97.6725 22.552C97.4272 22.1467 97.0912 21.8427 96.6645 21.64C96.2485 21.4267 95.7845 21.32 95.2725 21.32C94.5365 21.32 93.9072 21.5547 93.3845 22.024C92.8725 22.4933 92.5792 23.144 92.5045 23.976H98.0405ZM100.922 24.584C100.922 23.688 101.104 22.904 101.466 22.232C101.829 21.5493 102.325 21.0213 102.954 20.648C103.594 20.2747 104.309 20.088 105.098 20.088C105.781 20.088 106.416 20.248 107.002 20.568C107.589 20.8773 108.037 21.288 108.346 21.8V17.16H109.818V29H108.346V27.352C108.058 27.8747 107.632 28.3067 107.066 28.648C106.501 28.9787 105.84 29.144 105.082 29.144C104.304 29.144 103.594 28.952 102.954 28.568C102.325 28.184 101.829 27.6453 101.466 26.952C101.104 26.2587 100.922 25.4693 100.922 24.584ZM108.346 24.6C108.346 23.9387 108.213 23.3627 107.946 22.872C107.68 22.3813 107.317 22.008 106.858 21.752C106.41 21.4853 105.914 21.352 105.37 21.352C104.826 21.352 104.33 21.48 103.882 21.736C103.434 21.992 103.077 22.3653 102.81 22.856C102.544 23.3467 102.41 23.9227 102.41 24.584C102.41 25.256 102.544 25.8427 102.81 26.344C103.077 26.8347 103.434 27.2133 103.882 27.48C104.33 27.736 104.826 27.864 105.37 27.864C105.914 27.864 106.41 27.736 106.858 27.48C107.317 27.2133 107.68 26.8347 107.946 26.344C108.213 25.8427 108.346 25.2613 108.346 24.6ZM113.031 18.808C112.754 18.808 112.519 18.712 112.327 18.52C112.135 18.328 112.039 18.0933 112.039 17.816C112.039 17.5387 112.135 17.304 112.327 17.112C112.519 16.92 112.754 16.824 113.031 16.824C113.298 16.824 113.522 16.92 113.703 17.112C113.895 17.304 113.991 17.5387 113.991 17.816C113.991 18.0933 113.895 18.328 113.703 18.52C113.522 18.712 113.298 18.808 113.031 18.808ZM113.735 20.232V29H112.279V20.232H113.735ZM120.488 20.072C121.555 20.072 122.419 20.3973 123.08 21.048C123.742 21.688 124.072 22.616 124.072 23.832V29H122.632V24.04C122.632 23.1653 122.414 22.4987 121.976 22.04C121.539 21.5707 120.942 21.336 120.184 21.336C119.416 21.336 118.803 21.576 118.344 22.056C117.896 22.536 117.672 23.2347 117.672 24.152V29H116.216V20.232H117.672V21.48C117.96 21.032 118.35 20.6853 118.84 20.44C119.342 20.1947 119.891 20.072 120.488 20.072Z" fill="white"/>
</svg>
