<svg width="115" height="45" viewBox="0 0 115 45" fill="none" xmlns="http://www.w3.org/2000/svg">
<circle cx="22.5" cy="22.5" r="22.5" fill="white"/>
<path d="M34.4 16.079C33.56 16.43 32.692 16.673 31.768 16.781C32.72 16.241 33.448 15.377 33.784 14.324C32.888 14.837 31.908 15.188 30.872 15.404C30.032 14.54 28.828 14 27.512 14C24.964 14 22.92 15.998 22.92 18.428C22.92 18.779 22.948 19.103 23.032 19.427C19.224 19.265 15.864 17.483 13.596 14.81C11.972 17.618 13.792 19.94 14.996 20.723C14.268 20.723 13.54 20.507 12.924 20.183C12.924 22.37 14.52 24.179 16.592 24.584C16.144 24.719 15.136 24.8 14.52 24.665C15.108 26.42 16.816 27.716 18.804 27.743C17.236 28.931 14.94 29.876 12 29.579C14.044 30.848 16.452 31.577 19.056 31.577C27.512 31.577 32.104 24.827 32.104 18.995C32.104 18.806 32.104 18.617 32.076 18.428C33.028 17.753 33.812 16.97 34.4 16.079Z" fill="#0060BE"/>
<path d="M69.096 17.848V19.032H66.056V29H64.6V19.032H61.544V17.848H69.096ZM82.5683 20.232L79.8323 29H78.3283L76.2163 22.04L74.1043 29H72.6003L69.8483 20.232H71.3363L73.3523 27.592L75.5283 20.232H77.0163L79.1443 27.608L81.1283 20.232H82.5683ZM84.7653 18.808C84.4879 18.808 84.2533 18.712 84.0613 18.52C83.8693 18.328 83.7733 18.0933 83.7733 17.816C83.7733 17.5387 83.8693 17.304 84.0613 17.112C84.2533 16.92 84.4879 16.824 84.7653 16.824C85.0319 16.824 85.2559 16.92 85.4373 17.112C85.6293 17.304 85.7253 17.5387 85.7253 17.816C85.7253 18.0933 85.6293 18.328 85.4373 18.52C85.2559 18.712 85.0319 18.808 84.7653 18.808ZM85.4693 20.232V29H84.0133V20.232H85.4693ZM89.7268 21.432V26.6C89.7268 27.0267 89.8174 27.3307 89.9988 27.512C90.1801 27.6827 90.4948 27.768 90.9427 27.768H92.0148V29H90.7028C89.8921 29 89.2841 28.8133 88.8788 28.44C88.4734 28.0667 88.2708 27.4533 88.2708 26.6V21.432H87.1348V20.232H88.2708V18.024H89.7268V20.232H92.0148V21.432H89.7268ZM95.5549 21.432V26.6C95.5549 27.0267 95.6455 27.3307 95.8269 27.512C96.0082 27.6827 96.3229 27.768 96.7709 27.768H97.8429V29H96.5309C95.7202 29 95.1122 28.8133 94.7069 28.44C94.3015 28.0667 94.0989 27.4533 94.0989 26.6V21.432H92.9629V20.232H94.0989V18.024H95.5549V20.232H97.8429V21.432H95.5549ZM107.607 24.28C107.607 24.5573 107.591 24.8507 107.559 25.16H100.551C100.604 26.024 100.898 26.7013 101.431 27.192C101.975 27.672 102.631 27.912 103.399 27.912C104.028 27.912 104.551 27.768 104.967 27.48C105.394 27.1813 105.692 26.7867 105.863 26.296H107.431C107.196 27.1387 106.727 27.8267 106.023 28.36C105.319 28.8827 104.444 29.144 103.399 29.144C102.567 29.144 101.82 28.9573 101.159 28.584C100.508 28.2107 99.9963 27.6827 99.623 27C99.2497 26.3067 99.063 25.5067 99.063 24.6C99.063 23.6933 99.2443 22.8987 99.607 22.216C99.9697 21.5333 100.476 21.0107 101.127 20.648C101.788 20.2747 102.546 20.088 103.399 20.088C104.231 20.088 104.967 20.2693 105.607 20.632C106.247 20.9947 106.738 21.496 107.079 22.136C107.431 22.7653 107.607 23.48 107.607 24.28ZM106.103 23.976C106.103 23.4213 105.98 22.9467 105.735 22.552C105.49 22.1467 105.154 21.8427 104.727 21.64C104.311 21.4267 103.847 21.32 103.335 21.32C102.599 21.32 101.97 21.5547 101.447 22.024C100.935 22.4933 100.642 23.144 100.567 23.976H106.103ZM110.985 21.656C111.241 21.1547 111.604 20.7653 112.073 20.488C112.553 20.2107 113.134 20.072 113.817 20.072V21.576H113.433C111.801 21.576 110.985 22.4613 110.985 24.232V29H109.529V20.232H110.985V21.656Z" fill="white"/>
</svg>
