<svg width="128" height="45" viewBox="0 0 128 45" fill="none" xmlns="http://www.w3.org/2000/svg">
<circle cx="22.5" cy="22.5" r="22.5" fill="white"/>
<path d="M34.5055 17.6601C34.229 16.6199 33.4183 15.8 32.3903 15.5199C30.5122 15 22.9997 15 22.9997 15C22.9997 15 15.4876 15 13.6095 15.5002C12.6012 15.7799 11.7708 16.6201 11.4942 17.6601C11 19.5599 11 23.5 11 23.5C11 23.5 11 27.4599 11.4942 29.3399C11.7711 30.3799 12.5814 31.1999 13.6096 31.48C15.5073 32 23 32 23 32C23 32 30.5122 32 32.3903 31.4998C33.4185 31.2199 34.229 30.3999 34.5058 29.3599C34.9999 27.4599 34.9999 23.52 34.9999 23.52C34.9999 23.52 35.0197 19.5599 34.5055 17.6601ZM20.6079 27.14V19.86L26.8549 23.5L20.6079 27.14Z" fill="#0060BE"/>
<path d="M70.04 17.848L66.408 24.792V29H64.952V24.792L61.304 17.848H62.92L65.672 23.496L68.424 17.848H70.04ZM75.3998 29.144C74.5784 29.144 73.8318 28.9573 73.1598 28.584C72.4984 28.2107 71.9758 27.6827 71.5918 27C71.2184 26.3067 71.0318 25.5067 71.0318 24.6C71.0318 23.704 71.2238 22.9147 71.6078 22.232C72.0024 21.5387 72.5358 21.0107 73.2078 20.648C73.8798 20.2747 74.6318 20.088 75.4638 20.088C76.2958 20.088 77.0478 20.2747 77.7198 20.648C78.3918 21.0107 78.9198 21.5333 79.3038 22.216C79.6984 22.8987 79.8958 23.6933 79.8958 24.6C79.8958 25.5067 79.6931 26.3067 79.2878 27C78.8931 27.6827 78.3544 28.2107 77.6718 28.584C76.9891 28.9573 76.2318 29.144 75.3998 29.144ZM75.3998 27.864C75.9224 27.864 76.4131 27.7413 76.8718 27.496C77.3304 27.2507 77.6984 26.8827 77.9758 26.392C78.2638 25.9013 78.4078 25.304 78.4078 24.6C78.4078 23.896 78.2691 23.2987 77.9918 22.808C77.7144 22.3173 77.3518 21.9547 76.9038 21.72C76.4558 21.4747 75.9704 21.352 75.4478 21.352C74.9144 21.352 74.4238 21.4747 73.9758 21.72C73.5384 21.9547 73.1864 22.3173 72.9198 22.808C72.6531 23.2987 72.5198 23.896 72.5198 24.6C72.5198 25.3147 72.6478 25.9173 72.9038 26.408C73.1704 26.8987 73.5224 27.2667 73.9598 27.512C74.3971 27.7467 74.8771 27.864 75.3998 27.864ZM89.5861 20.232V29H88.1301V27.704C87.8528 28.152 87.4635 28.504 86.9621 28.76C86.4715 29.0053 85.9275 29.128 85.3301 29.128C84.6475 29.128 84.0341 28.9893 83.4901 28.712C82.9461 28.424 82.5141 27.9973 82.1941 27.432C81.8848 26.8667 81.7301 26.1787 81.7301 25.368V20.232H83.1701V25.176C83.1701 26.04 83.3888 26.7067 83.8261 27.176C84.2635 27.6347 84.8608 27.864 85.6181 27.864C86.3968 27.864 87.0101 27.624 87.4581 27.144C87.9061 26.664 88.1301 25.9653 88.1301 25.048V20.232H89.5861ZM93.8205 21.432V26.6C93.8205 27.0267 93.9112 27.3307 94.0925 27.512C94.2738 27.6827 94.5885 27.768 95.0365 27.768H96.1085V29H94.7965C93.9858 29 93.3778 28.8133 92.9725 28.44C92.5672 28.0667 92.3645 27.4533 92.3645 26.6V21.432H91.2285V20.232H92.3645V18.024H93.8205V20.232H96.1085V21.432H93.8205ZM105.649 20.232V29H104.193V27.704C103.915 28.152 103.526 28.504 103.025 28.76C102.534 29.0053 101.99 29.128 101.393 29.128C100.71 29.128 100.097 28.9893 99.5526 28.712C99.0086 28.424 98.5766 27.9973 98.2566 27.432C97.9473 26.8667 97.7926 26.1787 97.7926 25.368V20.232H99.2326V25.176C99.2326 26.04 99.4513 26.7067 99.8886 27.176C100.326 27.6347 100.923 27.864 101.681 27.864C102.459 27.864 103.073 27.624 103.521 27.144C103.969 26.664 104.193 25.9653 104.193 25.048V20.232H105.649ZM109.563 21.864C109.862 21.3413 110.299 20.9147 110.875 20.584C111.451 20.2533 112.107 20.088 112.843 20.088C113.632 20.088 114.342 20.2747 114.971 20.648C115.6 21.0213 116.096 21.5493 116.459 22.232C116.822 22.904 117.003 23.688 117.003 24.584C117.003 25.4693 116.822 26.2587 116.459 26.952C116.096 27.6453 115.595 28.184 114.955 28.568C114.326 28.952 113.622 29.144 112.843 29.144C112.086 29.144 111.419 28.9787 110.843 28.648C110.278 28.3173 109.851 27.896 109.563 27.384V29H108.107V17.16H109.563V21.864ZM115.515 24.584C115.515 23.9227 115.382 23.3467 115.115 22.856C114.848 22.3653 114.486 21.992 114.027 21.736C113.579 21.48 113.083 21.352 112.539 21.352C112.006 21.352 111.51 21.4853 111.051 21.752C110.603 22.008 110.24 22.3867 109.963 22.888C109.696 23.3787 109.563 23.9493 109.563 24.6C109.563 25.2613 109.696 25.8427 109.963 26.344C110.24 26.8347 110.603 27.2133 111.051 27.48C111.51 27.736 112.006 27.864 112.539 27.864C113.083 27.864 113.579 27.736 114.027 27.48C114.486 27.2133 114.848 26.8347 115.115 26.344C115.382 25.8427 115.515 25.256 115.515 24.584ZM126.92 24.28C126.92 24.5573 126.904 24.8507 126.872 25.16H119.864C119.917 26.024 120.21 26.7013 120.744 27.192C121.288 27.672 121.944 27.912 122.712 27.912C123.341 27.912 123.864 27.768 124.28 27.48C124.706 27.1813 125.005 26.7867 125.176 26.296H126.744C126.509 27.1387 126.04 27.8267 125.336 28.36C124.632 28.8827 123.757 29.144 122.712 29.144C121.88 29.144 121.133 28.9573 120.472 28.584C119.821 28.2107 119.309 27.6827 118.936 27C118.562 26.3067 118.376 25.5067 118.376 24.6C118.376 23.6933 118.557 22.8987 118.92 22.216C119.282 21.5333 119.789 21.0107 120.44 20.648C121.101 20.2747 121.858 20.088 122.712 20.088C123.544 20.088 124.28 20.2693 124.92 20.632C125.56 20.9947 126.05 21.496 126.392 22.136C126.744 22.7653 126.92 23.48 126.92 24.28ZM125.416 23.976C125.416 23.4213 125.293 22.9467 125.048 22.552C124.802 22.1467 124.466 21.8427 124.04 21.64C123.624 21.4267 123.16 21.32 122.648 21.32C121.912 21.32 121.282 21.5547 120.76 22.024C120.248 22.4933 119.954 23.144 119.88 23.976H125.416Z" fill="white"/>
</svg>
