<svg width="10" height="16" viewBox="0 0 10 16" fill="none" xmlns="http://www.w3.org/2000/svg">
<path d="M9.17509 2.28413L9.17506 2.28416L3.10919 7.99986L9.17463 13.7151C9.1747 13.7152 9.17477 13.7153 9.17485 13.7154C9.27578 13.8103 9.35757 13.9247 9.41398 14.0528C9.47047 14.1811 9.5 14.3198 9.5 14.4606C9.5 14.6015 9.47047 14.7402 9.41398 14.8685C9.35762 14.9965 9.27592 15.1108 9.17509 15.2057C9.07445 15.3007 8.95652 15.3746 8.82875 15.4245C8.70083 15.4746 8.56462 15.5 8.4277 15.5C8.29077 15.5 8.15457 15.4746 8.02664 15.4245C7.8988 15.3746 7.78082 15.3006 7.68014 15.2055C7.68004 15.2055 7.67994 15.2054 7.67984 15.2053L0.82537 8.74535C0.825245 8.74523 0.82512 8.74511 0.824995 8.745C0.824967 8.74497 0.824939 8.74494 0.824911 8.74492C0.724081 8.65002 0.642384 8.53571 0.586018 8.40769C0.529528 8.27939 0.5 8.14071 0.5 7.99986C0.5 7.85901 0.529528 7.72033 0.586018 7.59203C0.642384 7.46401 0.724081 7.3497 0.82491 7.2548L9.17509 2.28413ZM9.17509 2.28413C9.3791 2.09187 9.4997 1.82454 9.4997 1.53908C9.4997 1.25361 9.3791 0.986288 9.17509 0.794022C8.97208 0.602701 8.70276 0.5 8.4277 0.5C8.15263 0.5 7.88331 0.602701 7.6803 0.794022L0.82537 7.25437L9.17509 2.28413Z" fill="#0060BE" stroke="#0060BE"/>
</svg>
