<svg width="10" height="16" viewBox="0 0 10 16" fill="none" xmlns="http://www.w3.org/2000/svg">
<path d="M0.82491 2.28413L0.82494 2.28416L6.89081 7.99986L0.82537 13.7151C0.8253 13.7152 0.82523 13.7153 0.82515 13.7154C0.72422 13.8103 0.64243 13.9247 0.58602 14.0528C0.52953 14.1811 0.5 14.3198 0.5 14.4606C0.5 14.6015 0.52953 14.7402 0.58602 14.8685C0.64238 14.9965 0.72408 15.1108 0.82491 15.2057C0.92555 15.3007 1.04348 15.3746 1.17125 15.4245C1.29917 15.4746 1.43538 15.5 1.5723 15.5C1.70923 15.5 1.84543 15.4746 1.97336 15.4245C2.1012 15.3746 2.21918 15.3006 2.31986 15.2055C2.31996 15.2055 2.32006 15.2054 2.32016 15.2053L9.17463 8.74535C9.17475 8.74523 9.17488 8.74511 9.17501 8.745C9.17503 8.74497 9.17506 8.74494 9.17509 8.74492C9.27592 8.65002 9.35762 8.53571 9.41398 8.40769C9.47047 8.27939 9.5 8.14071 9.5 7.99986C9.5 7.85901 9.47047 7.72033 9.41398 7.59203C9.35762 7.46401 9.27592 7.3497 9.17509 7.2548L0.82491 2.28413ZM0.82491 2.28413C0.6209 2.09187 0.5003 1.82454 0.5003 1.53908C0.5003 1.25361 0.6209 0.986288 0.82491 0.794022C1.02792 0.602701 1.29724 0.5 1.5723 0.5C1.84737 0.5 2.11669 0.602701 2.3197 0.794022L9.17463 7.25437L0.82491 2.28413Z" fill="#0060BE" stroke="#0060BE"/>
</svg>
