<svg width="32" height="32" viewBox="0 0 32 32" fill="none" xmlns="http://www.w3.org/2000/svg">
<path d="M26.8908 18.7907L21.1675 23.871C21.1675 23.8181 21.1272 23.7122 21.0869 23.6593C16.1296 14.3988 8.75353 12.7054 5.85156 12.4405L12.381 8.78906C12.3407 8.78906 20.6032 8.8949 26.8908 18.7911V18.7907Z" fill="black"/>
<path d="M4.86986 13.0703C6.19993 13.0703 15.0673 13.5995 20.5888 24.0775C20.6291 24.1833 20.5888 24.2891 20.5082 24.2891C19.1782 24.4479 9.9483 25.1888 4.78925 13.282C4.74894 13.1762 4.78925 13.0703 4.86986 13.0703Z" fill="black"/>
<path d="M4.43328 12.4374C4.27206 12.4374 4.11084 12.2787 4.03023 12.067C3.94962 11.7495 4.03023 11.432 4.27206 11.3261L12.0912 7.03969C12.3331 6.93385 12.5749 7.03969 12.6555 7.3572C12.7361 7.67472 12.6555 7.99223 12.4137 8.09807L4.5945 12.4374H4.43328Z" fill="black"/>
<path d="M21.4386 25.6686C21.2774 25.6686 21.1564 25.5628 21.0758 25.4041C20.9549 25.1395 20.9952 24.769 21.1967 24.6103L27.3231 19.1596C27.5246 19.0009 27.8068 19.0538 27.9277 19.3184C28.0486 19.583 28.0083 19.9534 27.8068 20.1122L21.7209 25.6157C21.6403 25.6686 21.5597 25.6686 21.4388 25.6686H21.4386Z" fill="black"/>
</svg>
