<svg width="145" height="45" viewBox="0 0 145 45" fill="none" xmlns="http://www.w3.org/2000/svg">
<circle cx="22.5" cy="22.5" r="22.5" fill="white"/>
<path d="M34.9343 17.0561C34.8781 15.7809 34.6719 14.9042 34.3765 14.1445C34.0717 13.3381 33.6029 12.6162 32.9886 12.016C32.3885 11.4065 31.6618 10.9329 30.8648 10.6329C30.1007 10.3375 29.2286 10.1313 27.9534 10.0751C26.6686 10.0141 26.2608 10 23.0023 10C19.7439 10 19.336 10.0141 18.0561 10.0703C16.7808 10.1266 15.9042 10.333 15.1447 10.6282C14.3381 10.9329 13.6162 11.4018 13.016 12.016C12.4065 12.6162 11.9331 13.3429 11.6329 14.1399C11.3375 14.9042 11.1313 15.7761 11.0751 17.0513C11.0141 18.336 11 18.7439 11 22.0023C11 25.2608 11.0141 25.6686 11.0703 26.9486C11.1266 28.2238 11.333 29.1005 11.6284 29.8602C11.9331 30.6666 12.4065 31.3885 13.016 31.9887C13.6162 32.5982 14.3429 33.0718 15.1399 33.3717C15.9042 33.6672 16.7761 33.8734 18.0515 33.9296C19.3313 33.986 19.7393 33.9999 22.9978 33.9999C26.2562 33.9999 26.6641 33.986 27.944 33.9296C29.2192 33.8734 30.0959 33.6672 30.8554 33.3717C32.4683 32.7481 33.7436 31.4729 34.3672 29.8602C34.6624 29.0959 34.8688 28.2238 34.925 26.9486C34.9812 25.6686 34.9953 25.2608 34.9953 22.0023C34.9953 18.7439 34.9906 18.336 34.9343 17.0561ZM32.7731 26.8548C32.7214 28.027 32.5246 28.6599 32.3605 29.0818C31.9572 30.1274 31.1274 30.9572 30.0818 31.3605C29.6599 31.5246 29.0224 31.7215 27.8548 31.7729C26.589 31.8293 26.2093 31.8432 23.0071 31.8432C19.8049 31.8432 19.4205 31.8293 18.1592 31.7729C16.9871 31.7215 16.3541 31.5246 15.9322 31.3605C15.4119 31.1682 14.9383 30.8634 14.5539 30.4649C14.1553 30.0758 13.8506 29.6069 13.6583 29.0866C13.4942 28.6646 13.2973 28.027 13.2459 26.8596C13.1895 25.5937 13.1755 25.2139 13.1755 22.0117C13.1755 18.8095 13.1895 18.425 13.2459 17.1639C13.2973 15.9918 13.4942 15.3589 13.6583 14.9369C13.8506 14.4164 14.1553 13.943 14.5586 13.5584C14.9476 13.1599 15.4164 12.8552 15.9369 12.6631C16.3589 12.499 16.9966 12.3021 18.1639 12.2504C19.4298 12.1942 19.8096 12.1801 23.0117 12.1801C26.2187 12.1801 26.5983 12.1942 27.8596 12.2504C29.0317 12.3021 29.6646 12.499 30.0866 12.6631C30.6069 12.8552 31.0805 13.1599 31.4649 13.5584C31.8634 13.9476 32.1682 14.4164 32.3605 14.9369C32.5246 15.3589 32.7214 15.9964 32.7731 17.1639C32.8293 18.4298 32.8434 18.8095 32.8434 22.0117C32.8434 25.2139 32.8293 25.589 32.7731 26.8548Z" fill="#0060BE"/>
<path d="M23.0012 15.8359C19.5975 15.8359 16.8359 18.5973 16.8359 22.0012C16.8359 25.4051 19.5975 28.1665 23.0012 28.1665C26.4051 28.1665 29.1665 25.4051 29.1665 22.0012C29.1665 18.5973 26.4051 15.8359 23.0012 15.8359ZM23.0012 26.0005C20.7931 26.0005 19.002 24.2095 19.002 22.0012C19.002 19.7929 20.7931 18.0019 23.0012 18.0019C25.2095 18.0019 27.0005 19.7929 27.0005 22.0012C27.0005 24.2095 25.2095 26.0005 23.0012 26.0005Z" fill="#0060BE"/>
<path d="M30.8475 15.5917C30.8475 16.3865 30.2031 17.031 29.4081 17.031C28.6132 17.031 27.9688 16.3865 27.9688 15.5917C27.9688 14.7966 28.6132 14.1523 29.4081 14.1523C30.2031 14.1523 30.8475 14.7966 30.8475 15.5917Z" fill="#0060BE"/>
<path d="M63.688 17.848V29H62.232V17.848H63.688ZM70.4415 20.072C71.5082 20.072 72.3722 20.3973 73.0335 21.048C73.6948 21.688 74.0255 22.616 74.0255 23.832V29H72.5855V24.04C72.5855 23.1653 72.3668 22.4987 71.9295 22.04C71.4922 21.5707 70.8948 21.336 70.1375 21.336C69.3695 21.336 68.7562 21.576 68.2975 22.056C67.8495 22.536 67.6255 23.2347 67.6255 24.152V29H66.1695V20.232H67.6255V21.48C67.9135 21.032 68.3028 20.6853 68.7935 20.44C69.2948 20.1947 69.8442 20.072 70.4415 20.072ZM79.5079 29.144C78.8359 29.144 78.2332 29.032 77.6999 28.808C77.1665 28.5733 76.7452 28.2533 76.4359 27.848C76.1265 27.432 75.9559 26.9573 75.9239 26.424H77.4279C77.4705 26.8613 77.6732 27.2187 78.0359 27.496C78.4092 27.7733 78.8945 27.912 79.4919 27.912C80.0465 27.912 80.4839 27.7893 80.8039 27.544C81.1239 27.2987 81.2839 26.9893 81.2839 26.616C81.2839 26.232 81.1132 25.9493 80.7719 25.768C80.4305 25.576 79.9025 25.3893 79.1879 25.208C78.5372 25.0373 78.0039 24.8667 77.5879 24.696C77.1825 24.5147 76.8305 24.2533 76.5319 23.912C76.2439 23.56 76.0999 23.1013 76.0999 22.536C76.0999 22.088 76.2332 21.6773 76.4999 21.304C76.7665 20.9307 77.1452 20.6373 77.6359 20.424C78.1265 20.2 78.6865 20.088 79.3159 20.088C80.2865 20.088 81.0705 20.3333 81.6679 20.824C82.2652 21.3147 82.5852 21.9867 82.6279 22.84H81.1719C81.1399 22.3813 80.9532 22.0133 80.6119 21.736C80.2812 21.4587 79.8332 21.32 79.2679 21.32C78.7452 21.32 78.3292 21.432 78.0199 21.656C77.7105 21.88 77.5559 22.1733 77.5559 22.536C77.5559 22.824 77.6465 23.064 77.8279 23.256C78.0199 23.4373 78.2545 23.5867 78.5319 23.704C78.8199 23.8107 79.2145 23.9333 79.7159 24.072C80.3452 24.2427 80.8572 24.4133 81.2519 24.584C81.6465 24.744 81.9825 24.9893 82.2599 25.32C82.5479 25.6507 82.6972 26.0827 82.7079 26.616C82.7079 27.096 82.5745 27.528 82.3079 27.912C82.0412 28.296 81.6625 28.6 81.1719 28.824C80.6919 29.0373 80.1372 29.144 79.5079 29.144ZM86.5393 21.432V26.6C86.5393 27.0267 86.6299 27.3307 86.8113 27.512C86.9926 27.6827 87.3073 27.768 87.7552 27.768H88.8273V29H87.5153C86.7046 29 86.0966 28.8133 85.6913 28.44C85.2859 28.0667 85.0833 27.4533 85.0833 26.6V21.432H83.9473V20.232H85.0833V18.024H86.5393V20.232H88.8273V21.432H86.5393ZM90.0474 24.584C90.0474 23.688 90.2287 22.904 90.5914 22.232C90.954 21.5493 91.45 21.0213 92.0794 20.648C92.7194 20.2747 93.4287 20.088 94.2074 20.088C94.9754 20.088 95.642 20.2533 96.2074 20.584C96.7727 20.9147 97.194 21.3307 97.4714 21.832V20.232H98.9434V29H97.4714V27.368C97.1834 27.88 96.7514 28.3067 96.1754 28.648C95.61 28.9787 94.9487 29.144 94.1914 29.144C93.4127 29.144 92.7087 28.952 92.0794 28.568C91.45 28.184 90.954 27.6453 90.5914 26.952C90.2287 26.2587 90.0474 25.4693 90.0474 24.584ZM97.4714 24.6C97.4714 23.9387 97.338 23.3627 97.0714 22.872C96.8047 22.3813 96.442 22.008 95.9834 21.752C95.5354 21.4853 95.0394 21.352 94.4954 21.352C93.9514 21.352 93.4554 21.48 93.0074 21.736C92.5594 21.992 92.202 22.3653 91.9354 22.856C91.6687 23.3467 91.5354 23.9227 91.5354 24.584C91.5354 25.256 91.6687 25.8427 91.9354 26.344C92.202 26.8347 92.5594 27.2133 93.0074 27.48C93.4554 27.736 93.9514 27.864 94.4954 27.864C95.0394 27.864 95.5354 27.736 95.9834 27.48C96.442 27.2133 96.8047 26.8347 97.0714 26.344C97.338 25.8427 97.4714 25.2613 97.4714 24.6ZM105.02 20.088C105.777 20.088 106.439 20.2533 107.004 20.584C107.58 20.9147 108.007 21.3307 108.284 21.832V20.232H109.756V29.192C109.756 29.992 109.585 30.7013 109.244 31.32C108.903 31.9493 108.412 32.44 107.772 32.792C107.143 33.144 106.407 33.32 105.564 33.32C104.412 33.32 103.452 33.048 102.684 32.504C101.916 31.96 101.463 31.2187 101.324 30.28H102.764C102.924 30.8133 103.255 31.24 103.756 31.56C104.257 31.8907 104.86 32.056 105.564 32.056C106.364 32.056 107.015 31.8053 107.516 31.304C108.028 30.8027 108.284 30.0987 108.284 29.192V27.352C107.996 27.864 107.569 28.2907 107.004 28.632C106.439 28.9733 105.777 29.144 105.02 29.144C104.241 29.144 103.532 28.952 102.892 28.568C102.263 28.184 101.767 27.6453 101.404 26.952C101.041 26.2587 100.86 25.4693 100.86 24.584C100.86 23.688 101.041 22.904 101.404 22.232C101.767 21.5493 102.263 21.0213 102.892 20.648C103.532 20.2747 104.241 20.088 105.02 20.088ZM108.284 24.6C108.284 23.9387 108.151 23.3627 107.884 22.872C107.617 22.3813 107.255 22.008 106.796 21.752C106.348 21.4853 105.852 21.352 105.308 21.352C104.764 21.352 104.268 21.48 103.82 21.736C103.372 21.992 103.015 22.3653 102.748 22.856C102.481 23.3467 102.348 23.9227 102.348 24.584C102.348 25.256 102.481 25.8427 102.748 26.344C103.015 26.8347 103.372 27.2133 103.82 27.48C104.268 27.736 104.764 27.864 105.308 27.864C105.852 27.864 106.348 27.736 106.796 27.48C107.255 27.2133 107.617 26.8347 107.884 26.344C108.151 25.8427 108.284 25.2613 108.284 24.6ZM113.672 21.656C113.928 21.1547 114.291 20.7653 114.76 20.488C115.24 20.2107 115.822 20.072 116.504 20.072V21.576H116.12C114.488 21.576 113.672 22.4613 113.672 24.232V29H112.216V20.232H113.672V21.656ZM117.641 24.584C117.641 23.688 117.822 22.904 118.185 22.232C118.548 21.5493 119.044 21.0213 119.673 20.648C120.313 20.2747 121.022 20.088 121.801 20.088C122.569 20.088 123.236 20.2533 123.801 20.584C124.366 20.9147 124.788 21.3307 125.065 21.832V20.232H126.537V29H125.065V27.368C124.777 27.88 124.345 28.3067 123.769 28.648C123.204 28.9787 122.542 29.144 121.785 29.144C121.006 29.144 120.302 28.952 119.673 28.568C119.044 28.184 118.548 27.6453 118.185 26.952C117.822 26.2587 117.641 25.4693 117.641 24.584ZM125.065 24.6C125.065 23.9387 124.932 23.3627 124.665 22.872C124.398 22.3813 124.036 22.008 123.577 21.752C123.129 21.4853 122.633 21.352 122.089 21.352C121.545 21.352 121.049 21.48 120.601 21.736C120.153 21.992 119.796 22.3653 119.529 22.856C119.262 23.3467 119.129 23.9227 119.129 24.584C119.129 25.256 119.262 25.8427 119.529 26.344C119.796 26.8347 120.153 27.2133 120.601 27.48C121.049 27.736 121.545 27.864 122.089 27.864C122.633 27.864 123.129 27.736 123.577 27.48C124.036 27.2133 124.398 26.8347 124.665 26.344C124.932 25.8427 125.065 25.2613 125.065 24.6ZM139.542 20.072C140.224 20.072 140.832 20.216 141.366 20.504C141.899 20.7813 142.32 21.2027 142.63 21.768C142.939 22.3333 143.094 23.0213 143.094 23.832V29H141.654V24.04C141.654 23.1653 141.435 22.4987 140.998 22.04C140.571 21.5707 139.99 21.336 139.254 21.336C138.496 21.336 137.894 21.5813 137.446 22.072C136.998 22.552 136.774 23.2507 136.774 24.168V29H135.334V24.04C135.334 23.1653 135.115 22.4987 134.678 22.04C134.251 21.5707 133.67 21.336 132.934 21.336C132.176 21.336 131.574 21.5813 131.126 22.072C130.678 22.552 130.454 23.2507 130.454 24.168V29H128.998V20.232H130.454V21.496C130.742 21.0373 131.126 20.6853 131.606 20.44C132.096 20.1947 132.635 20.072 133.222 20.072C133.958 20.072 134.608 20.2373 135.174 20.568C135.739 20.8987 136.16 21.384 136.438 22.024C136.683 21.4053 137.088 20.9253 137.654 20.584C138.219 20.2427 138.848 20.072 139.542 20.072Z" fill="white"/>
</svg>
