<svg width="32" height="32" viewBox="0 0 32 32" fill="none" xmlns="http://www.w3.org/2000/svg">
<path d="M23.0837 19.2855C22.4668 19.2965 21.8793 19.5511 21.4492 19.9935C21.0194 20.4362 20.7822 21.0308 20.7892 21.6478C20.785 22.2699 21.0294 22.8682 21.4679 23.3095C21.9064 23.751 22.5028 23.9993 23.1249 23.9993C23.7472 23.9993 24.3437 23.751 24.7822 23.3095C25.2207 22.8683 25.465 22.2699 25.4609 21.6478C25.4681 21.0166 25.2195 20.4092 24.7715 19.9642C24.3237 19.5192 23.7149 19.2744 23.0837 19.2855ZM23.1075 21.0164L23.1072 21.0166C23.2778 21.0117 23.4431 21.0759 23.5653 21.1949C23.6875 21.3138 23.7563 21.4772 23.7563 21.6478C23.7461 21.9887 23.4668 22.2601 23.1256 22.2601C22.7844 22.2601 22.5052 21.9887 22.4949 21.6478C22.4947 21.3064 22.7661 21.0266 23.1072 21.0166L23.1075 21.0164Z" fill="black"/>
<path d="M10.021 19.2855C9.40407 19.2965 8.81661 19.5511 8.38674 19.9935C7.95689 20.4362 7.71951 21.0308 7.72672 21.6478C7.723 22.2697 7.9676 22.8673 8.40605 23.3081C8.84429 23.7491 9.44053 23.9972 10.0624 23.9972C10.6843 23.9972 11.2803 23.7491 11.7188 23.3081C12.1573 22.8673 12.4019 22.2696 12.3981 21.6478C12.4053 21.0166 12.1568 20.4092 11.709 19.9642C11.2612 19.5192 10.6522 19.2744 10.021 19.2855V19.2855ZM10.051 21.0096C10.2214 21.0066 10.3859 21.0727 10.507 21.193C10.628 21.3131 10.695 21.4772 10.6931 21.6478C10.6976 21.8179 10.6331 21.9827 10.5144 22.1046C10.3957 22.2266 10.2328 22.2955 10.0624 22.2955C9.89231 22.2955 9.7294 22.2266 9.61048 22.1046C9.49178 21.9827 9.42732 21.8179 9.43197 21.6478C9.42778 21.3012 9.70427 21.0161 10.0511 21.0096L10.051 21.0096Z" fill="black"/>
<path d="M7.32102 9.26379C6.13455 9.26379 5.03816 9.89659 4.44493 10.9241C3.85169 11.9516 3.85169 13.2177 4.44493 14.2452C5.03816 15.2727 6.13455 15.9055 7.32102 15.9055L16.6669 15.9034C17.8534 15.9034 18.9495 15.2706 19.5428 14.2431C20.136 13.2156 20.136 11.9495 19.5428 10.922C18.9495 9.89451 17.8531 9.26172 16.6667 9.26172L7.32102 9.26379Z" fill="black"/>
<path d="M20.7891 20.1494V8.14709C20.7891 8.10799 20.8047 8.07052 20.8321 8.04306C20.8598 8.01536 20.8973 8 20.9361 8H23.5055V13.8365C23.5055 14.1604 23.7683 14.4232 24.0922 14.4232H29.2436V21.4286H25.8908C25.8287 20.6517 25.4428 19.9368 24.8275 19.4585C24.2124 18.9803 23.4243 18.7826 22.6561 18.9139C21.8878 19.0454 21.2103 19.4937 20.7891 20.1493L20.7891 20.1494Z" fill="black"/>
<path d="M27.2445 8H23.9453V13.8365L23.9455 13.8367C23.9455 13.9177 24.0114 13.9836 24.0926 13.9836H29.1813L27.7433 8.38612V8.38589C27.6848 8.15851 27.4796 7.99955 27.2445 8.00001L27.2445 8Z" fill="black"/>
<path d="M7.29753 21.4326C7.37131 20.4958 7.91406 19.6598 8.74002 19.2116C9.56597 18.7631 10.5628 18.7631 11.3885 19.2116C12.2145 19.6598 12.7575 20.4958 12.8312 21.4326H20V17.043H4.59375V21.4326H7.29753Z" fill="black"/>
</svg>
