<svg width="12" height="12" viewBox="0 0 12 12" fill="none" xmlns="http://www.w3.org/2000/svg">
<path d="M5.99999 8C5.67695 8 5.3539 7.87438 5.10931 7.6278L2.10038 4.59436C1.96654 4.45944 1.96654 4.23612 2.10038 4.10119C2.23421 3.96627 2.45573 3.96627 2.58956 4.10119L5.59849 7.13463C5.82001 7.35795 6.17998 7.35795 6.40149 7.13463L9.41044 4.10119C9.54427 3.96627 9.76579 3.96627 9.89963 4.10119C10.0335 4.23612 10.0335 4.45944 9.89963 4.59436L6.89068 7.6278C6.64609 7.87438 6.32304 8 5.99999 8Z" fill="url(#paint0_linear_1162_6582)"/>
<path d="M5.99999 8C5.67695 8 5.3539 7.87438 5.10931 7.6278L2.10038 4.59436C1.96654 4.45944 1.96654 4.23612 2.10038 4.10119C2.23421 3.96627 2.45573 3.96627 2.58956 4.10119L5.59849 7.13463C5.82001 7.35795 6.17998 7.35795 6.40149 7.13463L9.41044 4.10119C9.54427 3.96627 9.76579 3.96627 9.89963 4.10119C10.0335 4.23612 10.0335 4.45944 9.89963 4.59436L6.89068 7.6278C6.64609 7.87438 6.32304 8 5.99999 8Z" stroke="black"/>
<defs>
<linearGradient id="paint0_linear_1162_6582" x1="2" y1="6" x2="10" y2="6" gradientUnits="userSpaceOnUse">
<stop stop-color="#182028"/>
<stop offset="1" stop-color="#030608"/>
</linearGradient>
</defs>
</svg>
