<svg width="14" height="14" viewBox="0 0 14 14" fill="none" xmlns="http://www.w3.org/2000/svg">
<path d="M5.7814 9.58653L5.78133 9.58576L5.1537 9.20366L5.13948 9.05433C5.13937 9.05434 5.13925 9.05435 5.13914 9.05436C4.81177 9.08573 4.57661 9.37474 4.6077 9.69608C4.71791 10.8637 5.09469 11.7346 5.79896 12.3094C6.49989 12.8816 7.49985 13.1395 8.8112 13.1395H8.88704C10.3364 13.1395 11.4067 12.8301 12.1117 12.125C12.8168 11.4199 13.1262 10.3497 13.1262 8.90032V5.09698C13.1262 3.64764 12.8168 2.57736 12.1117 1.87227C11.4067 1.16717 10.3364 0.857812 8.88704 0.857812H8.8112C7.49092 0.857812 6.48469 1.12015 5.78213 1.70163C5.07638 2.28576 4.70298 3.17008 4.60175 4.35504L4.60174 4.35504L4.6016 4.35687C4.57841 4.67393 4.81028 4.96527 5.14141 4.98981C5.48 5.02046 5.74297 4.77315 5.78093 4.4618L5.78104 4.46182L5.78151 4.45626C5.85869 3.54148 6.10601 2.95 6.56603 2.58013C7.03126 2.20607 7.74492 2.03281 8.81704 2.03281H8.89287C10.0696 2.03281 10.8211 2.24257 11.2842 2.70565C11.7473 3.16873 11.957 3.92028 11.957 5.09698V8.90032C11.957 10.077 11.7473 10.8286 11.2842 11.2917C10.8211 11.7547 10.0696 11.9645 8.89287 11.9645H8.81704C7.75064 11.9645 7.03924 11.7941 6.57375 11.4266C6.11381 11.0634 5.86422 10.4832 5.7814 9.58653Z" fill="white" stroke="white" stroke-width="0.3"/>
<path d="M1.16406 7.5875H8.67739C9.00654 7.5875 9.26489 7.3207 9.26489 7C9.26489 6.67799 8.9994 6.4125 8.67739 6.4125H1.16406C0.842053 6.4125 0.576562 6.67799 0.576562 7C0.576562 7.32201 0.842053 7.5875 1.16406 7.5875Z" fill="white" stroke="white" stroke-width="0.3"/>
<path d="M6.96612 5.46065L6.96612 5.46065L8.50506 6.99956L6.96612 8.53849C6.73838 8.76624 6.73838 9.14121 6.96612 9.36896C7.08323 9.48607 7.23289 9.54122 7.38135 9.54122C7.52982 9.54122 7.67947 9.48607 7.79659 9.36896L9.75075 7.41479C9.9785 7.18705 9.9785 6.81207 9.75075 6.58433L9.64469 6.69039L9.75075 6.58433L7.79659 4.63018C7.79659 4.63018 7.79659 4.63018 7.79659 4.63018C7.56884 4.40244 7.19387 4.40244 6.96612 4.63018C6.73838 4.85793 6.73838 5.2329 6.96612 5.46065Z" fill="white" stroke="white" stroke-width="0.3"/>
</svg>
