<svg width="14" height="14" viewBox="0 0 14 14" fill="none" xmlns="http://www.w3.org/2000/svg">
<path d="M6.35937 1.77081L6.35937 1.7708C6.12165 1.69871 5.8123 1.69299 4.95992 1.69299H4.66797C4.11717 1.69299 3.73039 1.69328 3.42701 1.71398C3.12832 1.73435 2.94904 1.77275 2.80928 1.83064C2.36619 2.01418 2.01416 2.36622 1.83062 2.80931L1.75039 2.77607L1.83062 2.80931C1.77274 2.94906 1.73433 3.12834 1.71395 3.42703C1.69326 3.73041 1.69297 4.11719 1.69297 4.66799V9.3347C1.69297 9.88547 1.69326 10.2722 1.71395 10.5756C1.73433 10.8743 1.77273 11.0536 1.83061 11.1933L1.7502 11.2266L1.83061 11.1933C2.01415 11.6364 2.36619 11.9885 2.80929 12.172L2.8093 12.172C2.94905 12.2299 3.12833 12.2683 3.42701 12.2887C3.73038 12.3094 4.11716 12.3096 4.66795 12.3096H4.95935C5.81226 12.3096 6.12182 12.3039 6.3597 12.2317L6.38512 12.3155L6.35971 12.2317C6.93754 12.0564 7.38968 11.6042 7.56506 11.0264C7.6372 10.7885 7.64296 10.4789 7.64296 9.62602V9.33458V9.33456C7.64303 9.04463 7.87808 8.80964 8.16802 8.80964H8.16804C8.45795 8.80971 8.69302 9.04474 8.69296 9.3347C8.69296 9.33471 8.69296 9.33471 8.69296 9.33472V9.70947V9.70949L8.69296 9.72459C8.69314 10.4452 8.69326 10.9245 8.56978 11.3312C8.29267 12.2446 7.57791 12.9594 6.66456 13.2365C6.25778 13.3599 5.77847 13.3598 5.05789 13.3596L5.0428 13.3596H5.04278H4.65194H4.64886C4.12138 13.3596 3.69884 13.3596 3.35555 13.3362C3.0034 13.3122 2.69651 13.2618 2.40748 13.1421C1.7071 12.852 1.15064 12.2956 0.860541 11.5951C0.740824 11.3061 0.690412 10.9992 0.666388 10.6471C0.642969 10.3039 0.642969 9.88145 0.642969 9.35413V9.35063V4.65198V4.64887C0.642969 4.12139 0.642969 3.69886 0.666388 3.35556L0.753672 3.36151L0.666388 3.35556C0.690418 3.00341 0.74083 2.69651 0.860551 2.40749C1.15065 1.70712 1.70709 1.15067 2.40747 0.860568C2.69649 0.740854 3.00339 0.690435 3.35554 0.666412C3.69876 0.642992 4.12118 0.642992 4.6485 0.642992H4.652L5.04329 0.642981H5.04331L5.05834 0.642977C5.77851 0.642811 6.25753 0.6427 6.66408 0.765991C7.57784 1.04307 8.29291 1.75811 8.56996 2.67186M6.35937 1.77081L8.48622 2.69725M6.35937 1.77081C6.93748 1.94611 7.38985 2.39848 7.56517 2.97656C7.63726 3.21432 7.64296 3.52367 7.64296 4.37604V4.66799C7.64296 4.95794 7.87802 5.19299 8.16796 5.19299C8.4579 5.19299 8.69296 4.95794 8.69296 4.66799V4.29267L6.35937 1.77081ZM8.56996 2.67186L8.48622 2.69725M8.56996 2.67186C8.56996 2.67186 8.56996 2.67185 8.56996 2.67185L8.48622 2.69725M8.56996 2.67186C8.69326 3.07842 8.69314 3.55743 8.69296 4.27755L8.69296 4.29265H8.60546V4.29255C8.60563 3.55895 8.60574 3.09135 8.48622 2.69725M13.2059 7.37229L13.2059 7.37228C13.4109 7.16725 13.4109 6.83484 13.2059 6.62981L13.2059 6.6298L10.8726 4.29648C10.6675 4.09145 10.3351 4.09145 10.1301 4.29647C9.92505 4.5015 9.92505 4.83391 10.1301 5.03894L11.5672 6.47602H5.2513C4.96135 6.47602 4.7263 6.71108 4.7263 7.00102C4.7263 7.29102 4.96136 7.52602 5.2513 7.52602H11.5672L10.1301 8.96314C9.92505 9.16817 9.92505 9.50059 10.1301 9.70562C10.3351 9.91065 10.6675 9.91065 10.8726 9.70562L13.2059 7.37229Z" fill="white" stroke="white" stroke-width="0.175"/>
</svg>
