<svg width="32" height="32" viewBox="0 0 32 32" fill="none" xmlns="http://www.w3.org/2000/svg">
<path fill-rule="evenodd" clip-rule="evenodd" d="M27.6523 25.4586L26.3035 24.1094C26.3025 24.067 26.2996 24.0234 26.2949 23.9783L24.9969 13.2831C25.5798 13.1353 25.993 12.7182 25.993 12.2087V12.1133C25.993 10.7908 24.6759 9.61082 23.0343 9.34019C22.5032 8.4174 20.0243 4.51395 15.8205 4.00669L15.7629 4L15.7053 4.00669C11.5188 4.51194 9.04243 8.38608 8.4979 9.32905C6.81701 9.57238 5.45289 10.7681 5.45289 12.1131V12.2085C5.45289 12.7983 6.00282 13.2637 6.73166 13.331L5.69187 24.0065C5.68752 24.0449 5.68518 24.0838 5.68417 24.1217L4.34735 25.4585C4.00478 25.8011 3.90736 26.2911 4.09197 26.7367C4.29698 27.2311 4.78448 27.53 5.34396 27.4517L7.83904 27.0947C7.86364 27.1024 7.88857 27.1096 7.91451 27.1155C10.5425 27.6994 13.2403 27.9954 15.9321 27.9954C18.4857 27.9954 21.0471 27.7287 23.5457 27.2027L24.0412 27.0981C24.0586 27.0942 24.0753 27.09 24.0926 27.0852L26.656 27.4517C26.7154 27.4604 26.7729 27.4637 26.8297 27.4637C27.3018 27.4637 27.725 27.1787 27.9083 26.7367C28.0925 26.2906 27.9951 25.8011 27.6526 25.4585L27.6523 25.4586ZM6.41218 12.2086V12.1132C6.41218 11.248 7.59455 10.2414 9.11945 10.2414H22.3262C23.8511 10.2414 25.0334 11.248 25.0334 12.1132L25.0343 12.2009C25.0232 12.233 24.9402 12.296 24.8093 12.3391L20.7925 12.9294C20.5584 12.9639 20.2839 12.9947 19.9879 13.0229C18.8607 13.1309 17.3335 13.1933 15.6989 13.1933C13.5405 13.1933 11.5555 13.0877 10.3894 12.9096L6.82525 12.3664L6.82424 12.3756C6.57857 12.353 6.42695 12.2469 6.41205 12.2086L6.41218 12.2086ZM20.4852 19.4674H22.2406V21.2227C22.2406 22.6383 21.0932 23.786 19.6772 23.786H17.922V22.0303C17.922 20.6149 19.0692 19.4675 20.4852 19.4675V19.4674ZM14.7579 16.7606L15.9989 15.5194L17.2403 16.7606C18.2411 17.7616 18.2411 19.3844 17.2403 20.3854L15.9989 21.6268L14.7579 20.3854C13.7572 19.3844 13.7572 17.7616 14.7579 16.7606ZM10.2449 21.2227V19.4675H12.0001C13.4156 19.4675 14.5633 20.6149 14.5633 22.0303V23.786H12.8081C11.3921 23.786 10.2449 22.6383 10.2449 21.2227V21.2227Z" fill="black"/>
</svg>
