<svg width="32" height="32" viewBox="0 0 32 32" fill="none" xmlns="http://www.w3.org/2000/svg">
<path d="M7.30999 15.3768H7.5757C7.78838 15.3768 7.96066 15.2045 7.96066 14.9918V5.04902C7.96066 4.83634 7.78818 4.66406 7.5757 4.66406H7.30999C6.32757 4.66406 5.53125 5.53037 5.53125 7.20542V12.8358C5.53105 14.7009 6.32737 15.377 7.30999 15.377V15.3768Z" fill="black"/>
<path d="M12.7836 15.3772H13.0493C14.0317 15.3772 14.828 14.7011 14.828 12.8358V7.20542C14.828 5.53057 14.0317 4.66406 13.0493 4.66406H12.7836C12.5709 4.66406 12.3984 4.83654 12.3984 5.04902V14.9918C12.3984 15.2047 12.5709 15.377 12.7836 15.377V15.3772Z" fill="black"/>
<path d="M10.1936 17.0609C11.0686 17.0609 11.7778 16.3517 11.7778 15.4767V4.58422C11.7778 3.70923 11.0686 3 10.1936 3C9.3186 3 8.60938 3.70923 8.60938 4.58422V15.4772C8.60938 16.352 9.3186 17.0612 10.1936 17.0612V17.0609ZM9.99116 5.37216L9.86855 5.24956C9.75659 5.13759 9.75659 4.95645 9.86855 4.84449C9.98051 4.73253 10.1617 4.73253 10.2736 4.84449L10.3962 4.9671C10.8811 5.45199 10.8811 6.24103 10.3962 6.72591L10.3209 6.80101C10.1944 6.92755 10.1246 7.09609 10.1246 7.27526C10.1246 7.45443 10.1944 7.62277 10.3211 7.74951L10.4366 7.86502C10.6714 8.09997 10.8009 8.41242 10.8009 8.74455C10.8009 9.07668 10.6714 9.38908 10.4366 9.62388L10.3456 9.71494C10.219 9.84169 10.149 10.0102 10.149 10.1894C10.149 10.3686 10.2188 10.5369 10.3456 10.6636C10.5805 10.8986 10.7098 11.211 10.7098 11.5432C10.7098 11.8753 10.5803 12.1876 10.3456 12.4223C10.2074 12.5607 10.1376 12.729 10.1376 12.9082C10.1376 13.0874 10.2074 13.2557 10.3341 13.3826L10.4707 13.5194C10.7057 13.7542 10.835 14.0666 10.835 14.3986C10.835 14.7307 10.7055 15.0431 10.4707 15.2781C10.4149 15.3341 10.3414 15.3621 10.2683 15.3621C10.195 15.3621 10.1216 15.3341 10.0659 15.2781C9.9539 15.1661 9.9539 14.985 10.0657 14.873C10.1924 14.7463 10.2622 14.5777 10.2622 14.3986C10.2622 14.2194 10.1924 14.0511 10.0657 13.9243L9.92907 13.7877C9.69411 13.5528 9.5648 13.2403 9.5648 12.9082C9.5648 12.5761 9.6943 12.2637 9.92907 12.0289C10.0672 11.8905 10.137 11.7222 10.137 11.543C10.137 11.3638 10.0672 11.1955 9.9405 11.0685C9.70554 10.8338 9.57623 10.5213 9.57623 10.1892C9.57623 9.85707 9.70574 9.54482 9.9405 9.30988L10.0316 9.21881C10.1583 9.09226 10.2281 8.92373 10.2281 8.74456C10.2281 8.56539 10.1583 8.39705 10.0316 8.27011L9.91606 8.1546C9.6811 7.91984 9.55179 7.60741 9.55179 7.27527C9.55179 6.94314 9.68129 6.63074 9.91606 6.39574L9.99116 6.32064C10.2527 6.05927 10.2527 5.63372 9.99116 5.37213V5.37216Z" fill="black"/>
<path d="M23.2902 19.0469C19.3255 19.0469 17.625 20.244 17.625 21.2871V21.5691C17.625 21.795 17.8081 21.978 18.0338 21.978H28.5922C28.8181 21.978 29.001 21.7948 29.001 21.5691V21.2871C29.0012 20.2438 27.255 19.0469 23.2904 19.0469H23.2902Z" fill="black"/>
<path d="M28.5922 25.375H18.0338C17.8079 25.375 17.625 25.5581 17.625 25.7838V26.0659C17.625 27.1092 18.3431 27.4279 20.3236 27.4279H26.3022C28.0808 27.4279 29.0009 27.1092 29.0009 26.0659V25.7838C29.0009 25.5581 28.8178 25.375 28.5919 25.375H28.5922Z" fill="black"/>
<path d="M23.0351 23.633C23.1934 23.727 23.3903 23.7278 23.5492 23.635L25.1253 22.7152C25.2307 22.6537 25.3385 22.5968 25.4479 22.543H21.1641C21.2853 22.6025 21.4051 22.6654 21.5218 22.7348L23.0351 23.633Z" fill="black"/>
<path d="M27.8684 22.543H27.814V22.5438H27.7066C26.8935 22.5438 26.0929 22.7604 25.3905 23.1704L23.8145 24.0901C23.6536 24.184 23.4735 24.2309 23.2935 24.2309C23.1108 24.2309 22.9282 24.1826 22.7658 24.0862L21.2528 23.1879C20.5434 22.7665 19.7321 22.5438 18.907 22.5438V22.543H18.7574C18.1319 22.543 17.625 23.0499 17.625 23.6754C17.625 24.3008 18.132 24.8077 18.7574 24.8077H27.8686C28.494 24.8077 29.001 24.3008 29.001 23.6754C29.0012 23.0499 28.494 22.543 27.8686 22.543L27.8684 22.543Z" fill="black"/>
<path d="M19.69 6.38262C20.0833 6.40864 20.4239 6.64597 20.5701 7.00213C20.6696 7.24458 20.8634 7.44563 21.1413 7.60195L20.6787 3.571C20.6657 3.45687 20.5626 3.37507 20.4485 3.38808L19.4966 3.49728C19.3825 3.51029 19.3007 3.61338 19.3139 3.72751L19.6102 6.30908C19.6149 6.35028 19.6488 6.37984 19.69 6.3826L19.69 6.38262Z" fill="black"/>
<path d="M21.4966 7.7528C21.8372 7.87284 22.2579 7.94696 22.7493 7.97219C22.792 7.97436 22.8291 7.93908 22.8281 7.8965L22.7329 4.25328C22.7299 4.13857 22.6345 4.04789 22.5196 4.05085L21.5619 4.07588C21.4472 4.07884 21.3565 4.17424 21.3594 4.28916L21.4481 7.68462C21.4491 7.71536 21.4677 7.74256 21.4966 7.75282L21.4966 7.7528Z" fill="black"/>
<path d="M23.3025 7.98436C23.8023 7.9749 24.2364 7.91853 24.5961 7.81819C24.6172 7.81228 24.6314 7.79336 24.6324 7.77148L24.8061 3.86117C24.8112 3.74646 24.7223 3.64948 24.6076 3.64435L23.6504 3.60177C23.5357 3.59665 23.4387 3.68555 23.4336 3.80027L23.25 7.93174C23.2489 7.96052 23.2735 7.98496 23.3025 7.98437L23.3025 7.98436Z" fill="black"/>
<path d="M25.0167 7.66259C25.3707 7.498 25.6139 7.27309 25.7294 6.99161C25.8505 6.69693 26.1051 6.48544 26.412 6.40617C26.4532 6.39552 26.4848 6.36261 26.4897 6.32042L26.8131 3.57899C26.8266 3.46506 26.7451 3.36158 26.631 3.34817L25.6796 3.23582C25.5657 3.22242 25.4622 3.30382 25.4488 3.41795L24.9534 7.61745C24.9495 7.65115 24.9859 7.67698 25.0167 7.66259L25.0167 7.66259Z" fill="black"/>
<path d="M14.16 18.0984L4.41453 20.0585C4.12477 20.1168 3.94659 20.4048 4.01439 20.6926C4.42301 22.4291 5.25184 24.0934 6.51356 25.5255C7.77508 26.958 9.32125 27.9903 10.9924 28.6149C11.2693 28.7184 11.5774 28.5782 11.6718 28.298L14.8469 18.8779C14.9945 18.4403 14.6129 18.0071 14.16 18.0982L14.16 18.0984ZM10.9784 23.0518C11.1862 23.065 11.3439 23.2442 11.3309 23.4519C11.3176 23.6597 11.1385 23.8174 10.9307 23.8044C10.723 23.7912 10.5653 23.6122 10.5783 23.4042C10.5915 23.1965 10.7707 23.0388 10.9784 23.0518ZM8.98284 20.6366C9.1906 20.6498 9.34849 20.829 9.33528 21.0367C9.32207 21.2445 9.14309 21.4022 8.93514 21.3892C8.72738 21.376 8.56969 21.1968 8.5827 20.989C8.59591 20.7813 8.77509 20.6236 8.98284 20.6366ZM11.4789 26.3543C11.4196 26.4781 11.2924 26.5471 11.1637 26.539C11.1229 26.5364 11.0821 26.5262 11.0429 26.5075C8.71794 25.3906 6.91907 23.3454 6.10776 20.8972C6.05119 20.7258 6.14403 20.5411 6.31532 20.4841C6.48681 20.4281 6.6715 20.5202 6.72847 20.6917C7.48437 22.9728 9.16007 24.8777 11.3259 25.9189C11.4885 25.9969 11.5571 26.1921 11.4789 26.3547L11.4789 26.3543ZM11.8382 21.4064C11.6305 21.3932 11.4728 21.214 11.4858 21.0062C11.499 20.7985 11.678 20.6408 11.8859 20.6538C12.0937 20.667 12.2514 20.8462 12.2384 21.0539C12.225 21.2617 12.046 21.4194 11.8382 21.4064Z" fill="black"/>
<path d="M19.9576 15.7304C20.5219 15.6387 21.6245 15.5011 23.1536 15.5011C24.6824 15.5011 25.785 15.6389 26.3495 15.7304C26.5849 15.7686 26.8027 15.603 26.8305 15.3661L27.7894 7.19903C27.8082 7.03898 27.6832 6.89844 27.522 6.89844H26.6833C26.4828 6.89844 26.2912 7.0104 26.2149 7.19588C25.8997 7.96344 24.9729 8.5126 23.1534 8.5126C21.3338 8.5126 20.407 7.96364 20.0918 7.19588C20.0157 7.01039 19.8241 6.89844 19.6235 6.89844L18.785 6.89863C18.6237 6.89863 18.4988 7.03918 18.5175 7.19923L19.4764 15.3663C19.5044 15.603 19.7222 15.7686 19.9576 15.7304L19.9576 15.7304ZM23.1553 9.75077C24.2095 9.75077 25.0669 10.6084 25.0669 11.6624C25.0669 12.7168 24.2093 13.5744 23.1553 13.5744C22.1011 13.5744 21.2437 12.7168 21.2437 11.6624C21.2437 10.6082 22.1013 9.75077 23.1553 9.75077V9.75077Z" fill="black"/>
<path d="M23.1503 12.9847C23.8795 12.9847 24.4726 12.3914 24.4726 11.6621C24.4726 10.933 23.8795 10.3398 23.1503 10.3398C22.4212 10.3398 21.8281 10.933 21.8281 11.6621C21.8281 12.3912 22.4212 12.9847 23.1503 12.9847V12.9847Z" fill="black"/>
</svg>
