<svg width="32" height="32" viewBox="0 0 32 32" fill="none" xmlns="http://www.w3.org/2000/svg">
<path fill-rule="evenodd" clip-rule="evenodd" d="M28.573 14.2514C28.3478 13.8262 27.7472 13.3512 27.7472 13.3512L25.27 6.8753C24.7445 5.6502 23.243 5 22.5924 5L10.431 5.00019C9.78031 5.00019 8.25405 5.65034 7.75348 6.87549L5.27626 13.3514C5.27626 13.3514 4.67566 13.8264 4.45044 14.2515C4.22522 14.6767 4 15.0515 4 17.9269C4 20.7273 4.57563 21.7273 5.25109 22.0523L5.95172 22.1024V24.7276C5.95172 25.5777 6.4523 26.0526 7.27787 26.0526H8.00347C8.82929 26.0526 9.25456 25.5776 9.25456 24.7276L9.25494 22.1022H23.7433V24.7274C23.7433 25.5775 24.1937 26.0524 24.9944 26.0524H25.72C26.5458 26.0524 27.0461 25.5774 27.0461 24.7274L27.0465 22.1022L27.7472 22.0521C28.4478 21.702 28.9982 20.7019 28.9982 17.9267C29.0234 15.0515 28.773 14.6765 28.573 14.2513L28.573 14.2514ZM8.82969 19.277C7.95398 19.277 7.22818 18.552 7.22818 17.6768C7.22818 16.8018 7.95378 16.0767 8.82969 16.0767C9.7054 16.0767 10.4312 16.8016 10.4312 17.6768C10.431 18.552 9.73037 19.277 8.82969 19.277ZM24.2441 19.277C23.3684 19.277 22.6426 18.552 22.6426 17.6768C22.6426 16.8018 23.3682 16.0767 24.2441 16.0767C25.1198 16.0767 25.8456 16.8016 25.8456 17.6768C25.8456 18.552 25.12 19.277 24.2441 19.277V19.277ZM24.194 12.2265H8.82971C8.82971 12.2265 8.52942 12.2514 8.62945 11.9514C8.70452 11.7014 9.73038 9.10113 9.9556 8.40109C10.0556 8.15111 10.5562 7.6011 11.2319 7.62605H21.8165C22.4921 7.57598 22.9925 8.1511 23.0927 8.40109C23.318 9.10113 24.3438 11.7014 24.4189 11.9514C24.494 12.2514 24.1937 12.2265 24.1937 12.2265H24.194Z" fill="black"/>
</svg>
