<svg width="32" height="32" viewBox="0 0 32 32" fill="none" xmlns="http://www.w3.org/2000/svg">
<path d="M11.0344 20.618C11.0043 20.2828 11.6748 17.8933 10.7697 15.653C10.7697 15.653 10.8368 15.3416 10.736 15.0304C10.6356 14.7196 9.60284 12.3067 9.43207 10.6978C9.26149 9.08917 9.22801 8.31851 9.22801 8.31851C9.22801 8.31851 9.73061 7.95334 9.12756 6.91427C9.12756 6.91427 9.52972 6.28125 9.06024 6.28125L6.18481 6.28143C5.71551 6.28143 6.11767 6.91445 6.11767 6.91445C5.51427 7.9535 6.01722 8.34956 6.01722 8.34956C6.01722 8.34956 5.98373 9.10479 5.81315 10.7134C5.64223 12.3221 4.60985 14.7274 4.50918 15.0382C4.40873 15.3493 4.47552 15.657 4.47552 15.657C3.57057 17.8973 4.24096 20.2845 4.21081 20.6198C4.18065 20.9548 4.50918 23.0652 4.74393 24.7741C4.9785 26.4835 4.40873 27.6497 4.24132 28.7221C4.0732 29.795 4.65979 31.1624 4.65979 31.1624H4.68118C4.85052 31.1624 6.09506 31.4112 7.60781 31.4112C9.1202 31.4112 10.3651 31.1624 10.5344 31.1624H10.5849C10.5849 31.1624 11.1715 29.7945 11.0039 28.7217C10.8365 27.6495 10.2665 26.5133 10.5013 24.8035C10.7364 23.095 11.0646 20.9528 11.0344 20.6178L11.0344 20.618Z" fill="black"/>
<path d="M27.7922 20.618C27.7621 20.2828 28.4327 17.8933 27.5275 15.653C27.5275 15.653 27.5947 15.3416 27.4939 15.0304C27.3934 14.7196 26.3606 12.3067 26.1899 10.6978C26.0193 9.08917 25.9858 8.31851 25.9858 8.31851C25.9858 8.31851 26.4884 7.95334 25.8854 6.91427C25.8854 6.91427 26.2875 6.28125 25.818 6.28125L22.9426 6.28143C22.4733 6.28143 22.8755 6.91445 22.8755 6.91445C22.2721 7.9535 22.775 8.34956 22.775 8.34956C22.775 8.34956 22.7415 9.10479 22.571 10.7134C22.4 12.3221 21.3677 14.7274 21.267 15.0382C21.1665 15.3493 21.2333 15.657 21.2333 15.657C20.3284 17.8973 20.9988 20.2845 20.9686 20.6198C20.9385 20.9548 21.267 23.0652 21.5017 24.7741C21.7363 26.4835 21.1665 27.6497 20.9991 28.7221C20.831 29.795 21.4176 31.1624 21.4176 31.1624H21.439C21.6083 31.1624 22.8529 31.4112 24.3656 31.4112C25.878 31.4112 27.1229 31.1624 27.2923 31.1624H27.3427C27.3427 31.1624 27.9293 29.7945 27.7617 28.7217C27.5943 27.6495 27.0244 26.5133 27.2591 24.8035C27.4942 23.095 27.8224 20.9528 27.7922 20.6178L27.7922 20.618Z" fill="black"/>
<path d="M20.254 17.9209C20.2163 17.5019 21.0545 14.5151 19.9231 11.7146C19.9231 11.7146 20.007 11.3255 19.881 10.9365C19.7554 10.548 18.4645 7.53177 18.251 5.52073C18.0378 3.50991 17.996 2.54657 17.996 2.54657C17.996 2.54657 18.6242 2.09011 17.8704 0.79128C17.8704 0.79128 18.3731 0 17.7862 0L14.192 0.000219135C13.6053 0.000219135 14.108 0.791499 14.108 0.791499C13.3538 2.09031 13.9825 2.58539 13.9825 2.58539C13.9825 2.58539 13.9406 3.52942 13.7274 5.54024C13.5137 7.55107 12.2232 10.5577 12.0974 10.9461C11.9718 11.3351 12.0553 11.7197 12.0553 11.7197C10.9242 14.5201 11.7621 17.5041 11.7244 17.9231C11.6868 18.3419 12.0974 20.9799 12.3908 23.116C12.6841 25.2528 11.9719 26.7105 11.7626 28.051C11.5524 29.3921 12.2857 31.1014 12.2857 31.1014H12.3124C12.5241 31.1014 14.0798 31.4124 15.9707 31.4124C17.8612 31.4124 19.4173 31.1014 19.629 31.1014H19.6921C19.6921 31.1014 20.4253 29.3915 20.2158 28.0506C20.0066 26.7103 19.2941 25.2901 19.5876 23.1528C19.8814 21.0171 20.2917 18.3395 20.254 17.9207L20.254 17.9209Z" fill="black"/>
</svg>
