<svg width="32" height="32" viewBox="0 0 32 32" fill="none" xmlns="http://www.w3.org/2000/svg">
<path d="M22.0859 13.8438C22.123 13.884 22.1739 13.9087 22.2284 13.9128C22.4378 13.9128 22.3623 13.8848 22.0859 13.8438ZM22.0859 13.8438C22.123 13.884 22.1739 13.9087 22.2284 13.9128C22.4378 13.9128 22.3623 13.8848 22.0859 13.8438Z" fill="black"/>
<path d="M17.5218 14.2603C17.5218 14.4244 17.3577 14.7503 17.1958 14.7503C16.3327 14.9122 15.4469 14.9122 14.5838 14.7503C14.4219 14.7503 14.2578 14.4244 14.2578 14.2603C14.2578 13.4443 15.0738 12.6283 15.553 12.1383C15.6435 12.0616 15.7583 12.0195 15.8768 12.0195C15.9954 12.0195 16.1102 12.0616 16.2006 12.1383C16.5417 12.6283 17.5218 13.4443 17.5218 14.2603Z" fill="#F6F7F9"/>
<path d="M12.8055 11.9921C11.8254 12.3181 10.5194 11.8281 10.1934 10.8502C10.0445 10.35 10.0775 9.81334 10.2865 9.33521C10.4955 8.85708 10.8671 8.46841 11.3354 8.23813C12.3154 7.91217 13.9474 7.91217 14.4375 8.88575C14.9232 10.0342 13.779 11.5021 12.8055 11.9921Z" fill="#F6F7F9"/>
<path d="M21.6325 10.8489C21.1446 11.9908 20.0005 12.4809 19.0226 11.9908C18.0447 11.5008 16.9006 9.86882 17.3906 8.89092C17.7166 7.91303 19.5126 7.74896 20.4905 8.24331C21.6325 8.72686 22.1225 9.70691 21.6325 10.8489Z" fill="#F6F7F9"/>
<path d="M13.7597 25.5231L10.8217 26.8291C8.53777 27.8092 9.35377 29.7671 7.39582 30.2572C6.74821 30.4212 5.92574 30.0931 5.43571 29.6095C5.2121 29.3068 5.07831 28.9471 5.04967 28.5718C5.02104 28.1965 5.09872 27.8207 5.27381 27.4875C4.99977 27.4146 4.74986 27.2706 4.54934 27.0701C4.34881 26.8695 4.2048 26.6196 4.13185 26.3456C3.98046 25.9559 3.95882 25.5277 4.07013 25.1248C4.18145 24.7218 4.41978 24.3655 4.74974 24.1087C5.07969 23.852 5.48367 23.7085 5.90164 23.6997C6.31962 23.6908 6.72931 23.817 7.06986 24.0595C7.55988 24.5495 8.36508 24.5495 8.86374 24.3855L9.84379 23.8954L13.7597 25.5231Z" fill="black"/>
<path d="M27.8696 26.5253C27.77 26.7852 27.6166 27.0212 27.4195 27.2176C27.2223 27.414 26.9858 27.5665 26.7254 27.6651C26.8538 27.9033 26.9318 28.1653 26.9547 28.4349C26.9775 28.7045 26.9448 28.9759 26.8584 29.2324C26.772 29.4888 26.6339 29.7247 26.4526 29.9255C26.2713 30.1264 26.0506 30.2878 25.8043 30.3998C25.5581 30.5119 25.2914 30.5721 25.0209 30.5768C24.7503 30.5815 24.4817 30.5306 24.2317 30.4272C23.9816 30.3238 23.7555 30.1701 23.5673 29.9757C23.3791 29.7813 23.2329 29.5503 23.1377 29.2971C22.8095 28.3192 22.1576 27.5032 21.1776 27.1772L9.75368 22.4432C9.3353 22.2681 8.8822 22.1919 8.42957 22.2203C7.97694 22.2488 7.53697 22.3812 7.1438 22.6072C5.83778 23.4232 4.04174 22.2813 4.2058 20.8112C4.3677 19.9952 4.85341 19.3433 5.51182 19.1792C5.35221 18.937 5.26715 18.6533 5.26715 18.3632C5.26715 18.0731 5.35221 17.7894 5.51182 17.5472C5.68395 17.1574 5.97769 16.8337 6.34908 16.6247C6.72048 16.4157 7.14957 16.3325 7.57215 16.3877C7.99474 16.4429 8.3881 16.6334 8.6934 16.9307C8.9987 17.2281 9.19952 17.6163 9.26581 18.0372C9.42771 18.6849 9.75368 19.3433 10.4078 19.5073L23.2996 24.7292C23.5929 24.8811 23.9282 24.9315 24.2532 24.8725C24.5781 24.8135 24.8744 24.6485 25.0956 24.4033C26.4016 22.9246 28.5215 24.5565 27.8696 26.5253Z" fill="black"/>
<path d="M27.015 22.4214C26.3674 22.7474 25.5449 22.7474 25.057 22.4214C24.6635 22.1952 24.223 22.0629 23.77 22.0348C23.3169 22.0068 22.8635 22.0836 22.445 22.2595L21.955 22.4214L18.0391 20.7894L21.955 19.1575C22.2464 19.0185 22.5014 18.8135 22.6996 18.5586C22.8979 18.3038 23.0339 18.0062 23.0969 17.6895C23.261 15.8935 25.873 15.4035 26.6869 17.3636C26.8509 17.8952 26.8509 18.4639 26.6869 18.9956C27.0488 19.0936 27.3698 19.3049 27.6028 19.5986C27.8359 19.8922 27.9688 20.2528 27.9821 20.6275C28.1483 21.763 27.1769 22.2595 27.015 22.4214Z" fill="black"/>
<path d="M21.144 4.1472C20.3739 3.39297 19.4506 2.81313 18.4368 2.44701C17.423 2.08088 16.3423 1.93703 15.268 2.02519C11.3521 2.35116 8.41406 5.94325 8.41406 9.85914V13.6131C8.41463 14.0458 8.58676 14.4606 8.89269 14.7665C9.19862 15.0724 9.61339 15.2445 10.046 15.2451C10.4787 15.2457 10.8935 15.4178 11.1994 15.7237C11.5053 16.0297 11.6775 16.4445 11.678 16.8771V17.2031C11.6847 17.7205 11.8931 18.2148 12.2588 18.5809C12.6245 18.947 13.1186 19.1559 13.636 19.1632H18.0441C18.5614 19.1559 19.0556 18.947 19.4213 18.5809C19.7869 18.2148 19.9953 17.7205 20.002 17.2031V16.8771C20.0031 16.4446 20.1755 16.0302 20.4813 15.7244C20.7871 15.4186 21.2015 15.2463 21.634 15.2451C22.0666 15.2445 22.4814 15.0724 22.7873 14.7665C23.0933 14.4606 23.2654 14.0458 23.266 13.6131V9.37128C23.2593 7.42133 22.4989 5.54949 21.144 4.1472V4.1472ZM12.8265 11.9812C11.8464 12.3071 10.5404 11.8171 10.2144 10.8392C10.0655 10.3391 10.0984 9.80237 10.3075 9.32424C10.5165 8.8461 10.8881 8.45744 11.3564 8.22716C12.3364 7.9012 13.9684 7.9012 14.4584 8.87477C14.9442 10.0232 13.8 11.4911 12.8265 11.9812ZM17.2324 14.7551C16.3692 14.917 15.4835 14.917 14.6203 14.7551C14.4584 14.7551 14.2944 14.4291 14.2944 14.2651C14.2944 13.4491 15.1104 12.6331 15.5896 12.1431C15.6801 12.0664 15.7948 12.0243 15.9134 12.0243C16.032 12.0243 16.1468 12.0664 16.2372 12.1431C16.5632 12.6331 17.5432 13.4491 17.5432 14.2651C17.554 14.427 17.39 14.7551 17.2281 14.7551H17.2324ZM21.6361 10.8392C21.1483 11.9812 20.0042 12.4712 19.0263 11.9812C18.0484 11.4911 16.9043 9.85914 17.3943 8.88125C17.7203 7.90335 19.5163 7.73929 20.4942 8.23364C21.6318 8.71719 22.1219 9.69724 21.6318 10.8392H21.6361Z" fill="black"/>
</svg>
