<svg width="32" height="32" viewBox="0 0 32 32" fill="none" xmlns="http://www.w3.org/2000/svg">
<path d="M4.00078 27.1131H23.0637V9.94531H17.2103V14.999C17.2103 15.1859 17.1194 15.3613 16.9669 15.4693L10.4455 20.0755C10.3464 20.1454 10.2302 20.181 10.1132 20.181C10.0227 20.181 9.93186 20.1596 9.84858 20.1164C9.65754 20.0175 9.53766 19.8203 9.53766 19.6052L9.53745 9.94531H4L4.00078 27.1131Z" fill="black"/>
<path d="M16.0648 14.7008V9.94531H10.6953V18.4934L16.0648 14.7008Z" fill="black"/>
<path d="M24.2109 26.5142L28.0012 23.5905V5.65625L24.2109 9.4465V26.5142Z" fill="black"/>
<path d="M27.0293 5H7.49584L4.60156 8.79025H23.2391L27.0293 5Z" fill="black"/>
</svg>
