<svg width="32" height="32" viewBox="0 0 32 32" fill="none" xmlns="http://www.w3.org/2000/svg">
<path d="M24.1508 7.49259C24.0597 8.58548 23.5346 9.59655 22.6928 10.2996L16.8718 15.2067L11.9429 8.54793L17.3831 3.97816C18.2217 3.26875 19.3078 2.9222 20.4019 3.01471C21.4963 3.10724 22.5088 3.63135 23.216 4.47144C23.9235 5.31153 24.2676 6.39833 24.1727 7.49247L24.1508 7.49259ZM11.0943 9.2444L5.46896 14.0099C4.63086 14.7169 4.10767 15.7279 4.0149 16.8206C3.92189 17.9132 4.267 18.9981 4.974 19.8365C5.68097 20.6746 6.69204 21.1978 7.78469 21.2906C8.87733 21.3836 9.9622 21.0385 10.8004 20.3315L16.0448 15.914L11.0943 9.2444ZM26.1745 17.0236C24.6376 15.4692 22.4247 14.7873 20.2794 15.2067C18.1342 15.6264 16.3414 17.0915 15.5033 19.1105C14.6649 21.1292 14.8929 23.4335 16.1102 25.2492L26.1745 17.0236ZM16.8062 26.0979C18.3413 27.6663 20.5618 28.3584 22.7165 27.94C24.871 27.5215 26.6709 26.0485 27.5073 24.0192C28.3438 21.99 28.1045 19.6765 26.8705 17.8613L16.8062 26.0979Z" fill="black"/>
</svg>
