<svg width="32" height="32" viewBox="0 0 32 32" fill="none" xmlns="http://www.w3.org/2000/svg">
<path d="M14.9091 20.1287L17.4377 11.7527L18.0383 9.72981C18.0699 9.5402 18.1016 9.35059 18.1016 9.12921C18.1016 7.39074 16.7108 6 14.9724 6C13.9293 6 12.9495 6.50577 12.3805 7.39079L6.375 15.9565C7.22846 15.4507 8.20824 15.1663 9.2829 15.1663C12.1593 15.1347 14.5615 17.3157 14.9093 20.1288L14.9091 20.1287Z" fill="black"/>
<path d="M9.24676 16.9648C7.09755 16.9648 5.39062 18.7033 5.39062 20.821C5.39062 22.9387 7.1291 24.7087 9.24676 24.7087C11.3644 24.7087 13.1344 22.9702 13.1344 20.821C13.1344 18.6715 11.3962 16.9648 9.24676 16.9648ZM9.24676 24.5507C7.19237 24.5507 5.51717 22.8755 5.51717 20.8211C5.51717 18.7665 7.19237 17.123 9.24676 17.123C11.3011 17.123 12.9763 18.7982 12.9763 20.8526C12.9766 22.907 11.3014 24.5507 9.24676 24.5507V24.5507Z" fill="black"/>
<path d="M9.2461 16.3398C6.74921 16.3398 4.75781 18.3627 4.75781 20.8281C4.75781 23.2935 6.7807 25.3479 9.2461 25.3479C11.7115 25.3479 13.7344 23.325 13.7344 20.8596C13.7344 18.3942 11.7433 16.3398 9.2461 16.3398ZM9.2461 25.19C6.84397 25.19 4.88419 23.2304 4.88419 20.8281C4.88441 18.4259 6.84403 16.4979 9.2461 16.4979C11.6482 16.4979 13.608 18.4575 13.608 20.8598C13.608 23.2619 11.6484 25.19 9.2461 25.19Z" fill="black"/>
<path d="M9.23966 17.6016C7.43791 17.6016 6.01562 19.0556 6.01562 20.8256C6.01562 22.5956 7.46969 24.0812 9.23966 24.0812C11.0096 24.0812 12.4637 22.6271 12.4637 20.8571C12.4637 19.0872 11.0414 17.6016 9.23966 17.6016V17.6016ZM9.23966 23.9231C7.53296 23.9231 6.14217 22.5323 6.14217 20.8256C6.14217 19.1189 7.53296 17.7281 9.23966 17.7281C10.9464 17.7281 12.3372 19.1189 12.3372 20.8256C12.3372 22.5323 10.9466 23.9231 9.23966 23.9231V23.9231Z" fill="black"/>
<path d="M9.25696 18.8281C8.15058 18.8281 7.26562 19.7131 7.26562 20.8195C7.26562 21.9258 8.15064 22.8108 9.25696 22.8108C10.3633 22.8108 11.2483 21.9258 11.2483 20.8195C11.2483 19.7131 10.3633 18.8281 9.25696 18.8281Z" fill="black"/>
<path d="M21.2952 22.3988C21.8958 22.3355 22.9704 22.3672 23.6658 22.9361L23.2548 11.6521C23.2233 11.5258 23.1915 11.4308 23.0967 11.336C22.8438 11.0516 22.275 10.9883 21.5796 10.9883C21.2635 10.9883 17.9763 12.0629 17.8183 12.0947L14.6259 22.7148C14.3098 23.5683 13.8042 24.3268 13.1719 24.9591C14.2465 24.5799 17.3757 23.5368 17.5338 23.4735C19.2092 22.9045 20.7263 22.462 21.2951 22.3989L21.2952 22.3988Z" fill="black"/>
<path d="M14.2724 22.2114C14.3987 21.7689 14.462 21.3264 14.462 20.8206C14.462 17.9443 12.123 15.6055 9.24687 15.6055C7.69804 15.6055 6.30747 16.3008 5.32746 17.3754L4.6321 18.3552C4.25287 19.0821 4 19.9356 4 20.8206C4 23.697 6.33902 26.0358 9.21515 26.0358C11.5224 26.0358 13.4505 24.5502 14.1459 22.464L14.2724 22.2114ZM9.24685 25.8147C6.49704 25.8147 4.25284 23.5704 4.25284 20.8207C4.25284 18.0706 6.49709 15.8582 9.24685 15.8582C11.9966 15.8582 14.2409 18.1024 14.2409 20.8522C14.2409 23.6019 11.9968 25.8147 9.24685 25.8147Z" fill="black"/>
<path d="M26.886 13.332H23.7568C23.7568 13.332 24.1678 24.0786 24.1678 24.2367C24.1362 24.7107 23.9464 25.0584 23.662 25.2482C23.0299 25.6592 21.9868 25.2798 20.8805 24.9005C19.4897 24.3948 18.0359 23.889 17.4035 24.869C17.3087 25.0271 17.2772 25.1534 17.3087 25.2482C17.5931 25.754 19.9637 25.7222 20.7539 25.7222C22.7452 25.6907 27.7392 25.7222 29.0035 25.7222L26.886 13.332Z" fill="black"/>
<path d="M21.3252 22.883C20.7879 22.9146 19.2074 23.4203 17.469 23.9894L17.4375 24.179C18.354 23.5469 19.7765 24.0209 21.0408 24.4952C21.9891 24.8429 22.9688 25.1591 23.4113 24.9062C23.5694 24.8114 23.6642 24.59 23.6958 24.2423C23.7273 23.8946 23.6325 23.6102 23.4113 23.4206C23.0319 23.0096 22.2735 22.8197 21.3252 22.883L21.3252 22.883Z" fill="black"/>
<path d="M9.256 18.2305C7.83371 18.2305 6.66406 19.3999 6.66406 20.8224C6.66406 22.2447 7.83349 23.4143 9.256 23.4143C10.6783 23.4143 11.8479 22.2449 11.8479 20.8224C11.8479 19.4001 10.7101 18.2305 9.256 18.2305V18.2305ZM9.256 23.2878C7.89699 23.2878 6.79061 22.1814 6.79061 20.8224C6.79061 19.4634 7.89699 18.357 9.256 18.357C10.615 18.357 11.7214 19.4634 11.7214 20.8224C11.7214 22.1814 10.6152 23.2878 9.256 23.2878Z" fill="black"/>
</svg>
