<svg width="10" height="16" viewBox="0 0 10 16" fill="none" xmlns="http://www.w3.org/2000/svg">
<path d="M0.82491 13.7159L0.824942 13.7158L6.89081 8.00014L0.825369 2.28485C0.825298 2.28478 0.825226 2.28472 0.825154 2.28465C0.724215 2.18971 0.64243 2.07532 0.586017 1.9472C0.529525 1.81889 0.5 1.68021 0.5 1.53936C0.5 1.39852 0.529525 1.25983 0.586017 1.13153C0.642384 1.00351 0.724083 0.8892 0.82491 0.794304C0.925553 0.699328 1.04348 0.625421 1.17125 0.575455C1.29917 0.525426 1.43538 0.5 1.5723 0.5C1.70923 0.5 1.84543 0.525426 1.97336 0.575455C2.1012 0.625447 2.21918 0.699406 2.31986 0.794455C2.31996 0.794549 2.32006 0.794643 2.32016 0.794737L9.17463 7.25465C9.17475 7.25477 9.17488 7.25489 9.175 7.255C9.17503 7.25503 9.17506 7.25506 9.17509 7.25508C9.27592 7.34998 9.35762 7.46429 9.41398 7.59231C9.47047 7.72061 9.5 7.85929 9.5 8.00014C9.5 8.14099 9.47047 8.27968 9.41398 8.40798C9.35762 8.53599 9.27592 8.6503 9.17509 8.7452L0.82491 13.7159ZM0.82491 13.7159C0.6209 13.9081 0.500299 14.1755 0.500299 14.4609C0.500299 14.7464 0.6209 15.0137 0.82491 15.206C1.02792 15.3973 1.29724 15.5 1.5723 15.5C1.84737 15.5 2.11669 15.3973 2.3197 15.206L9.17463 8.74563L0.82491 13.7159Z" fill="white" stroke="white"/>
</svg>
